ProbingCiaCozettOoteSans.sfdir
StartChar: B
Encoding: 66 66 37
Width: 1060
Flags: W
HStem: -178 60<639.849 867.915> 173 60<140.38 239.905 424.012 584.546> 339 395G<285.969 336 639 718.472> 416 60<168.81 267.98> 714 20G<639 718.472>
VStem: 60 66<246.356 372.143> 438 66<22.2313 216.279> 639 66<287.331 734>
LayerCount: 2
Back
SplineSet
522 349 m 4
 522 527.399969424 438.434331604 646 274 646 c 4
 230 646 198 646 160 644 c 5
 160 361 l 5
 160 58 l 5
 198 56 230 56 274 56 c 4
 438.434331604 56 522 173.002723767 522 349 c 4
94 361 m 5
 94 639 l 5
 94 699 l 5
 154 705 224 706 271 706 c 4
 458.480598225 706 588 593.390117187 588 351 c 4
 588 108.609882812 458.480598225 -4 271 -4 c 4
 224 -4 154 -4 94 3 c 5
 94 63 l 5
 94 361 l 5
EndSplineSet
Fore
Refer: 13 98 N 1 0 0 1 0 0 2
Substitution2: "lower-1" b
EndChar
StartChar: C
Encoding: 67 67 41
Width: 1010
Flags: W
HStem: -178 60<627.716 826.909> 173 60<141.472 236.558 381.767 462.489> 330 60<654.85 760> 476 72<290 356>
VStem: 65 66<243.498 385> 290 66<304.43 385 476 548> 453 66<-10.2802 178.021>
LayerCount: 2
Back
SplineSet
106 674 m 5xe3ac
 106 664 l 5
 172 664 l 5
 177 701 195.854492188 721 224 721 c 7
 258.8125 721 275 697.982421875 275 659 c 7
 275 591.083007812 179 523.838867188 97 486 c 5
 97 476 l 5
 199 476 l 5
 275 522.920898438 341 585.294921875 341 666 c 7
 341 744.065429688 292.084960938 781 230 781 c 7
 156.051757812 781 116 744 106 674 c 5xe3ac
EndSplineSet
Fore
Refer: 7 99 N 1 0 0 1 0 0 2
Substitution2: "lower-1" c
EndChar
StartChar: H
Encoding: 72 72 44
Width: 730
Flags: W
HStem: 0 60<376.34 549.116> 416 60<190.082 306.163> 714 20G<470.223 559 470.223 559>
VStem: 139 66<-59.2968 68.4182> 312 68<-88.698 24.1141> 324 66<265.507 397.491> 433.794 66<471.528 668.795> 599 66<109.68 273.407>
LayerCount: 2
Back
SplineSet
320 179 m 5
 244 179 192 203 173 274 c 5
 146 210.799804688 83 179 0 179 c 4
 -30 209 l 5
 0 239 l 4
 64 239 136 285 147 385 c 5
 222 385 l 5
 222 335 l 5
 222 256 264 239 316 239 c 5
 410 239 440 476 626 476 c 4
 741 476 796 393 796 321 c 7
 796 242 786.51953125 217.9765625 708 103 c 4
 594.635742188 -63 581 -109 581 -172 c 5
 513 -172 l 5
 513 -162 l 5
 513 -90 540.837890625 -34 658 136 c 4
 716.579101562 220.997070312 730 265 730 316 c 7
 730 372 694 416 619 416 c 4
 491 416 474 179 320 179 c 5
EndSplineSet
Fore
Refer: 5 104 N 1 0 0 1 0 0 2
Substitution2: "lower-1" h
EndChar
StartChar: P
Encoding: 80 80 15
Width: 770
Flags: W
HStem: -66 60<223.154 428.051> 179 60<108 345> 330 60<179.903 312.102> 385 60<612 664.827> 400 21G<471.739 508.5 471.739 508.5> 530 60<579.655 663.571> 700 20G<457 533 457 533> 724 10<512.135 552>
VStem: 65 66<81.8392 273.405> 108 23<179 239> 345 66<239 272> 361 66<484.743 642.814> 534 66<95.8712 288.477> 669 66<451.234 523.957>
LayerCount: 2
Back
SplineSet
108 179 m 5
 108 239 l 5
 328 239 l 5
 389 247 l 5
 389 179 l 5
 108 179 l 5
274 -6 m 3
 140 -6 65 75 65 206 c 3
 65 317 138 390 228 390 c 3
 302 390 364 347 379 257 c 1
 306 228 l 1
 306 286 290 330 225 330 c 3
 164 330 131 283 131 207 c 0
 131 104 180 54 272 54 c 3
 381 54 459 135 459 253 c 3
 459 397 351 429 351 587 c 3
 351 655 374 694 401 728 c 1
 469 728 l 1
 469 718 l 1
 431 676 417 639 417 585 c 3
 417 459 525 414 525 253 c 3
 525 101 420 -6 274 -6 c 3
319 -66 m 3
 165 -66 75 41 75 172 c 3
 75 330 173 390 263 390 c 3
 372 390 428 313 429 227 c 1
 356 228 l 1
 356 286 325 330 260 330 c 3
 199 330 141 290 141 173 c 0
 141 70 200 -6 322 -6 c 3
 461 -6 539 85 539 213 c 3
 539 390 421 419 421 577 c 3
 421 630 434 677 461 728 c 1
 529 728 l 1
 529 718 l 1
 501 666 487 621 487 575 c 3
 487 449 605 409 605 213 c 3
 605 50 501 -66 319 -66 c 3
EndSplineSet
Fore
Refer: 20 112 N 1 0 0 1 0 0 2
Substitution2: "lower-1" p
EndChar
StartChar: Q
Encoding: 81 81 51
Width: 300
Flags: W
HStem: 209 78<112 188>
VStem: 112 76<209 287>
LayerCount: 2
Back
SplineSet
379 646 m 7
 217 646 138 516 138 350 c 7
 138 180 225 56 381 56 c 7
 543 56 622 187 622 353 c 7
 622 523 535 646 379 646 c 7
373 -4 m 7
 168 -4 72 145 72 348 c 7
 72 551 166.76171875 706 387 706 c 7
 592 706 688 558 688 355 c 7
 688 152 593 -4 373 -4 c 7
EndSplineSet
Fore
SplineSet
188 209 m 1
 112 209 l 1
 112 287 l 1
 189 287 l 1
 188 209 l 1
EndSplineSet
EndChar
StartChar: T
Encoding: 84 84 10
Width: 1040
Flags: W
HStem: 178 60<463.857 645.31 709.897 857.411> 353 248G<447.5 520 540 611> 365 20G<926.5 1005 926.5 1005> 416 60<190.082 306.163 598.681 681.94> 601 21G<447.5 520> 674 60<508.95 573.736>
VStem: 139 66<-59.2968 68.4182> 312 68<-88.698 42.1561> 324 99<268 389> 357 33<239 418> 441 66<606.495 672.476> 451 69<601 644.347> 530 66<337.678 412.326> 578 66<575.909 671.098> 692 66<283.619 406.739> 939 66<326.642 385>
LayerCount: 2
Back
SplineSet
441 651 m 7
 441 701 479 734 534 734 c 7
 597 734 644 690 644 634 c 7xecdc
 644 547 572 506 519 473 c 4
 462 437 423 406 423 349 c 4
 423 266 475 238 558 238 c 4
 637 238 692 277 692 355 c 4
 692 396 672 416 636 416 c 7
 609 416 596 399 596 381 c 7
 596 368 601 357 611 342 c 5
 611 332 l 5
 545 332 l 5
 535 346 530 360 530 385 c 7xee6c
 530 440 576 476 631 476 c 7
 702 476 758 431 758 355 c 4
 758 245 672 178 558 178 c 4
 441 178 357 236 357 349 c 4
 357 438 429 490 482 523 c 4
 539 559 578 581 578 634 c 7xecdc
 578 662 557 674 536 674 c 7
 520 674 507 662 507 648 c 7
 507 634 511 624 524 614 c 5
 524 604 l 5
 455 604 l 5
 445 617 441 630 441 651 c 7
558 178 m 5
 558 238 l 5
 763 238 l 6
 869 238 914 293 939 385 c 5
 1005 385 l 5
 1005 375 l 5
 985 252 920.900390625 178 759 178 c 6
 558 178 l 5
EndSplineSet
Fore
Refer: 27 116 N 1 0 0 1 0 0 2
Substitution2: "lower-1" t
EndChar
StartChar: underscore
Encoding: 95 95 168
Width: 330
Flags: HW
HStem: 179 60<76 374>
VStem: 76 298<179 239>
LayerCount: 2
Fore
SplineSet
26 179 m 1
 26 239 l 1
 304 239 l 5
 304 179 l 5
 26 179 l 1
EndSplineSet
Substitution2: "fina-1" underscore.fina
Substitution2: "medi-1" underscore.medi
Substitution2: "init-1" underscore.init
EndChar
StartChar: a
Encoding: 97 97 9
Width: 880
Flags: W
HStem: -178 60<451.739 684.16> 173 60<163.463 444.008> 365 369G<67 136 426 533.013 606 670> 365 369G<67 136 426 533.013 606 670> 406 160G<599.5 678> 406 160G<599.5 678> 416 60<410.789 570.556> 542 60<352.487 477.041>
VStem: 65 66<263.214 385> 229 66<40.9582 284.785> 280 66<439.617 534.442>
AnchorPoint: "below" 100 120 basechar 0
LayerCount: 2
Back
SplineSet
65 308 m 4
 65 335 66 362 68 385 c 5
 136 385 l 5
 136 375 l 5
 133 355 131 341 131 321 c 4
 131 243.715820312 184.76953125 233 278 233 c 4
 430.104492188 233 580.730964467 253 610 439 c 5
 610 476 l 5
 670 476 l 5
 670 431 l 5
 637.770032051 203 464.98046875 173 272 173 c 4
 158.37109375 173 65 200.336914062 65 308 c 4
635 566 m 5xfe80
 426 715 l 5
 426 734 l 5
 512 734 l 5
 678 576 l 5
 678 566 l 5
 635 566 l 5xfe80
840 0 m 5
 840 -10 l 5
 780 -138 681 -178 558 -178 c 4
 389 -178 245 -73.064453125 245 130 c 7
 245 375 397 476 610 476 c 5
 610 416 l 5
 601 416 l 5
 446 416 311 357 311 131 c 4
 311 -37 426 -118 561 -118 c 4
 652 -118 730 -80 772 0 c 5
 840 0 l 5
396 542 m 4
 363.384765625 542 346 520.575195312 346 499 c 4
 346 471 366 443 391 426 c 5
 391 416 l 5
 315 416 l 5
 297 436 280 462 280 502 c 4
 280 562.28515625 315.982421875 602 391 602 c 4
 509.500976562 602 604 494 670 476 c 5
 639.8515625 422.403320312 l 5
 558 456 481.84765625 542 396 542 c 4
630 0 m 1
 630 -10 l 1
 570 -138 461 -178 359 -178 c 0
 193 -178 75 -70 75 87 c 3
 75 302 194 390 380 390 c 1
 380 330 l 1
 371 330 l 1
 245 330 141 276 141 88 c 0
 141 -45 236 -118 362 -118 c 0
 432 -118 520 -80 562 0 c 1
 630 0 l 1
150 209 m 1
 0 209 l 1
 -30 239 l 1
 0 269 l 1
 150 269 l 1
 275 269 345 283 380 383 c 1
 380 420 l 1
 440 420 l 1
 440 375 l 1
 400 249 311 209 150 209 c 1
620 0 m 25
 620 -10 l 1
 560 -138 451 -178 349 -178 c 0
 183 -178 75 -60 75 97 c 3
 75 312 194 420 380 420 c 1
 380 360 l 1
 371 360 l 1
 245 360 141 286 141 98 c 0
 141 -35 226 -118 352 -118 c 0
 422 -118 510 -80 552 0 c 1
 620 0 l 25
187 446 m 0
 161.384765625 446 142 430.575195312 142 409 c 0
 142 382 159 364 187 347 c 1
 187 337 l 1
 111 337 l 1
 90.578125 353.733398438 76 381 76 413 c 0
 76 468.28515625 120.982421875 506 191 506 c 0
 292.500976562 506 370 454 440 420 c 1
 409.8515625 366.403320312 l 1
 336 408 272.84765625 446 187 446 c 0
399 385 m 0
 319 430 215 476 143 476 c 3
 95 476 69 443 69 395 c 27
 69 360 87 332 109 308 c 1033
0 239 m 17
 224 239 288 322 378 462 c 1033
EndSplineSet
Fore
SplineSet
870 0 m 1xc2c0
 870 -10 l 1
 810 -138 686 -178 563 -178 c 0
 393 -178 229 -74.064453125 229 159 c 3
 229 392 388 476 503 476 c 3
 571 476 614 441 652 410 c 1
 610 385 l 1
 589 400 559 416 502 416 c 3
 422 416 295 365 295 160 c 0
 295 -36 432 -118 566 -118 c 0
 657 -118 760 -80 802 0 c 1
 870 0 l 1xc2c0
65 308 m 4
 65 335 66 362 68 385 c 5
 136 385 l 5
 136 375 l 5
 133 355 131 341 131 321 c 4
 131 243.715820312 189.76953125 233 303 233 c 4
 482 233 534 303 606 402 c 1
 606 436 l 1
 670 430 l 1
 670 385 l 1
 577 248 523 173 297 173 c 4
 163.37109375 173 65 200.336914062 65 308 c 4
635 566 m 1xc880
 426 715 l 1
 426 734 l 1
 512 734 l 1xe080
 678 576 l 1
 678 566 l 1
 635 566 l 1xc880
396 542 m 0xc3a0
 363.384765625 542 346 520.575195312 346 499 c 0
 346 471 366 443 391 426 c 1
 391 416 l 1
 315 416 l 1
 297 436 280 462 280 502 c 0
 280 562.28515625 315.982421875 602 391 602 c 0
 509.500976562 602 622 480 670 430 c 1
 639.8515625 376.403320312 l 1
 590 450 481.84765625 542 396 542 c 0xc3a0
EndSplineSet
Substitution2: "aslong-1" longvowel
Substitution2: "asmark-1" a.mark
Substitution2: "fina-1" a.fina
Substitution2: "medi-1" a.medi
Substitution2: "init-1" a.init
EndChar
StartChar: b
Encoding: 98 98 13
Width: 1060
Flags: W
HStem: -178 60<639.849 867.915> 173 60<140.38 239.905 424.012 584.546> 339 395G<285.969 336 639 718.472> 416 60<168.81 267.98> 714 20G<639 718.472>
VStem: 60 66<246.356 372.143> 438 66<22.2313 216.279> 639 66<287.331 734>
AnchorPoint: "below" 190 120 basechar 0
AnchorPoint: "above" 210 506 basechar 0
LayerCount: 2
Back
SplineSet
676 694 m 17
 710 606 839 610.168726563 839 536 c 3
 839 431.764689284 481 434 481 88 c 3
 481 -70.455078125 604 -148 734 -148 c 3
 840 -148 888 -118 956 -56 c 1033
720 740 m 1
 778 740 l 1
 748 703 771 635 830 595 c 1
 830 535 l 1
 782 490 784 428 802 385 c 1xd380
 739.48828125 422.181640625 l 1
 726 464 731 525 767 565 c 1
 714 618 694 667 720 740 c 1
501 120 m 1
 435 120 l 1
 435 212.766600906 457.606252187 281.30175067 493.150570893 333.294401811 c 0
 537.453177085 398.098286996 598.882694872 434.601102395 650.913495391 466.154925988 c 0
 714.38979318 504.649815223 759.067852628 533.923527013 773.154354312 585.676109289 c 1
 836.849732615 568.338905727 l 1
 814.424022205 485.948795743 745.432665185 446.288247837 685.066700075 409.679604589 c 0
 632.520485652 377.813210764 582.118994153 346.49665948 547.673446894 296.111242423 c 0
 520.219242839 255.95245177 501 202.019400983 501 120 c 1
EndSplineSet
Fore
SplineSet
505 173 m 3xe7
 400 173 349.397460938 209 304.861328125 324.049804688 c 0
 279.33203125 390 260.973632812 416 224 416 c 3
 178.9375 416 126 370.006835938 126 300 c 3
 126 253.983398438 154.98046875 233 191 233 c 3
 238.018554688 233 270.9375 283 301 359 c 1
 350 331 l 1
 308.106445312 224 261 173 184 173 c 3
 107 173 60 220.443359375 60 293 c 3
 60 394.044921875 138.887695312 476 229 476 c 3xd7
 298 476 334.232336439 435.999969458 367.138671875 343.950195312 c 0
 397.864504545 258 427 233 505 233 c 3
 583.067382812 233 639 282.668945312 639 365 c 2
 639 734 l 1
 705 734 l 1
 705 355 l 2
 705 241.774414062 619.97265625 173 505 173 c 3xe7
746 -178 m 4
 575.458007812 -178 438 -68.8642578125 438 136 c 7
 438 441 720 455 761 563 c 5
 718 582 683 619 654.854492188 694.06640625 c 5
 704.733398438 719.587890625 l 5
 732.2109375 648.469726562 764 617 827 598 c 5
 827 558 l 5
 801.619047619 476 689.273220433 431.792615037 606.740245239 366 c 4
 549.473678553 320.348947587 504 256.033780746 504 136 c 7
 504 -27.8505859375 609.34375 -118 746 -118 c 4
 841 -118 927 -86 982 0 c 5
 1050 0 l 5
 1050 -10 l 5
 978 -145 872 -178 746 -178 c 4
EndSplineSet
Substitution2: "aslong-1" longconsonant
Substitution2: "fina-1" b.fina
Substitution2: "medi-1" b.medi
Substitution2: "init-1" b.init
EndChar
StartChar: c
Encoding: 99 99 7
Width: 1010
Flags: W
HStem: -178 60<627.716 826.909> 173 60<141.472 236.558 381.767 462.489> 330 60<654.85 760> 476 72<290 356>
VStem: 65 66<243.498 385> 290 66<304.43 385 476 548> 453 66<-10.2802 178.021>
AnchorPoint: "above" 105 446 basechar 0
AnchorPoint: "below" 185 120 basechar 0
LayerCount: 2
Back
SplineSet
237 88 m 1
 236 9 l 1
 226 9 l 1
 202 45 179 60 154 60 c 3
 127.965820312 60 111 43 111 11 c 3
 111 -46 166 -83 389 -176 c 1
 389 -234 l 1
 379 -234 l 1
 92 -120 45 -60.0068359375 45 14 c 3xb98c
 45 80 91 120 155 120 c 3
 188.112304688 120 218 109 237 88 c 1
379 -14 m 3
 379 44.2490234375 346 87 295 87 c 3
 252 87 225 43 225 0 c 27
 225 -103 296 -178 353 -234 c 1033
793 385 m 17
 793 306 809 239 929 239 c 1033
272 405 m 1xf4
 266 370 264 345 264 315 c 0
 264 283 274 263 301 263 c 0
 337 263 357 323 357 390 c 1
 357 415 l 1
 423 415 l 1
 423 390 l 1
 423 307 435 263 478 263 c 0
 572.395507812 263 585 420 800 420 c 0
 829 420 875 418 902 414 c 1
 892 354 l 1
 866 358 828 360 800 360 c 0
 591 360 604.481445312 203 474 203 c 0
 425 203 398 232 386 261 c 1
 374 226 337 203 295 203 c 0
 232 203 198 248 198 310 c 0xec
 198 343 200 377 204 415 c 1
 272 415 l 1
 272 405 l 1xf4
357 476 m 25xe4
 357 548 l 25
 423 548 l 25
 423 476 l 25
 357 476 l 25xe4
800 420 m 1
 800 360 l 1
 639 360 563 262.881835938 563 91 c 0
 563 -36.7265625 646.3203125 -118 773 -118 c 0
 848 -118 917 -103 969 -81 c 1
 979 -81 l 1
 979 -142 l 1
 924 -165 855 -178 773 -178 c 0
 614.0234375 -178 497 -70.95703125 497 91 c 0
 497 295.473632812 639 420 800 420 c 1
830 385 m 0
 614 385 530 259 530 91 c 3
 530 -51 627 -148 773 -148 c 3
 850 -148 924 -133 980 -110 c 1024
390 390 m 1
 390 287 411 233 468 233 c 3
 563 233 544.868164062 390 640 390 c 3
 668 390 680 389 706 385 c 1025
245 476 m 0
 239 420 231 358.5078125 231 310 c 3
 231 269 254 233 301 233 c 3
 346 233 390 287 390 390 c 1025
EndSplineSet
Fore
SplineSet
290 476 m 1
 290 548 l 1
 356 548 l 1
 356 476 l 1
 290 476 l 1
1000 0 m 1
 1000 -10 l 1
 940 -138 831 -178 729 -178 c 0
 563 -178 453 -65 453 92 c 0
 453 135 456 154 463 180 c 1
 451 175 437 173 422 173 c 0
 363 173 325 209 314 261 c 1
 292 203 244 173 184 173 c 0
 109 173 65 221 65 286 c 0
 65 319 66 347 70 385 c 1
 138 385 l 1
 138 375 l 1
 132 340 131 321 131 291 c 0
 131 257 151 233 188 233 c 0
 238 233 277 290 287 385 c 1
 362 385 l 1
 362 335 l 1
 362 262 389 233 430 233 c 0
 503 233 542 390 760 390 c 1
 760 330 l 1
 751 330 l 1
 650 330 519 261 519 93 c 0
 519 -40 606 -118 732 -118 c 0
 802 -118 890 -80 932 0 c 1
 1000 0 l 1
EndSplineSet
Substitution2: "aslong-1" longconsonant
Substitution2: "fina-1" c.fina
Substitution2: "medi-1" c.medi
Substitution2: "init-1" c.init
EndChar
StartChar: d
Encoding: 100 100 25
Width: 880
Flags: W
HStem: 173 60<383.291 532.984> 416 60<190.082 306.163> 714 20G<556 635> 714 20G<556 635>
VStem: 139 66<-59.2968 68.4182> 312 68<-88.698 42.1561> 324 66<286.719 397.491> 447 66<471.263 588.752> 569 66<270.867 734> 769 66<-2.36848 191.453>
AnchorPoint: "above" 250 506 basechar 0
AnchorPoint: "below" 560 120 basechar 0
LayerCount: 2
Back
SplineSet
50 333 m 5x37c0
 105 409 166 476 257 476 c 7
 338 476 390 420 390 351 c 7
 390 216 195 122 195 20 c 3
 195 -42 274 -75 304 -118 c 1
 259 -162 l 1
 228 -119 129 -82 129 17 c 3
 129 143 324 253 324 346 c 7
 324 391 296 416 250 416 c 7
 184 416 125 336 60 236 c 5
 50 236 l 5
 50 333 l 5x37c0
193 129 m 1
 229 184 l 1
 357.799804688 111.403320312 390 54.501953125 390 -23 c 3
 390 -81 357 -137 317 -172 c 1
 234 -172 l 1
 234 -162 l 1
 275 -133 322 -76 322 -28 c 3
 322 29.5341796875 297.8125 70.490234375 193 129 c 1
618 709 m 25
 576 639 510 612 510 530 c 27
 510 289 873 272 873 31 c 27
 873 -70 822 -132 747 -194 c 1033
EndSplineSet
Fore
SplineSet
324 340 m 7xcbc0
 324 389 296 416 250 416 c 7
 184 416 125 336 60 236 c 5
 50 236 l 5
 50 333 l 5
 105 409 166 476 257 476 c 7
 338 476 390 418 390 345 c 7
 390 154 205 125 205 3 c 7
 205 -64 265 -90 284 -118 c 5
 239 -162 l 5
 199 -122 139 -80 139 0 c 7
 139 166 324 197 324 340 c 7xcbc0
57 344 m 1025
193 119 m 5
 239 164 l 5
 341 100 380 55 380 -23 c 7
 380 -81 342 -137 302 -172 c 5
 219 -172 l 5
 219 -162 l 5
 260 -133 312 -76 312 -28 c 7xcdc0
 312 30 280 70 193 119 c 5
471 173 m 3
 396 173 348 198 310 235 c 1
 351 283 l 0
 375 254 413 233 469 233 c 3
 531 233 569 271 569 359 c 2
 569 734 l 1
 635 734 l 1xe9c0
 635 355 l 2
 635 233 574 173 471 173 c 3
513 527 m 0
 513 470 575 429 667 363 c 0
 756 300 835 228 835 91 c 0
 835 -31 744 -136 648 -208 c 1
 565 -208 l 1
 565 -198 l 1
 674 -120 769 -26 769 91 c 0
 769 195 718 250 626 316 c 0
 537 379 447 428 447 523 c 0
 447 619 540 652 572 728 c 1
 627 705 l 1
 602 638 513 605 513 527 c 0
EndSplineSet
Substitution2: "aslong-1" longconsonant
Substitution2: "fina-1" d.fina
Substitution2: "medi-1" d.medi
Substitution2: "init-1" d.init
EndChar
StartChar: e
Encoding: 101 101 16
Width: 800
Flags: W
HStem: 173 60<240.892 333.869 482.044 690> 365 20G<168 238> 365 20G<168 238 417 474> 416 60<513.101 643.116> 446 21G<219.812 290 366.06 430> 446 21G<219.812 290 366.06 430> 559 60<12 114.632>
VStem: 165 66<243.498 385> 463 68<-172 -73.4557> 680 66<228.176 380.349>
LayerCount: 2
Fore
SplineSet
387 446 m 1x8bc0
 231 595 l 1
 231 614 l 1
 317 614 l 1
 430 446 l 1
 387 446 l 1x8bc0
247 446 m 1
 160 510 l 2
 103 552 58 559 12 559 c 1
 12 619 l 1
 22 619 l 1
 112 619 162 581 213 531 c 2
 290 456 l 1
 290 446 l 1
 247 446 l 1
284 173 m 1
 206 173 165 221 165 286 c 0
 165 319 166 347 170 385 c 1
 238 385 l 1
 238 375 l 1
 232 340 231 321 231 291 c 0
 231 257 251 233 288 233 c 1
 384 233 408 476 576 476 c 0
 691 476 746 393 746 321 c 3
 746 242 736.51953125 217.9765625 658 103 c 0
 544.635742188 -63 531 -109 531 -172 c 1
 463 -172 l 1
 463 -162 l 1
 463 -90 490.837890625 -34 608 136 c 0
 666.579101562 220.997070312 680 265 680 316 c 3
 680 372 644 416 569 416 c 0xd3c0
 452 416 446 173 284 173 c 1
457 295 m 4
 457 250 514 239 558 239 c 6
 690 239 l 1
 720 209 l 1
 690 179 l 1
 553 179 l 6
 474 179 398 198 398 280 c 4
 398 310 412 337 422 364 c 5
 474 346 l 5
 463 326 457 316 457 295 c 4
EndSplineSet
Substitution2: "aslong-1" longvowel
Substitution2: "asmark-1" e.mark
Substitution2: "fina-1" e.fina
Substitution2: "medi-1" e.medi
Substitution2: "init-1" e.init
EndChar
StartChar: g
Encoding: 103 103 17
Width: 970
Flags: W
HStem: 173 60<141.472 236.558 395.851 570.594 767.003 942.582> 197 63<861.375 962> 365 20G<68 138 282 362 733 797> 365 20G<68 138 282 362 733 797> 446 72<292 358> 509 21G<488 535 603 631.222 701.5 765.333> 509 21G<488 535 603 631.222 701.5 765.333> 536 71<327 361> 656 25<492 503> 677 57<340.659 516.482>
VStem: 65 66<243.498 385> 257 66<547 659.588> 292 66<309.658 385 446 518> 424 66<587.925 629.45>
AnchorPoint: "above" 105 446 basechar 0
AnchorPoint: "below" 185 120 basechar 0
LayerCount: 2
Back
SplineSet
470 635 m 4
 437 635 420 614 420 592 c 4
 420 564 440 536 465 519 c 5
 465 509 l 5
 418 520 l 5
 400 540 354 555 354 595 c 4
 354 665 399 681 474 681 c 4x05b8
 522 681 556 673 598 646 c 5
 566 601 l 21
 534 625 502 635 470 635 c 4
334 674 m 4x0178
 292 674 253 657 253 613 c 4
 253 585 266 563 291 546 c 5
 291 536 l 5
 215 536 l 5
 197 556 187 581 187 616 c 4
 187 689 253 734 338 734 c 4x0178
 465 734 606 702 797 430 c 5
 740 385 l 5
 639.563562089 560.151349041 542.127563814 629.162145915 464.000005423 656.345631028 c 5
 452.569692018 660.322662445 430.552734375 653.612304688 420 656 c 5x21b8
 401 667 366.944335938 674 334 674 c 4x0178
257 547 m 5
 250 607 l 5
 481 607 571 472 667 371 c 4
 720 315 775 239 859 239 c 4
 907 239 922 245 952 260 c 13
 962 260 l 5
 962 197 l 5x4138
 940 187 910 179 859 179 c 4
 746 179 678 268 617 332 c 4
 519 435 435 547 257 547 c 5
343 674 m 0xc3a0
 290 674 253 657 253 613 c 0
 253 585 266 563 291 546 c 1
 291 536 l 1
 215 536 l 1
 197 556 187 581 187 616 c 0
 187 689 253 734 338 734 c 0
 465 734 606 702 797 430 c 1
 740 385 l 1
 576 671 420 674 343 674 c 0xc3a0
470.1484375 634.596679688 m 0xc3a0
 437.533203125 634.596679688 420.1484375 613.171875 420.1484375 591.596679688 c 0
 420.1484375 563.596679688 440.1484375 535.596679688 465.1484375 518.596679688 c 1
 465.1484375 508.596679688 l 1
 389.1484375 508.596679688 l 1
 371.1484375 528.596679688 354.1484375 554.596679688 354.1484375 594.596679688 c 0
 354.1484375 654.881835938 390.130859375 694.596679688 465.1484375 694.596679688 c 0
 513.032226562 694.596679688 555.935546875 672.676757812 598 645.635742188 c 9
 566 600.704101562 l 17
 534.374023438 625.129882812 501.75 634.596679688 470.1484375 634.596679688 c 0xc3a0
237 572 m 17
 577 572 669 209 859 209 c 1
 937 209 951 228 993 246 c 1033
70 -45 m 1
 94 169 455 451 500 449 c 1025
166 92 m 1
 220 62 l 1
 183 24 156 -41 152 -86 c 1
 190 -113 249 -122 297 -122 c 0
 380 -122 445 -79 445 -20 c 0
 445 32 422 59 367 59 c 0
 311 59 266 53 225 53 c 0
 168 53 112 81 112 140 c 0
 112 186 133 219 183 239 c 1
 196 226.627929688 212 225.530273438 225 201 c 1
 190 194 176 177 176 148 c 0
 176 125 204 115 229 115 c 0
 266 115 302 121 371 121 c 0
 460 121 511 74 511 -10 c 0
 511 -126 414 -182 290 -182 c 0
 222 -182 134 -165 79 -120 c 1
 79 -90 l 1
 89 -26 129 43 166 92 c 1
182 169 m 17
 155 144 125 105 125 78 c 3
 125 40 153 26 194 26 c 3
 288 26 508 110.40234375 508 -44 c 3
 508 -115.033203125 400.553710938 -152 290 -152 c 3
 211 -152 95 -132 28 -106 c 1025
EndSplineSet
Fore
SplineSet
327 547 m 1x4124
 320 607 l 1
 522 607 574.51953125 495 655 366 c 0
 720.506835938 261 775 239 859 239 c 0
 907 239 922 245 952 260 c 9
 962 260 l 1
 962 197 l 1
 940 187 910 179 859 179 c 0
 746 179 677 219 599 337 c 0
 520.20703125 456.200195312 473 547 327 547 c 1x4124
536 635 m 0
 504 635 490 614 490 592 c 0
 490 564 510 536 535 519 c 1
 535 509 l 1
 488 520 l 1
 470 540 424 555 424 595 c 0
 424 665 469 681 544 681 c 0x05a4
 592 681 607 663 649 636 c 1
 617 591 l 17
 589 619 568 635 536 635 c 0
411 677 m 0x0174
 359 677 323 657 323 613 c 0
 323 585 336 563 361 546 c 1
 361 536 l 1
 288 536 l 1
 270 556 257 581 257 616 c 0
 257 689 323 734 408 734 c 0x0174
 525 734 666 702 797 430 c 1
 740 385 l 1
 663 561 595 629 517 656 c 1
 506 660 503 654 492 656 c 1x21b4
 473 667 444 677 411 677 c 0x0174
292 446 m 1x092c
 292 518 l 1
 358 518 l 1
 358 446 l 1
 292 446 l 1x092c
464 173 m 0xa124
 378 173 327 209 314 261 c 1
 292 203 244 173 184 173 c 0
 109 173 65 221 65 286 c 0
 65 319 66 347 70 385 c 1
 138 385 l 1
 138 375 l 1
 132 340 131 321 131 291 c 0
 131 257 151 233 188 233 c 0
 238 233 277 290 287 385 c 1
 362 385 l 1
 362 335 l 1
 362 262 409 233 470 233 c 0
 579 233 661 303 733 402 c 1
 733 436 l 1
 797 430 l 1
 797 385 l 1
 704 248 614 173 464 173 c 0xa124
EndSplineSet
Substitution2: "aslong-1" longconsonant
Substitution2: "fina-1" g.fina
Substitution2: "medi-1" g.medi
Substitution2: "init-1" g.init
EndChar
StartChar: h
Encoding: 104 104 5
Width: 730
Flags: W
HStem: 0 60<376.34 549.116> 416 60<190.082 306.163> 714 20G<470.223 559> 714 20G<470.223 559>
VStem: 139 66<-59.2968 68.4182> 312 68<-88.698 24.1141> 324 66<265.507 397.491> 433.794 66<471.528 668.795> 599 66<109.68 273.407>
AnchorPoint: "below" 565 -66 basechar 0
AnchorPoint: "above" 250 506 basechar 0
LayerCount: 2
Back
SplineSet
212 700 m 4
 212 719 227 734 246 734 c 4
 265 734 280 719 280 700 c 4
 280 681 265 666 246 666 c 4
 227 666 212 681 212 700 c 4
300 582 m 4
 300 601 315 616 334 616 c 4
 353 616 368 601 368 582 c 4
 368 563 353 548 334 548 c 4
 315 548 300 563 300 582 c 4
125 582 m 4
 125 601 140 616 159 616 c 4
 178 616 193 601 193 582 c 4
 193 563 178 548 159 548 c 4
 140 548 125 563 125 582 c 4
0 289 m 0
 50 289 89 316 122 363 c 1024
295 349 m 1
 258 305 233 283 184 283 c 3
 149 283 127 316 127 351 c 3
 127 398.518554688 159 476 217 476 c 3
 249 476 271.26953125 447.885742188 296 384 c 0
 320 322 349 289 420 289 c 1024
EndSplineSet
Fore
SplineSet
193 119 m 1xcd80
 239 164 l 1
 341 100 380 55 380 -23 c 3
 380 -81 342 -137 302 -172 c 1
 219 -172 l 1
 219 -162 l 1
 260 -133 312 -76 312 -28 c 3
 312 30 280 70 193 119 c 1xcd80
324 340 m 3xcb80
 324 389 296 416 250 416 c 3
 184 416 125 336 60 236 c 1
 50 236 l 1
 50 333 l 1
 105 409 166 476 257 476 c 3
 338 476 390 418 390 345 c 3
 390 154 205 125 205 3 c 3
 205 -64 265 -90 284 -118 c 1
 239 -162 l 1
 199 -122 139 -80 139 0 c 3
 139 166 324 197 324 340 c 3xcb80
559 724 m 1
 515.793945312 673 499.793945312 628 499.793945312 570 c 3
 499.793945312 393.993164062 665 361.00390625 665 192 c 3
 665 77.8447265625 596 0 477 0 c 3
 395.883789062 0 334.26171875 31.2451171875 238 92.1484375 c 1
 289 129.017578125 l 1
 339.146484375 88.595703125 417.239257812 60 470 60 c 3
 549 60 599 105.943359375 599 192 c 3
 599 333.004882812 433.793945312 369 433.793945312 567 c 3
 433.793945312 627 449.651367188 683 490.793945312 734 c 1
 559 734 l 1xe980
 559 724 l 1
EndSplineSet
Substitution2: "aslong-1" longconsonant
Substitution2: "fina-1" h.fina
Substitution2: "medi-1" h.medi
Substitution2: "init-1" h.init
EndChar
StartChar: l
Encoding: 108 108 21
Width: 870
Flags: W
HStem: -168 67<431.243 477.054> 0 60<250.521 498.773> 179 60<155.67 397> 179 42<247.688 341> 706 28G<67 136 378 448 605.397 704> 706 28G<67 136 378 448 605.397 704>
VStem: 65 66<264.27 385> 166 66<79.7855 158.354> 254 66<483.716 588.58> 382 66<-178 -168 -101 179 239 682 726 734> 382 15<179 239> 539.794 66<497.195 641.161> 578 66<122.618 252.978> 739 66<99.0825 290.796>
AnchorPoint: "above" 105 446 basechar 0
AnchorPoint: "below" 157 0 basechar 0
LayerCount: 2
Back
SplineSet
327 209 m 5
 231 209 125 161 125 76 c 7
 125 -4 220 -36 344 -36 c 7
 466.016601562 -36 571 23.946318395 571 173 c 7
 571 412 247 406.875976562 247 552 c 7
 247 602.039984013 275 660 379 692 c 1029
EndSplineSet
Fore
SplineSet
341 221 m 1xd38c
 357 180 l 1
 274 180 232 160.84375 232 116 c 3
 232 74.5888671875 285.845703125 60 364 60 c 3
 517.499023438 60 578 114.305664062 578 189 c 3
 578 351.05859375 254 353.997070312 254 532 c 3
 254 626.220703125 363 683 393 726 c 1
 439 682 l 1
 405 644 320 598.166015625 320 532 c 3
 320 408 644 400.017578125 644 189 c 3
 644 90.150390625 566.885742188 0 360 0 c 3
 225.216796875 0 166 53.724609375 166 116 c 3
 166 193.373046875 247.6875 221 341 221 c 1xd38c
704 724 m 1
 649 681 605.793945312 628 605.793945312 565 c 3
 605.793945312 438.848632812 805 409.018554688 805 193 c 3
 805 -47.107421875 574 -82 448 -168 c 1
 431.243164062 -168 348.856445312 -101 443 -101 c 1
 536 -38 739 4.9892578125 739 193 c 3
 739 389.004882812 539.793945312 399 539.793945312 564 c 3
 539.793945312 640 580 693 630.793945312 734 c 1
 704 734 l 1xcbd4
 704 724 l 1
297 179 m 0xe3a4
 173.37109375 179 65 200.336914062 65 308 c 0
 65 335 66 362 68 385 c 1
 136 385 l 1
 136 375 l 1
 133 355 131 341 131 321 c 0
 131 243.715820312 189.76953125 239 303 239 c 0
 397 239 l 25
 397 179 l 25
 297 179 l 0xe3a4
382 734 m 1xcbc4
 448 734 l 1
 448 -178 l 1
 382 -178 l 1
 382 734 l 1xcbc4
EndSplineSet
Substitution2: "aslong-1" longconsonant
Substitution2: "fina-1" l.fina
Substitution2: "medi-1" l.medi
Substitution2: "init-1" l.init
EndChar
StartChar: m
Encoding: 109 109 28
Width: 760
Flags: W
HStem: 48 72<151 217> 173 60<140.38 239.905 441.248 585.482> 339 395G<285.969 336 529 636> 365 21G<618.375 643> 416 60<168.928 268.096> 714 20G<529 636>
VStem: 60 66<246.356 372.143> 151 66<48 120> 458 66<493.36 643.186> 608 65<255.86 354.967>
AnchorPoint: "below" 187 -6 basechar 0
AnchorPoint: "above" 210 506 basechar 0
LayerCount: 2
Back
SplineSet
485 173 m 7
 410 173 349.397117574 208.999867083 304.861328125 324.049804688 c 4
 279.33203125 390 260.973632812 416 224 416 c 7
 178.9375 416 126 370.006835938 126 300 c 7
 126 253.983398438 154.98046875 233 191 233 c 7
 238.018554688 233 270.9375 283 301 359 c 5
 350 331 l 5
 308.106445312 224 261 173 184 173 c 7
 107 173 60 220.443359375 60 293 c 7
 60 394.044921875 138.887695312 476 229 476 c 7xd780
 298 476 334.232336439 435.999969458 367.138671875 343.950195312 c 4
 397.507020394 259 437 233 485 233 c 7
 524 233 555 258.990909842 555 314 c 7
 555 414.004882812 415 485.99609375 415 597 c 7
 415 691.004882812 472 742 522 783 c 5
 602 783 l 5
 602 773 l 5
 536 721 481 670 481 602 c 7
 481 500.995117188 621 439.040039062 621 317 c 7
 621 231 558 173 485 173 c 7
512 744 m 1
 508 736 505 755 543 734 c 1
 543 702 625 657 625 596 c 3
 625 483 557 494 557 406 c 1
 503 444 l 1
 503 521 559 510 559 589 c 3xe1d480
 559 635 487 674 487 712 c 0
 487 725.6015625 492 711 492 729 c 1
 512 744 l 1
EndSplineSet
Fore
SplineSet
521 173 m 3xe3c0
 429 173 342.848632812 223 299.861328125 334.049804688 c 0
 278.203125 390 260.973632812 416 224 416 c 3
 178.9375 416 126 370.006835938 126 300 c 3
 126 253.983398438 154.98046875 233 191 233 c 3
 238.018554688 233 270.9375 283 301 359 c 1
 350 331 l 1
 308.106445312 224 261 173 184 173 c 3
 107 173 60 220.443359375 60 293 c 3
 60 394.044921875 135.887695312 476 224 476 c 3xcbc0
 293 476 328.734375 435 362.138671875 353.950195312 c 0
 396.514648438 270.541015625 457 233 521 233 c 3
 575 233 608 264.991210938 608 304 c 3
 608 380.026367188 458 438 458 562 c 3
 458 637.03125 505 700 553 734 c 1
 636 734 l 1
 636 724 l 1
 566 683 524 635 524 565 c 3
 524 442 673 421 673 307 c 3
 673 229.987304688 616 173 521 173 c 3xe3c0
570 720 m 5
 628 720 l 5
 598 683 621 615 680 575 c 5
 680 515 l 5
 632 470 634 408 652 365 c 5xd3c0
 589.48828125 402.181640625 l 5
 576 444 581 505 617 545 c 5
 564 598 544 647 570 720 c 5
151 48 m 1
 151 120 l 1
 217 120 l 1
 217 48 l 1
 151 48 l 1
EndSplineSet
Substitution2: "aslong-1" longconsonant
Substitution2: "fina-1" m.fina
Substitution2: "medi-1" m.medi
Substitution2: "init-1" m.init
EndChar
StartChar: n
Encoding: 110 110 11
Width: 740
Flags: W
HStem: 48 72<81 147 291 357> 173 60<141.472 237.254 405.546 565.482> 365 21G<598.375 623> 385 315G<68 138 282 362 509 616> 385 315G<68 138 282 362 509 616>
VStem: 65 66<243.498 385> 81 66<48 120> 291 66<48 120 307.65 385> 438 66<493.36 643.186> 588 65<255.86 354.967>
AnchorPoint: "above" 210 446 basechar 0
AnchorPoint: "below" 220 -6 basechar 0
LayerCount: 2
Fore
SplineSet
550 720 m 1xe1c0
 608 720 l 1
 578 683 601 615 660 575 c 1
 660 515 l 1
 612 470 614 408 632 365 c 1
 569.48828125 402.181640625 l 1
 556 444 561 505 597 545 c 1
 544 598 524 647 550 720 c 1xe1c0
501 233 m 3
 555 233 588 264.991210938 588 304 c 3
 588 380.026367188 438 438 438 562 c 3
 438 637.03125 485 700 533 734 c 1
 616 734 l 1
 616 724 l 1
 546 683 504 635 504 565 c 3
 504 442 653 421 653 307 c 3
 653 229.987304688 596 173 501 173 c 3
 402 173 342 208 320 267 c 1
 298 204 244 173 184 173 c 0
 109 173 65 221 65 286 c 0
 65 319 66 347 70 385 c 1
 138 385 l 1
 138 375 l 1
 132 340 131 321 131 291 c 0
 131 257 151 233 188 233 c 0
 238 233 277 290 287 385 c 1
 362 385 l 1xd5c0
 362 345 l 1
 362 261 418 233 501 233 c 3
291 48 m 1
 291 120 l 1
 357 120 l 1
 357 48 l 1
 291 48 l 1
81 48 m 1xc3c0
 81 120 l 1
 147 120 l 1
 147 48 l 1
 81 48 l 1xc3c0
EndSplineSet
Substitution2: "aslong-1" longconsonant
Substitution2: "fina-1" n.fina
Substitution2: "medi-1" n.medi
Substitution2: "init-1" n.init
EndChar
StartChar: o
Encoding: 111 111 1
Width: 700
Flags: W
HStem: 173 60<140.892 233.869 382.044 590> 365 20G<68 138 317 374> 416 60<413.101 543.116> 686 21G<240.756 263> 686 21G<240.756 263> 740 60<277.972 359.881>
VStem: 65 66<243.498 385> 366 66<-172 -69.657 621.131 734.5> 580 66<228.176 380.349>
LayerCount: 2
Back
SplineSet
184 173 m 5
 106 173 65 221 65 286 c 4
 65 319 66 347 70 385 c 5
 138 385 l 5
 138 375 l 5
 132 340 131 321 131 291 c 4
 131 257 151 233 188 233 c 5
 291 233 293 476 476 476 c 4
 591 476 646 393 646 321 c 4
 646 225 591.072265625 181 555 129 c 4
 518.444335938 74 495 38 495 -25 c 4
 495 -73 526 -117 616 -162 c 5
 616 -172 l 5
 518 -172 l 5
 475 -140 429 -97 429 -21 c 4xfd80
 429 58 458.577148438 101 503 166 c 4
 539.515625 220 580 255 580 316 c 4
 580 372 551 416 469 416 c 4
 337 416 344 173 184 173 c 5
333 355 m 1
 324 332 319 307 319 282 c 3
 319 220 381 209 443 209 c 3
 568 209 635 209 760 209 c 1049
184 173 m 1
 106 173 65 221 65 286 c 0
 65 319 66 347 70 385 c 1
 138 385 l 1
 138 375 l 1
 132 340 131 321 131 291 c 0
 131 257 151 233 188 233 c 1
 291 233 286 476 496 476 c 0
 631 476 676 392 676 326 c 0xf998
 676 234 613 181 562 136 c 0
 508 88 475 48 475 -25 c 0
 475 -73 501 -106 557 -134 c 1
 512 -178 l 1
 458 -145 409 -97 409 -21 c 0
 409 78 452 122 516 179 c 0
 569 226 610 264 610 321 c 0xfc98
 610 372 585 416 489 416 c 0
 332 416 344 173 184 173 c 1
EndSplineSet
Fore
SplineSet
184 173 m 1xe780
 106 173 65 221 65 286 c 0
 65 319 66 347 70 385 c 1
 138 385 l 1
 138 375 l 1
 132 340 131 321 131 291 c 0
 131 257 151 233 188 233 c 1
 284 233 308 476 476 476 c 0
 591 476 646 393 646 321 c 3
 646 242 636.51953125 217.9765625 558 103 c 0
 444.635742188 -63 431 -109 431 -172 c 1
 363 -172 l 1
 363 -162 l 1
 363 -90 390.837890625 -34 508 136 c 0
 566.579101562 220.997070312 580 265 580 316 c 3
 580 372 544 416 469 416 c 0
 352 416 346 173 184 173 c 1xe780
357 295 m 0
 357 250 414 239 458 239 c 2
 590 239 l 1
 620 209 l 1
 590 179 l 1
 453 179 l 2
 374 179 298 198 298 280 c 0
 298 310 312 337 322 364 c 1
 374 346 l 1
 363 326 357 316 357 295 c 0
240 768 m 1
 261 787 296 800 327 800 c 3
 387 800 432 764 432 696 c 3
 432 606 352 530 198 416 c 1
 188 416 l 1
 188 471 l 1
 302 558 366 621 366 691 c 3
 366 723 349 740 323 740 c 3
 302 740 275 722 251 686 c 1
 241 686 l 1xf780
 240 768 l 1
EndSplineSet
Substitution2: "aslong-1" longvowel
Substitution2: "asmark-1" o.mark
Substitution2: "fina-1" o.fina
Substitution2: "medi-1" o.medi
Substitution2: "init-1" o.init
EndChar
StartChar: p
Encoding: 112 112 20
Width: 770
Flags: W
HStem: -66 60<223.154 428.051> 179 60<108 345> 330 60<179.903 312.102> 385 60<612 664.827> 400 21G<471.739 508.5> 400 21G<471.739 508.5> 530 60<579.655 663.571> 700 20G<457 533> 700 20G<457 533> 724 10<512.135 552>
VStem: 65 66<81.8392 273.405> 108 23<179 239> 345 66<239 272> 361 66<484.743 642.814> 534 66<95.8712 288.477> 669 66<451.234 523.957>
AnchorPoint: "below" 285 -116 basechar 0
AnchorPoint: "above" 195 446 basechar 0
LayerCount: 2
Back
SplineSet
496.91660813 408.096437486 m 1
 439.044547557 439.832728768 l 1
 441.177861098 443.722888754 443.304548448 447.672934069 445.458772218 451.674815856 c 0
 462.397740468 483.142182192 481.772391586 520.283176882 522.150207973 548.082285819 c 0
 554.348518209 570.250010918 597.221282374 584.58492309 657.064058345 589.870922002 c 2
 657.128367765 589.876602546 l 1
 662.935941655 524.129077998 l 1
 610.446297431 519.492591843 579.780914417 507.636596471 559.512809089 493.682516772 c 0
 534.307606022 476.32936971 521.023818338 452.801081443 503.61458977 420.460116817 c 0
 501.460383218 416.458267015 499.252054138 412.35519197 496.91660813 408.096437486 c 1
443 720 m 1x9007
 505 720 l 1
 505 677.0859375 600 637.040039062 600 555 c 0
 600 468.754882812 526 417 522 371 c 1
 475.48828125 422.181640625 l 1
 512 456 534 485 534 549 c 0
 534 620.65625 443 646.099609375 443 720 c 1x9007
664 506 m 3x8a07
 732.22265625 506 775 467.01171875 775 408 c 3
 775 340.640625 727.786132812 301 662 301 c 2
 652 301 l 1
 652 361 l 1
 694.486328125 361 709 375.774414062 709 404 c 3
 709 435.24609375 684.58984375 446 657 446 c 3
 595.893554688 446 532.131835938 392.221679688 497.100585938 359.885742188 c 1
 474.491210938 399.044921875 l 1
 522.33203125 443.206054688 590.592773438 506 664 506 c 3x8a07
480 385 m 17
 532 433 622 476 674 476 c 3
 724 476 752 449 752 413 c 3
 752 359 720 331 662 331 c 1033
804 74 m 1
 883 -2 934.849270936 -32 988 -32 c 3
 1039.34500931 -32 1056 -3 1056 32 c 3
 1056 65.0126953125 1032 90 1002 90 c 3
 979 90 958 76 945 60 c 1033
703 117 m 1
 759 147 l 1
 835 98 886 64 886 -27 c 0
 886 -111 844 -175 732 -248 c 9
 722 -248 l 1
 722 -173 l 1
 789 -131 820 -86 820 -27 c 0xfa98
 820 39 785 70 703 117 c 1
526 165 m 1
 496 195 l 1
 526 225 l 1
 669 225 696 462 866 462 c 0
 951 462 996 388 996 322 c 0xf998
 996 230 943 167 892 122 c 0
 838 74 805 34 805 -39 c 0
 805 -87 831 -120 887 -148 c 1
 842 -192 l 1
 788 -159 739 -111 739 -35 c 0
 739 64 782 108 846 165 c 0
 899 212 930 260 930 317 c 0xfc98
 930 368 905 402 859 402 c 0
 742 402 726 165 526 165 c 1
823 117 m 1
 879 147 l 1
 955 98 1006 64 1006 -27 c 0
 1006 -111 964 -175 852 -248 c 9
 842 -248 l 1
 842 -173 l 1
 909 -131 940 -86 940 -27 c 0xfa98
 940 39 905 70 823 117 c 1
446 179 m 3
 360 179 305 203 283 274 c 1
 256 210.799804688 193 179 110 179 c 0
 80 209 l 1
 110 239 l 0
 174 239 246 285 257 385 c 1
 332 385 l 1
 332 335 l 1
 332 256 376 239 446 239 c 3
 501 239 546 276 546 330 c 0
 546 371 532.4921875 395 488 448 c 0
 443.213867188 501.349609375 426 540 426 603 c 3
 426 687 475 744 562 789 c 1
 595 789 l 1
 595 734 l 1
 544 707 482 676 482 608 c 3
 482 562 501.103515625 527.090820312 538 485 c 0
 583.583007812 433 612 390 612 333 c 0xff24
 612 237 539 179 446 179 c 3
527.310355875 691.623416132 m 0
 527.310355875 648.09979237 554.280742828 620.376119575 600.107188206 587.901810589 c 1
 561.950825685 534.057078629 l 1
 514.123685969 567.949153395 461.310355875 613.985609321 461.310355875 691.623416132 c 0
 461.310355875 704.554273864 462.772148619 717.946985824 465.71375596 731.85278732 c 1
 530.28624404 718.14721268 l 1
 528.197253819 708.27197103 527.310355875 699.480915697 527.310355875 691.623416132 c 0
EndSplineSet
Fore
SplineSet
618 590 m 7xca43
 686.22265625 590 735 550.01171875 735 489 c 7
 735 421.640625 687.786132812 385 622 385 c 6
 612 385 l 5
 612 445 l 5xd243
 654.486328125 445 669 459.774414062 669 488 c 7
 669 519.24609375 644.58984375 530 617 530 c 7
 576 530 521 476 496 400 c 5
 478 465 l 5
 525 536 544.592773438 590 618 590 c 7xca43
516 488 m 4
 495.822272276 462.319255623 500.60546875 430.048828125 490 400 c 5
 448 446 l 5
 463 485 500 536 524 555 c 5
 493 581 442 646 472 720 c 5
 533 720 l 5xcb43
 505 682 540 614 578 594 c 5
 578 560 l 5
 561 529 538 516 516 488 c 4
108 179 m 5xc25b
 108 239 l 5
 345 239 l 5
 363 262 l 5
 411 272 l 5
 411 179 l 5
 108 179 l 5xc25b
325 -66 m 7
 164 -66 65 33 65 172 c 7
 65 330 164 390 248 390 c 7
 350 390 397 325 411 272 c 5
 345 239 l 5xe26b
 344 289 308 330 245 330 c 7
 189 330 131 290 131 173 c 4
 131 70 196 -6 328 -6 c 7
 457 -6 534 77 534 195 c 7
 534 362 361 411 361 561 c 7
 361 654.004882812 418 707 463 734 c 5
 552 734 l 5
 552 724 l 5
 467 683 427 638.049986119 427 555 c 7xe267
 427 435 600 381 600 195 c 7
 600 42 497 -66 325 -66 c 7
EndSplineSet
Substitution2: "aslong-1" longconsonant
Substitution2: "fina-1" p.fina
Substitution2: "medi-1" p.medi
Substitution2: "init-1" p.init
EndChar
StartChar: r
Encoding: 114 114 12
Width: 840
Flags: W
HStem: 0 60<656.02 758.465> 115 71<687 727.486> 126 60<692.233 758.553> 173 60<165.438 368.739> 325 21G<302 318 319.927 367> 416 60<418.825 579.089>
VStem: 65 66<263.739 385> 394 66<258.221 325.463> 419 66<-59.2968 68.073> 592 68<-88.698 20.2429> 604 66<261.852 391.477> 761 66<63.2096 123.474>
AnchorPoint: "below" 175 120 basechar 0
AnchorPoint: "above" 105 446 basechar 0
LayerCount: 2
Fore
SplineSet
65 306 m 3x9f10
 65 332 66 347 69 385 c 1
 137 385 l 1
 137 375 l 1
 133 350 131 333 131 311 c 3
 131 259 181 233 279 233 c 3
 356 233 394 265 394 293 c 3
 394 315 377 329 351 329 c 3
 340 329 324 328 312 325 c 1
 302 325 l 1
 302 385 l 1
 324 388 343 390 360 390 c 3
 429 390 460 352 460 296 c 3
 460 220 388 173 277 173 c 3
 140 173 65 216 65 306 c 3x9f10
473 119 m 1
 519 164 l 1
 621 100 660 55 660 -23 c 3
 660 -81 622 -137 582 -172 c 1
 499 -172 l 1
 499 -162 l 1
 540 -133 592 -76 592 -28 c 3x8e50
 592 30 560 70 473 119 c 1
302 385 m 5
 360 445 436 476 507 476 c 7
 618 476 670 410 670 341 c 7
 670 150 485 125 485 3 c 7
 485 -64 545 -90 564 -118 c 5
 519 -162 l 5
 479 -122 419 -80 419 0 c 7
 419 166 604 193 604 336 c 7x8eb0
 604 378 580 416 500 416 c 7
 455 416 405 397 367 349 c 5
 337 344 l 5
 302 385 l 5
722 60 m 3
 747.01953125 60 761 75 761 94 c 3
 761 115 744 126 728 126 c 3xae10
 717 126 708 122 697 115 c 1
 687 115 l 1xce10
 686 180 l 1
 696 184 711 186 733 186 c 3xae10
 788 186 827 150 827 93 c 3
 827 31 789 0 729 0 c 3
 673 0 627 16 536 92 c 1
 562 136 l 1
 642 74 671.83984375 60 722 60 c 3
EndSplineSet
Substitution2: "aslong-1" longconsonant
Substitution2: "fina-1" r.fina
Substitution2: "medi-1" r.medi
Substitution2: "init-1" r.init
EndChar
StartChar: s
Encoding: 115 115 19
Width: 1120
Flags: W
HStem: -66 60<773.397 930.135> 173 60<139.454 221.818> 209 72<374 440> 416 60<396.497 542> 416 21G<424 509.5> 714 20G<68 138 616.286 692 888.5 984> 714 20G<68 138 616.286 692 888.5 984>
VStem: 65 66<240.922 385> 374 66<209 281> 540 66<227.399 385.46> 662 66<38.2344 237.23> 698 66<207.924 456.713> 844 66<468.129 652.894> 990 66<56.8878 262.391>
AnchorPoint: "below" 180 120 basechar 0
AnchorPoint: "above" 120 446 basechar 0
LayerCount: 2
Back
SplineSet
351 173 m 1
 351 183 l 1
 386 228 400 262 400 296 c 3
 400 348 373 386 309 386 c 3xe780
 192 386 170 179 38 179 c 1
 28 179 l 1
 28 239 l 1
 124 239 148 446 316 446 c 3
 431 446 466 360 466 298 c 3
 466 251 453 211 431 173 c 1
 351 173 l 1
801 724 m 1xf1c580
 777.793945312 673 769.793945312 636 769.793945312 590 c 3
 769.793945312 413.993164062 913 329.00390625 913 163 c 3
 913 36.8447265625 829 -66 697 -66 c 3
 564 -66 472 18 472 179 c 2
 472 385 l 1
 538 385 l 1
 538 172 l 2
 538 50 603 -6 690 -6 c 3
 785 -6 847 62.943359375 847 163 c 3
 847 320.004882812 703.793945312 394 703.793945312 592 c 3xf1c680
 703.793945312 645 711.651367188 683 732.793945312 734 c 1
 801 734 l 1
 801 724 l 1xf1c580
EndSplineSet
Fore
SplineSet
764 358 m 3x85dc
 764 245.888671875 728 183 728 109 c 3
 728 41 771 -6 852 -6 c 7
 945 -6 990 59 990 152 c 7
 990 326 844 404 844 548 c 7
 844 636 866 678 911 734 c 5
 984 734 l 5
 984 724 l 5
 933 670 910 625 910 553 c 7
 910 427 1056 341 1056 155 c 7
 1056 32 986 -66 849 -66 c 7
 731 -66 662 9 662 106 c 3x85ec
 662 193 698 254.977539062 698 355 c 3
 698 446.021975369 664 499 588 530 c 1
 654 565 l 1
 730 516 764 455.020616366 764 358 c 3x85dc
374 209 m 1xa1cc
 374 281 l 1
 440 281 l 1
 440 209 l 1
 374 209 l 1xa1cc
178 173 m 3xd1cc
 105 173 65 221 65 286 c 3
 65 319 66 347 70 385 c 1
 138 385 l 1
 138 375 l 1
 132 340 131 320 131 287 c 3
 131 255 147 233 181 233 c 3
 270 233 285 476 456 476 c 3
 571 476 606 380 606 318 c 3
 606 271 593 211 571 173 c 1
 491 173 l 1
 491 183 l 1
 526 228 540 282 540 316 c 3
 540 368 513 416 449 416 c 3
 332 416 338 173 178 173 c 3xd1cc
495 416 m 1
 464.0078125 447.7421875 446 425 424 416 c 1
 473 571 590 596 682 596 c 1
 692 596 l 1
 692 536 l 1
 607 536 524 530 495 416 c 1
EndSplineSet
Substitution2: "aslong-1" longconsonant
Substitution2: "fina-1" s.fina
Substitution2: "medi-1" s.medi
Substitution2: "init-1" s.init
EndChar
StartChar: t
Encoding: 116 116 27
Width: 1040
Flags: W
HStem: 178 60<463.857 645.31 709.897 857.411> 353 248G<447.5 520 540 611> 365 20G<926.5 1005> 365 20G<926.5 1005> 416 60<190.082 306.163 598.681 681.94> 601 21G<447.5 520> 674 60<508.95 573.736>
VStem: 139 66<-59.2968 68.4182> 312 68<-88.698 42.1561> 324 99<268 389> 357 33<239 418> 441 66<606.495 672.476> 451 69<601 644.347> 530 66<337.678 412.326> 578 66<575.909 671.098> 692 66<283.619 406.739> 939 66<326.642 385>
AnchorPoint: "below" 560 120 basechar 0
AnchorPoint: "above" 250 506 basechar 0
LayerCount: 2
Back
SplineSet
0 179 m 5
 -30 209 l 5
 0 239 l 5
 143 239 170 476 340 476 c 4
 425 476 470 402 470 336 c 4xf998
 470 244 416.834823796 181.186510041 366 136 c 4
 298 75.5555555556 275 52 275 -21 c 4
 275 -69 305 -106 361 -134 c 5
 316 -178 l 5
 262 -145 209 -93 209 -17 c 4
 209 70 253 116.02 320 179 c 4
 370 226 404 274 404 331 c 4xfc98
 404 382 379 416 333 416 c 4
 216 416 200 179 0 179 c 5
441 651 m 3xf9b8
 441 701 479 734 534 734 c 3
 597 734 644 690 644 634 c 3xf9b8
 644 547 572 506 519 473 c 0
 462 437 423 406 423 349 c 0
 423 266 475 238 558 238 c 0
 637 238 692 277 692 355 c 0
 692 396 672 416 636 416 c 3
 609 416 596 399 596 381 c 3
 596 368 601 357 611 342 c 1
 611 332 l 1
 545 332 l 1
 535 346 530 360 530 385 c 3xfcd8
 530 440 576 476 631 476 c 3
 702 476 758 431 758 355 c 0
 758 245 672 178 558 178 c 0
 441 178 357 236 357 349 c 0
 357 438 429 490 482 523 c 0
 539 559 578 581 578 634 c 3
 578 662 557 674 536 674 c 3
 520 674 507 662 507 648 c 3
 507 634 511 624 524 614 c 1
 524 604 l 1
 455 604 l 1
 445 617 441 630 441 651 c 3xf9b8
558 178 m 1
 558 238 l 1
 763 238 l 2
 869 238 914 293 939 385 c 1
 1005 385 l 1
 1005 375 l 1
 985 252 920.900390625 178 759 178 c 2
 558 178 l 1
558 203 m 25
 770 203 l 17
 914 203 970 274 984 408 c 1033
510 597 m 25
 488 606 474 627 474 651 c 3
 474 683 502 704 534 704 c 27
 576 704 611 669 611 627 c 3
 611 487 390 489 390 349 c 27
 390 254 458 203 553 203 c 3
 648 203 725 260 725 355 c 3
 725 418 684 446 631 446 c 3
 587 446 563 418 563 385 c 1025
260 146 m 1
 260 78 350 24 350 -40 c 3
 350 -96 316 -148 222 -218 c 1025
0 209 m 17
 151 209 134.629882812 446 270 446 c 3
 332 446 377 393 377 331 c 3
 377 186 166 147 166 -5 c 27
 166 -76 192 -110 240 -148 c 1025
125 538 m 25
 125 610 l 25
 191 610 l 25
 191 538 l 25
 125 538 l 25
305 538 m 25
 305 610 l 25
 371 610 l 25
 371 538 l 25
 305 538 l 25
214 672 m 25
 214 744 l 25
 280 744 l 25
 280 672 l 25
 214 672 l 25
102 289 m 3
 102 390.044921875 178.887695312 476 269 476 c 3
 338 476 375.376953125 426 407.138671875 343.950195312 c 0
 430.732421875 283 457.919921875 239 520 239 c 1
 550 209 l 1
 520 179 l 1
 422 179 378.9453125 236 344.861328125 324.049804688 c 0
 319.33203125 390 300.973632812 416 264 416 c 3
 218.9375 416 168 370.006835938 168 300 c 3
 168 253.983398438 194.98046875 233 231 233 c 3
 278.018554688 233 310.9375 283 341 359 c 1
 390 331 l 1
 348.106445312 224 297 173 228 173 c 3
 146 173 102 231.443359375 102 289 c 3
0 179 m 1
 -30 209 l 1
 0 239 l 1
 44 239 82 258 105.163085938 319.109375 c 1
 120 304 141.708007812 294.177734375 159.836914062 285.890625 c 1
 118 212 72 179 0 179 c 1
EndSplineSet
Fore
SplineSet
324 340 m 3x8b4180
 324 389 296 416 250 416 c 3
 184 416 125 336 60 236 c 1
 50 236 l 1
 50 333 l 1
 105 409 166 476 257 476 c 3
 338 476 390 418 390 345 c 3x8b2180
 390 154 205 125 205 3 c 3
 205 -64 265 -90 284 -118 c 1
 239 -162 l 1
 199 -122 139 -80 139 0 c 3
 139 166 324 197 324 340 c 3x8b4180
193 119 m 1
 239 164 l 1
 341 100 380 55 380 -23 c 3
 380 -81 342 -137 302 -172 c 1
 219 -172 l 1
 219 -162 l 1
 260 -133 312 -76 312 -28 c 3x838180
 312 30 280 70 193 119 c 1
441 648 m 0xc31180
 441 698 479 734 539 734 c 0
 604 734 644 690 644 634 c 0xc31380
 644 547 570.220710525 508.699283093 519 473 c 0
 453 427 423 395 423 338 c 0
 423 268 475 238 558 238 c 0
 637 238 692 277 692 355 c 0
 692 396 672 416 636 416 c 0
 609 416 596 399 596 381 c 0
 596 368 601 357 611 342 c 1
 611 332 l 1
 545 332 l 1
 535 346 530 360 530 385 c 0x9b4580
 530 440 576 476 631 476 c 0
 702 476 758 431 758 355 c 0
 758 302.711914062 741.067382812 265.271484375 709.897460938 238 c 1
 763 238 l 6
 869 238 914 293 939 385 c 5
 1005 385 l 5
 1005 375 l 5
 985 252 920.900390625 178 759 178 c 6
 558 178 l 2
 441 178 357 239 357 343 c 0
 357 432 421 477.12539185 482 518 c 0
 538.005743381 555.528078932 578 580 578 633 c 0
 578 661 561 674 540 674 c 0
 518 674 507 659 507 645 c 0xab3380
 507 631 511 621 520 611 c 1
 520 601 l 1
 451 601 l 1xc30980
 444 612 441 632 441 648 c 0xc31180
EndSplineSet
Substitution2: "aslong-1" longconsonant
Substitution2: "fina-1" t.fina
Substitution2: "medi-1" t.medi
Substitution2: "init-1" t.init
EndChar
StartChar: v
Encoding: 118 118 2
Width: 1070
Flags: W
HStem: -178 60<880.673 1010> 173 60<140.38 239.905 432.622 569.068> 313 21G<889 972> 416 60<168.928 269.962> 470 60<767.797 916.359> 530 72<180 246> 714 20G<285.969 336 745 811>
VStem: 60 66<246.356 372.143> 180 66<530 602> 591 66<255.458 394.028> 745 66<-42.0213 734> 929 66<341.759 455.218>
AnchorPoint: "below" 190 120 basechar 0
AnchorPoint: "above" 213 655 basechar 0
LayerCount: 2
Fore
SplineSet
964 -118 m 6xe3f0
 1030 -118 l 5
 1030 -128 l 5
 1010 -178 l 5
 957 -178 l 6
 804.141601562 -178 745 -78.1494140625 745 71 c 6
 745 734 l 1
 811 734 l 1
 811 76 l 6
 811 -42.6005859375 851.64453125 -118 964 -118 c 6xe3f0
505 173 m 3
 405 173 346.194299718 234 303.861328125 334.049804688 c 0
 280.482712657 389.302857411 260.973632812 416 224 416 c 3
 178.9375 416 126 370.006835938 126 300 c 3
 126 253.983398438 154.98046875 233 191 233 c 3
 238.018554688 233 270.9375 283 301 359 c 1
 350 331 l 1
 308.106445312 224 261 173 184 173 c 3
 107 173 60 220.443359375 60 293 c 3
 60 394.044921875 135.887695312 476 224 476 c 3xf3f0
 293 476 326.878501006 434.210012406 362.138671875 353.950195312 c 0
 402.095396714 263 443 233 504 233 c 3
 558 233 591 264 591 308 c 3
 591 346.60546875 582.198242188 372.975585938 566.553710938 403 c 1
 566.553710938 413 l 1
 633 480 741 530 836 530 c 3
 951 530 995 471 995 410 c 0
 995 370 981 336 963 313 c 1
 889 313 l 1
 889 323 l 1
 922 351 929 382 929 405 c 0
 929 449 911 470 829 470 c 3xebf0
 758.9375 470 684 440 643.120117188 390.504882812 c 1
 651.568359375 363.859375 657 338 657 302 c 3
 657 239.930664062 609 173 505 173 c 3
180 530 m 1xe7f0
 180 602 l 1
 246 602 l 1
 246 530 l 1
 180 530 l 1xe7f0
EndSplineSet
Substitution2: "aslong-1" longconsonant
Substitution2: "fina-1" v.fina
Substitution2: "medi-1" v.medi
Substitution2: "init-1" v.init
EndChar
StartChar: w
Encoding: 119 119 26
Width: 690
Flags: W
HStem: -98 61<219.777 299.909> 60 60<220.091 300.223> 173 60<154.931 370.617> 365 20G<67.5 137 446.5 528> 365 20G<67.5 137 446.5 528>
VStem: 65 66<256.94 385> 151 61<-29.2226 51.5753> 308 61<-29.0753 51.7226> 462 66<328.269 385>
LayerCount: 2
Fore
SplineSet
212 11 m 0xe780
 212 -16 233 -37 260 -37 c 0
 287 -37 308 -15 308 12 c 0
 308 39 287 60 260 60 c 0
 233 60 212 38 212 11 c 0xe780
151 11 m 0
 151 71 200 120 260 120 c 0
 320 120 369 71 369 11 c 0
 369 -49 320 -98 260 -98 c 0
 200 -98 151 -49 151 11 c 0
65 306 m 3
 65 332 66 347 69 385 c 1
 137 385 l 1
 137 375 l 1
 133 350 131 333 131 311 c 3
 131 259 163.9921875 233 252 233 c 3
 370 233 431 270 462 385 c 1
 528 385 l 1xf780
 528 375 l 1
 492 231 408 173 250 173 c 3
 123 173 65 216 65 306 c 3
EndSplineSet
Substitution2: "aslong-1" longconsonant
Substitution2: "normalized-1" u
EndChar
StartChar: y
Encoding: 121 121 4
Width: 690
Flags: W
HStem: -234 58<420.203 469> 60 60<197.332 282.595> 173 60<154.931 370.617> 365 20G<67.5 137 446.5 528> 365 20G<67.5 137 446.5 528>
VStem: 65 66<256.94 385> 125 66<-40.6374 54.4955> 462 66<328.269 385>
LayerCount: 2
Fore
SplineSet
317 88 m 1xe3
 316 9 l 1
 306 9 l 1
 282 45 259 60 234 60 c 3
 207.965820312 60 191 43 191 11 c 3
 191 -46 246 -83 469 -176 c 1
 469 -234 l 1
 459 -234 l 1
 172 -120 125 -60.0068359375 125 14 c 3
 125 80 171 120 235 120 c 3
 268.112304688 120 298 109 317 88 c 1xe3
65 306 m 3xf5
 65 332 66 347 69 385 c 1
 137 385 l 1
 137 375 l 1
 133 350 131 333 131 311 c 3
 131 259 163.9921875 233 252 233 c 3
 370 233 431 270 462 385 c 1
 528 385 l 1
 528 375 l 1
 492 231 408 173 250 173 c 3
 123 173 65 216 65 306 c 3xf5
EndSplineSet
Substitution2: "aslong-1" longconsonant
Substitution2: "normalized-1" i
EndChar
StartChar: z
Encoding: 122 122 30
Width: 1150
Flags: HW
HStem: -66 60<756.515 928.135> 48 72<346 412> 179 60<156.121 327.707 445.008 588.168> 341 69G<298.203 338.303 391.565 417> 365 20G<67 136 315 391 622 688> 365 20G<67 136 315 413 622 688> 410 21G<298.203 338.303> 724 10<355.44 399>
VStem: 65 66<263.343 385> 208 66<483.228 641.458> 346 66<48 120 305.793 340.437> 433 71<441.763 508.839> 622 66<67.47 172 345 385> 842 66<468.129 652.894> 988 66<56.8878 262.391>
AnchorPoint: "below" 100 120 basechar 0
AnchorPoint: "above" 103 446 basechar 0
LayerCount: 2
Back
SplineSet
284 173 m 0
 209 173 165 221 165 286 c 0
 165 319 166 347 170 385 c 1
 238 385 l 1
 238 375 l 1
 232 340 231 321 231 291 c 0
 231 257 251 233 288 233 c 1024
EndSplineSet
Fore
SplineSet
254 179 m 7xe9fe
 153 179 65 210.336914062 65 308 c 0
 65 335 66 362 68 385 c 1
 136 385 l 1
 136 375 l 1
 133 355 131 341 131 321 c 0
 131 253.715820312 178 239 254 239 c 7
 339 239 378 267.991210938 378 307 c 7
 378 383.026367188 238 434 238 558 c 7
 238 643.03125 290 706 343 734 c 5
 429 734 l 5
 429 724 l 5
 351 694 304 632.041015625 304 565 c 7
 304 442 443 424 443 310 c 7
 443 232.987304688 380 179 254 179 c 7xe9fe
534 493 m 7
 534 436 452 379 442 320 c 5
 395 366 l 5
 412 420 463 454 463 486 c 7
 463 500 451 509 439 509 c 7
 429.5625 509 416.163085938 504 404 488 c 4
 384.235351562 462 373.60546875 440.048828125 363 410 c 5xf1fe
 310.48828125 440.181640625 l 5
 325 488 360 535 397 565 c 5
 355 595 330 646 360 720 c 5
 421 720 l 5
 386 682 412.706054688 618.127929688 460 592 c 5
 460 567 l 5
 492 567 534 544 534 493 c 7
880 -6 m 7
 973 -6 1018 59 1018 152 c 7
 1018 326 872 404 872 548 c 7
 872 636 894 678 939 734 c 5
 1012 734 l 5
 1012 724 l 5
 961 670 938 625 938 553 c 7
 938 427 1084 341 1084 155 c 7
 1084 32 1014 -66 877 -66 c 7
 734 -66 652 28 652 169 c 6
 652 385 l 5
 718 385 l 5xe9fe
 718 172 l 6
 718 50 776 -6 880 -6 c 7
376 48 m 5
 376 120 l 5
 442 120 l 5
 442 48 l 5
 376 48 l 5
544 239 m 4
 616 239 655 276 656 360 c 5
 711 345 l 5
 698 249 660 179 544 179 c 4
 459 179 416 219 383 277 c 5
 434 315 l 5
 452 272 487 239 544 239 c 4
EndSplineSet
Substitution2: "aslong-1" longconsonant
Substitution2: "fina-1" z.fina
Substitution2: "medi-1" z.medi
Substitution2: "init-1" z.init
EndChar
StartChar: aacute
Encoding: 225 225 70
Width: 1640
Flags: W
HStem: 179 60<140.654 200 357 462 518 867.201 1043.05 1154.5 1312.94 1520> 365 20G<68 138 416 523.013 613 660 941.5 1022 1251 1311> 365 20G<68 138 416 523.013 613 660 941.5 1022> 407 159G<575 668> 407 159G<596.5 668> 416 60<369.541 552.617 1352.81 1483.12> 542 60<342.181 463.559>
VStem: 65 66<250.297 385> 253 66<259.428 384.037> 270 66<445.433 534.438> 947 75<318.721 385> 1303 68<-172 -73.4557> 1520 66<218.275 380.349>
AnchorPoint: "below" 350 120 basechar 0
LayerCount: 2
Fore
SplineSet
1093 179 m 5xc538
 1027 179 984 203.338867188 973 274 c 5
 946 210.799804688 873 179 790 179 c 4
 760 209 l 5
 790 239 l 4
 854 239 936 285 947 385 c 5
 1022 385 l 5
 1022 343 l 5
 1022 274 1047 239 1089 239 c 5
 1227 239 1230 476 1416 476 c 4
 1531 476 1586 393 1586 321 c 7
 1586 242 1576.51953125 217.9765625 1498 103 c 4
 1384.63574219 -63 1371 -109 1371 -172 c 5
 1303 -172 l 5
 1303 -162 l 5
 1303 -90 1330.83789062 -34 1448 136 c 4
 1506.57910156 220.997070312 1520 265 1520 316 c 7
 1520 372 1484 416 1409 416 c 4
 1290 416 1277 179 1093 179 c 5xc538
1297 295 m 4
 1297 250 1354 239 1398 239 c 6
 1520 239 l 5
 1550 209 l 5
 1520 179 l 5
 1393 179 l 6
 1314 179 1238 198 1238 280 c 4
 1238 310 1246 339 1256 366 c 5
 1311 350 l 5
 1300 330 1297 316 1297 295 c 4
386 542 m 0x8778
 353 542 336 521 336 499 c 0
 336 471 356 443 381 426 c 1
 381 416 l 1
 305 416 l 1
 287 436 270 462 270 502 c 0
 270 562 306 602 381 602 c 0
 500 602 615 476 660 430 c 1
 625 386 l 1
 568 443 472 542 386 542 c 0x8778
442 476 m 3
 516 476 576 450 632 408 c 1
 593 376 l 1
 557 401 506 416 441 416 c 3
 366 416 319 390 319 321 c 0
 319 270 355 236 409 212 c 1
 357 180 l 1
 297 206 253 244 253 320 c 3x85b8
 253 440 350 476 442 476 c 3
660 385 m 1xc138
 599 334 552 262 518 191 c 1
 462 223 l 1
 497 295 542 360 613 419 c 1
 660 430 l 1
 660 385 l 1xc138
625 566 m 1x9138
 416 715 l 1
 416 734 l 1
 502 734 l 1
 668 576 l 1
 668 566 l 1
 625 566 l 1x9138
200 239 m 1
 790 239 l 1
 820 209 l 1
 790 179 l 1
 200 179 l 1
 92 179 65 231 65 296 c 0
 65 325 66 347 70 385 c 1
 138 385 l 1xc138
 138 375 l 1
 132 340 131 325 131 301 c 0
 131 265 143 239 200 239 c 1
EndSplineSet
MultipleSubs2: "breaklong-1" a longvowel
Substitution2: "aslong-1" longvowel
EndChar
StartChar: eacute
Encoding: 233 233 72
Width: 1650
Flags: W
HStem: 179 60<237.76 338.679 472.938 877.201 1053.05 1164.5 1322.94 1530> 365 20G<168 238 417 474 951.5 1032 1261 1321> 365 20G<168 238 951.5 1032> 416 60<513.101 643.116 1362.81 1493.12> 446 21G<219.812 290 366.06 430> 446 21G<219.812 290 366.06 430> 559 60<12 114.632>
VStem: 165 66<243.498 385> 463 68<-172 -73.4557> 680 66<240.387 380.349> 957 75<318.721 385> 1313 68<-172 -73.4557> 1530 66<218.275 380.349>
LayerCount: 2
Fore
SplineSet
1103 179 m 5xd3f8
 1037 179 994 203.338867188 983 274 c 5
 956 210.799804688 883 179 800 179 c 4
 770 209 l 5
 800 239 l 4
 864 239 946 285 957 385 c 5
 1032 385 l 5
 1032 343 l 5
 1032 274 1057 239 1099 239 c 5
 1237 239 1240 476 1426 476 c 4
 1541 476 1596 393 1596 321 c 7
 1596 242 1586.51953125 217.9765625 1508 103 c 4
 1394.63574219 -63 1381 -109 1381 -172 c 5
 1313 -172 l 5
 1313 -162 l 5
 1313 -90 1340.83789062 -34 1458 136 c 4
 1516.57910156 220.997070312 1530 265 1530 316 c 7
 1530 372 1494 416 1419 416 c 4
 1300 416 1287 179 1103 179 c 5xd3f8
1307 295 m 4
 1307 250 1364 239 1408 239 c 6
 1530 239 l 5
 1560 209 l 5
 1530 179 l 5
 1403 179 l 6
 1324 179 1248 198 1248 280 c 4
 1248 310 1256 339 1266 366 c 5
 1321 350 l 5
 1310 330 1307 316 1307 295 c 4
457 295 m 0
 457 250 514 239 558 239 c 2
 800 239 l 1
 830 209 l 1
 800 179 l 1
 553 179 l 2
 474 179 398 198 398 280 c 0
 398 310 412 337 422 364 c 1
 474 346 l 1
 463 326 457 316 457 295 c 0
387 446 m 1x8bf8
 231 595 l 1
 231 614 l 1
 317 614 l 1
 430 446 l 1
 387 446 l 1x8bf8
247 446 m 1
 160 510 l 2
 103 552 58 559 12 559 c 1
 12 619 l 1
 22 619 l 1
 112 619 162 581 213 531 c 2
 290 456 l 1
 290 446 l 1
 247 446 l 1
284 173 m 1
 206 173 165 221 165 286 c 0
 165 319 166 347 170 385 c 1
 238 385 l 1
 238 375 l 1
 232 340 231 321 231 291 c 0
 231 257 251 233 288 233 c 1
 384 233 408 476 576 476 c 0
 691 476 746 393 746 321 c 3
 746 242 736.51953125 217.9765625 658 103 c 0
 544.635742188 -63 531 -109 531 -172 c 1
 463 -172 l 1
 463 -162 l 1
 463 -90 490.837890625 -34 608 136 c 0
 666.579101562 220.997070312 680 265 680 316 c 3
 680 372 644 416 569 416 c 0xd3f8
 452 416 446 173 284 173 c 1
EndSplineSet
MultipleSubs2: "breaklong-1" e longvowel
Substitution2: "aslong-1" longvowel
EndChar
StartChar: iacute
Encoding: 237 237 74
Width: 1070
Flags: W
HStem: -234 58<300.203 349> 60 60<77.3318 162.595> 179 60<144.281 219 220 297.201 473.046 584.504 742.938 950> 365 20G<68 138 371.5 452> 365 20G<68 138 371.5 452 681 741> 416 60<782.812 913.116>
VStem: 5 66<-40.6374 54.4955> 65 66<253.215 385> 377 75<318.721 385> 733 68<-172 -73.4557> 950 66<218.275 380.349>
LayerCount: 2
Fore
SplineSet
523 179 m 5xf4e0
 457 179 414 203.338867188 403 274 c 5
 376 210.799804688 303 179 220 179 c 4
 190 209 l 5
 220 239 l 4
 284 239 366 285 377 385 c 5
 452 385 l 5
 452 343 l 5
 452 274 477 239 519 239 c 5
 657 239 660 476 846 476 c 4
 961 476 1016 393 1016 321 c 7
 1016 242 1006.51953125 217.9765625 928 103 c 4
 814.635742188 -63 801 -109 801 -172 c 5
 733 -172 l 5
 733 -162 l 5
 733 -90 760.837890625 -34 878 136 c 4
 936.579101562 220.997070312 950 265 950 316 c 7
 950 372 914 416 839 416 c 4
 720 416 707 179 523 179 c 5xf4e0
727 295 m 4
 727 250 784 239 828 239 c 6
 950 239 l 5
 980 209 l 5
 950 179 l 5
 823 179 l 6
 744 179 668 198 668 280 c 4
 668 310 676 339 686 366 c 5
 741 350 l 5
 730 330 727 316 727 295 c 4
197 88 m 1
 196 9 l 1
 186 9 l 1
 162 45 139 60 114 60 c 3
 87.9658203125 60 71 43 71 11 c 3
 71 -46 126 -83 349 -176 c 1
 349 -234 l 1
 339 -234 l 1
 52 -120 5 -60.0068359375 5 14 c 3xe6e0
 5 80 51 120 115 120 c 3
 148.112304688 120 178 109 197 88 c 1
220 179 m 25
 204 179 l 1
 106 179 65 225 65 296 c 0
 65 329 66 347 70 385 c 1
 138 385 l 1
 138 375 l 1
 132 340 131 323 131 301 c 0xf5e0
 131 258 161 239 208 239 c 1
 219 239 l 25
 250 209 l 25
 220 179 l 25
EndSplineSet
MultipleSubs2: "breaklong-1" i longvowel
Substitution2: "aslong-1" longvowel
EndChar
StartChar: oacute
Encoding: 243 243 76
Width: 1550
Flags: W
HStem: 179 60<137.76 238.679 372.938 777.201 953.046 1064.5 1222.94 1430> 365 20G<68 138 317 374 851.5 932 1161 1221> 365 20G<68 138 851.5 932> 416 60<413.101 543.116 1262.81 1393.12> 686 21G<240.756 263> 686 21G<240.756 263> 740 60<277.972 359.881>
VStem: 65 66<243.498 385> 366 66<-172 -69.657 621.131 734.5> 580 66<240.387 380.349> 857 75<318.721 385> 1213 68<-172 -73.4557> 1430 66<218.275 380.349>
LayerCount: 2
Fore
SplineSet
1003 179 m 1xd3f8
 937 179 894 203.338867188 883 274 c 1
 856 210.799804688 783 179 700 179 c 0
 670 209 l 1
 700 239 l 0
 764 239 846 285 857 385 c 1
 932 385 l 1
 932 343 l 1
 932 274 957 239 999 239 c 1
 1137 239 1140 476 1326 476 c 0
 1441 476 1496 393 1496 321 c 3
 1496 242 1486.51953125 217.9765625 1408 103 c 0
 1294.63574219 -63 1281 -109 1281 -172 c 1
 1213 -172 l 1
 1213 -162 l 1
 1213 -90 1240.83789062 -34 1358 136 c 0
 1416.57910156 220.997070312 1430 265 1430 316 c 3
 1430 372 1394 416 1319 416 c 0
 1200 416 1187 179 1003 179 c 1xd3f8
1207 295 m 0
 1207 250 1264 239 1308 239 c 2
 1430 239 l 1
 1460 209 l 1
 1430 179 l 1
 1303 179 l 2
 1224 179 1148 198 1148 280 c 0
 1148 310 1156 339 1166 366 c 1
 1221 350 l 1
 1210 330 1207 316 1207 295 c 0
240 768 m 1
 261 787 296 800 327 800 c 3
 387 800 432 764 432 696 c 3
 432 606 352 530 198 416 c 1
 188 416 l 1
 188 471 l 1
 302 558 366 621 366 691 c 3
 366 723 349 740 323 740 c 3
 302 740 275 722 251 686 c 1
 241 686 l 1x9bf8
 240 768 l 1
357 295 m 0
 357 250 414 239 458 239 c 2
 700 239 l 1
 730 209 l 1
 700 179 l 1
 453 179 l 2
 374 179 298 198 298 280 c 0
 298 310 312 337 322 364 c 1
 374 346 l 1
 363 326 357 316 357 295 c 0
184 173 m 1
 106 173 65 221 65 286 c 0
 65 319 66 347 70 385 c 1
 138 385 l 1xd3f8
 138 375 l 1
 132 340 131 321 131 291 c 0
 131 257 151 233 188 233 c 1
 284 233 308 476 476 476 c 0
 591 476 646 393 646 321 c 3
 646 242 636.51953125 217.9765625 558 103 c 0
 444.635742188 -63 431 -109 431 -172 c 1
 363 -172 l 1
 363 -162 l 1
 363 -90 390.837890625 -34 508 136 c 0
 566.579101562 220.997070312 580 265 580 316 c 3
 580 372 544 416 469 416 c 0
 352 416 346 173 184 173 c 1
EndSplineSet
MultipleSubs2: "breaklong-1" o longvowel
Substitution2: "aslong-1" longvowel
EndChar
StartChar: uacute
Encoding: 250 250 78
Width: 1070
Flags: W
HStem: -98 61<99.7774 179.909> 60 60<100.091 180.223> 179 60<144.281 219 220 297.201 473.046 584.504 742.938 950> 365 20G<68 138 371.5 452> 365 20G<68 138 371.5 452 681 741> 416 60<782.812 913.116>
VStem: 31 61<-29.2226 51.5753> 65 66<253.215 385> 188 61<-29.0753 51.7226> 377 75<318.721 385> 733 68<-172 -73.4557> 950 66<218.275 380.349>
LayerCount: 2
Fore
SplineSet
523 179 m 1xf4f0
 457 179 414 203.338867188 403 274 c 1
 376 210.799804688 303 179 220 179 c 0
 190 209 l 1
 220 239 l 0
 284 239 366 285 377 385 c 1
 452 385 l 1
 452 343 l 1
 452 274 477 239 519 239 c 1
 657 239 660 476 846 476 c 0
 961 476 1016 393 1016 321 c 3
 1016 242 1006.51953125 217.9765625 928 103 c 0
 814.635742188 -63 801 -109 801 -172 c 1
 733 -172 l 1
 733 -162 l 1
 733 -90 760.837890625 -34 878 136 c 0
 936.579101562 220.997070312 950 265 950 316 c 3
 950 372 914 416 839 416 c 0
 720 416 707 179 523 179 c 1xf4f0
727 295 m 0
 727 250 784 239 828 239 c 2
 950 239 l 1
 980 209 l 1
 950 179 l 1
 823 179 l 2
 744 179 668 198 668 280 c 0
 668 310 676 339 686 366 c 1
 741 350 l 1
 730 330 727 316 727 295 c 0
92 11 m 0xe6f0
 92 -16 113 -37 140 -37 c 0
 167 -37 188 -15 188 12 c 0
 188 39 167 60 140 60 c 0
 113 60 92 38 92 11 c 0xe6f0
31 11 m 0
 31 71 80 120 140 120 c 0
 200 120 249 71 249 11 c 0
 249 -49 200 -98 140 -98 c 0
 80 -98 31 -49 31 11 c 0
220 179 m 25
 204 179 l 1
 106 179 65 225 65 296 c 0
 65 329 66 347 70 385 c 1
 138 385 l 1
 138 375 l 1
 132 340 131 323 131 301 c 0xf5f0
 131 258 161 239 208 239 c 1
 219 239 l 25
 250 209 l 25
 220 179 l 25
EndSplineSet
MultipleSubs2: "breaklong-1" u longvowel
Substitution2: "aslong-1" longvowel
EndChar
StartChar: cdotaccent
Encoding: 267 267 63
Width: 1090
Flags: W
HStem: 48 72<296 362> 179 60<138.361 242.836 384.09 477.671 579.149 927.452> 365 20G<68 138 282 362 496 562 996.5 1075> 365 20G<68 138 282 362 496 562 996.5 1075> 416 60<627.616 753.89> 476 72<290 356>
VStem: 65 66<243.498 385> 296 66<48 120 476 548> 496 66<256.944 734> 1009 66<326.781 385>
AnchorPoint: "above" 105 446 basechar 0
AnchorPoint: "below" 155 120 basechar 0
LayerCount: 2
Fore
SplineSet
695 476 m 3xcbc0
 804 476 883 371 932 234 c 1
 865 227 l 1
 820 350 756 416 693 416 c 3
 619 416 577 348 555 282 c 1
 505 302 l 1
 542 401 602 476 695 476 c 3xcbc0
431 179 m 3
 377 179 325 209 314 261 c 1
 292 203 244 173 184 173 c 0
 109 173 65 221 65 286 c 0
 65 319 66 347 70 385 c 1
 138 385 l 1
 138 375 l 1
 132 340 131 321 131 291 c 0
 131 257 151 233 188 233 c 0
 238 233 277 290 287 385 c 1
 362 385 l 1
 362 335 l 2
 362 262 399 239 435 239 c 3
 472 239 496 278 496 313 c 2
 496 734 l 1
 562 734 l 1
 562 299 l 2
 562 259 598 239 660 239 c 2
 833 239 l 6
 939 239 984 293 1009 385 c 5
 1075 385 l 5xe3c0
 1075 375 l 5
 1055 252 991 179 829 179 c 6
 657 179 l 2
 586 179 542 195 523 228 c 1
 505 202 479 179 431 179 c 3
296 48 m 1
 296 120 l 1
 362 120 l 1
 362 48 l 1
 296 48 l 1
290 476 m 1xc7c0
 290 548 l 1
 356 548 l 1
 356 476 l 1
 290 476 l 1xc7c0
EndSplineSet
Substitution2: "aslong-1" longconsonant
Substitution2: "init-1" cdotaccent.init
Substitution2: "fina-1" cdotaccent.fina
Substitution2: "medi-1" cdotaccent.medi
EndChar
StartChar: scaron
Encoding: 353 353 33
Width: 1120
Flags: W
HStem: 48 72<301 367 451 517> 173 60<139.454 221.818 756.928 945.891> 209 72<374 440> 416 60<396.497 542> 416 21G<424 509.5> 714 20G<68 138 616.286 692 938.5 1034> 714 20G<68 138 616.286 692 938.5 1034>
VStem: 65 66<240.922 385> 301 66<48 120> 374 66<209 281> 451 66<48 120> 540 66<227.399 385.46> 698 66<236.678 456.704> 904 66<513.284 669.312> 990 66<273.529 416.617>
AnchorPoint: "below" 180 120 basechar 0
AnchorPoint: "above" 120 446 basechar 0
LayerCount: 2
Fore
SplineSet
764 358 m 3xc5fe
 764 310.333007812 760.479492188 271.541015625 755.98828125 237 c 1
 775.859375 234.583984375 807.193359375 233 852 233 c 3
 945 233 990 274 990 337 c 3
 990 431 904 474 904 578 c 3
 904 646 916 678 961 734 c 1
 1034 734 l 1
 1034 724 l 1
 983 670 970 635 970 583 c 3
 970 507 1056 456 1056 340 c 3
 1056 247 1002 173 849 173 c 3
 774.447265625 173 713 178 687 179 c 1
 687 229 l 1
 693 270 698 306 698 355 c 3
 698 446 664 499 588 530 c 1
 654 565 l 1
 730 516 764 455 764 358 c 3xc5fe
451 48 m 1
 451 120 l 1
 517 120 l 1
 517 48 l 1
 451 48 l 1
301 48 m 1
 301 120 l 1
 367 120 l 1
 367 48 l 1
 301 48 l 1
374 209 m 1xa1fe
 374 281 l 1
 440 281 l 1
 440 209 l 1
 374 209 l 1xa1fe
178 173 m 3xd1fe
 105 173 65 221 65 286 c 3
 65 319 66 347 70 385 c 1
 138 385 l 1
 138 375 l 1
 132 340 131 320 131 287 c 3
 131 255 147 233 181 233 c 3
 270 233 285 476 456 476 c 3
 571 476 606 380 606 318 c 3
 606 271 593 211 571 173 c 1
 491 173 l 1
 491 183 l 1
 526 228 540 282 540 316 c 3
 540 368 513 416 449 416 c 3
 332 416 338 173 178 173 c 3xd1fe
495 416 m 1
 464 448 446 425 424 416 c 1
 473 571 590 596 682 596 c 1
 692 596 l 1
 692 536 l 1
 607 536 524 530 495 416 c 1
EndSplineSet
Substitution2: "aslong-1" longconsonant
Substitution2: "fina-1" scaron.fina
Substitution2: "medi-1" scaron.medi
Substitution2: "init-1" scaron.init
EndChar
StartChar: zcaron
Encoding: 382 382 32
Width: 880
Flags: HW
HStem: 48 72<271 337 421 487> 179 60<156.121 327.707 459.725 709.268> 341 69G<298.203 338.303 391.565 417> 365 20G<67 136 315 391> 365 20G<67 136 315 422.93> 410 21G<298.203 338.303> 724 10<355.44 399>
VStem: 65 66<263.343 385> 208 66<483.228 641.458> 271 66<48 120> 421 66<48 120> 433 71<441.763 508.839> 674 66<508.13 669.312> 750 66<278.466 422.074>
AnchorPoint: "below" 100 120 basechar 0
AnchorPoint: "above" 103 446 basechar 0
LayerCount: 2
Fore
SplineSet
254 179 m 3xd38c
 153 179 65 210.336914062 65 308 c 0
 65 335 66 362 68 385 c 1
 136 385 l 1
 136 375 l 1
 133 355 131 341 131 321 c 0
 131 253.715820312 178 239 254 239 c 3
 339 239 378 267.991210938 378 307 c 3
 378 383.026367188 238 434 238 558 c 3
 238 643.03125 290 706 343 734 c 1
 429 734 l 1
 429 724 l 1
 351 694 304 632.041015625 304 565 c 3
 304 442 443 424 443 310 c 3
 443 232.987304688 380 179 254 179 c 3xd38c
534 493 m 3xe31c
 534 436 452 379 442 320 c 1
 395 366 l 1
 412 420 463 454 463 486 c 3
 463 500 451 509 439 509 c 3
 429.5625 509 416.163085938 504 404 488 c 0
 384.235351562 462 373.60546875 440.048828125 363 410 c 1
 310.48828125 440.181640625 l 1
 325 488 360 535 397 565 c 1
 355 595 330 646 360 720 c 1
 421 720 l 1
 386 682 412.706054688 618.127929688 460 592 c 1
 460 567 l 1
 492 567 534 544 534 493 c 3xe31c
622 233 m 0
 725 233 780 274 780 337 c 3
 780 431 704 474 704 578 c 3
 704 646 716 678 761 734 c 1
 834 734 l 1
 834 724 l 1
 783 670 770 635 770 583 c 3
 770 507 846 456 846 340 c 3
 846 247 782 173 619 173 c 3
 519 173 430.396484375 194 390 285 c 1
 441 323 l 1
 464.860351562 246 550 233 622 233 c 0
451 48 m 1xc32c
 451 120 l 1
 517 120 l 1
 517 48 l 1
 451 48 l 1xc32c
301 48 m 1xc34c
 301 120 l 1
 367 120 l 1
 367 48 l 1
 301 48 l 1xc34c
EndSplineSet
Substitution2: "aslong-1" longconsonant
Substitution2: "fina-1" zcaron.fina
Substitution2: "medi-1" zcaron.medi
Substitution2: "init-1" zcaron.init
EndChar
StartChar: glyph127
Encoding: 539 539 61
Width: 1110
Flags: W
HStem: 179 60<404.09 497.671 599.149 947.452> 315 419G<369.027 382 516 587 1016.5 1095> 409 21G<699.5 763.769> 416 60<190.082 306.163> 530 72<210 276> 714 20G<516 587 1016.5 1095>
VStem: 139 66<-59.2968 68.4182> 210 66<530 602> 312 68<-88.698 42.1561> 324 66<316.811 397.491> 516 66<256.944 734> 1029 66<326.781 385>
AnchorPoint: "above" 243 655 basechar 0
AnchorPoint: "below" 560 120 basechar 0
LayerCount: 2
Fore
SplineSet
193 119 m 1x83b0
 239 164 l 1
 341 100 380 55 380 -23 c 3
 380 -81 342 -137 302 -172 c 1
 219 -172 l 1
 219 -162 l 1
 260 -133 312 -76 312 -28 c 3
 312 30 280 70 193 119 c 1x83b0
324 340 m 3x9370
 324 389 296 416 250 416 c 3
 184 416 125 336 60 236 c 1
 50 236 l 1
 50 333 l 1
 105 409 166 476 257 476 c 3
 338 476 390 418 390 345 c 3
 390 154 205 125 205 3 c 3
 205 -64 265 -90 284 -118 c 1
 239 -162 l 1
 199 -122 139 -80 139 0 c 3
 139 166 324 197 324 340 c 3x9370
715 476 m 3
 824 476 903 371 952 234 c 1
 885 227 l 1
 840 350 776 416 713 416 c 3
 639 416 597 348 575 282 c 1
 525 302 l 1
 562 401 622 476 715 476 c 3
382 335 m 21
 382 262 419 239 455 239 c 7
 492 239 516 278 516 313 c 6
 516 734 l 5
 582 734 l 5xc330
 582 299 l 6
 582 259 618 239 680 239 c 6
 853 239 l 6
 959 239 1004 293 1029 385 c 5
 1095 385 l 5
 1095 375 l 5
 1075 252 1011 179 849 179 c 6
 677 179 l 6
 606 179 562 195 543 228 c 5
 525 202 499 179 451 179 c 7
 397 179 345 209 334 261 c 5
 382 335 l 21
210 530 m 1x8b30
 210 602 l 1
 276 602 l 1
 276 530 l 1
 210 530 l 1x8b30
517 697 m 1
 581 705 l 1
 593 607 701 488 781 461 c 1
 753 409 l 1xa330
 646 445 532 573 517 697 c 1
EndSplineSet
Substitution2: "aslong-1" longconsonant
Substitution2: "fina-1" glyph127.fina
Substitution2: "medi-1" glyph127.medi
Substitution2: "init-1" glyph127.init
EndChar
StartChar: a.fina
Encoding: 65538 -1 54
Width: 740
Flags: W
HStem: -178 60<311.739 544.16> 179 60<0 310.422> 416 318G<286 393.013 466 530> 416 318G<286 393.013 466 530> 416 60<270.789 430.556> 542 60<212.487 337.041> 566 21G<459.5 538> 566 21G<459.5 538>
VStem: 89 66<40.9582 284.785> 140 66<439.617 534.442>
AnchorPoint: "below" -30 120 basechar 0
LayerCount: 2
Fore
SplineSet
0 179 m 1xc0
 -30 209 l 1
 0 239 l 1
 170 239 l 0
 349 239 394 303 466 402 c 1
 466 436 l 1
 530 430 l 1
 530 385 l 1
 437 248 390 179 164 179 c 0
 0 179 l 1xc0
495 566 m 1xc2
 286 715 l 1
 286 734 l 1
 372 734 l 1xe0
 538 576 l 1
 538 566 l 1
 495 566 l 1xc2
730 0 m 1
 730 -10 l 1
 670 -138 546 -178 423 -178 c 0
 253 -178 89 -74.064453125 89 159 c 3
 89 392 248 476 363 476 c 3xc880
 431 476 474 441 512 410 c 1
 470 385 l 1
 449 400 419 416 362 416 c 3
 282 416 155 365 155 160 c 0xe080
 155 -36 292 -118 426 -118 c 0
 517 -118 620 -80 662 0 c 1
 730 0 l 1
256 542 m 0xcc40
 223.384765625 542 206 520.575195312 206 499 c 0
 206 471 226 443 251 426 c 1
 251 416 l 1
 175 416 l 1
 157 436 140 462 140 502 c 0
 140 562.28515625 175.982421875 602 251 602 c 0
 369.500976562 602 482 480 530 430 c 1
 499.8515625 376.403320312 l 1
 450 450 341.84765625 542 256 542 c 0xcc40
EndSplineSet
EndChar
StartChar: a.init
Encoding: 65536 -1 52
Width: 790
Flags: W
HStem: 179 60<140.654 200 357 462 518 790> 407 159G<575 668> 407 159G<596.5 668> 410 324G<68 138 416 523.013 613 660> 410 324G<68 138 416 523.013 613 660> 416 60<369.541 552.617> 542 60<342.181 463.559>
VStem: 65 66<250.297 385> 253 66<259.428 384.037> 270 66<445.433 534.438>
AnchorPoint: "below" 350 120 basechar 0
LayerCount: 2
Back
SplineSet
426 236 m 5
 510 262 561.51953125 318.875 580 439 c 5
 580 476 l 5
 640 476 l 5
 640 431 l 5
 618.22265625 276.944335938 560 234 486 200 c 5
 426 236 l 5
359 190 m 5
 299 216 255 254 255 330 c 7
 255 462.185546875 388 476 500 476 c 5
 600 476 l 5
 580 416 l 5
 491 416 l 5
 386 416 321 410 321 331 c 4
 321 280.329101562 357 246 411 222 c 5
 359 190 l 5
366 542 m 4
 333.384765625 542 316 520.575195312 316 499 c 4
 316 471 336 443 361 426 c 5
 361 416 l 5
 285 416 l 5
 267 436 250 462 250 502 c 4
 250 562.28515625 285.982421875 602 361 602 c 4
 479.500976562 602 574 494 640 476 c 5
 609.8515625 422.403320312 l 5
 528 456 451.84765625 542 366 542 c 4
EndSplineSet
Fore
SplineSet
386 542 m 0x8740
 353 542 336 521 336 499 c 0
 336 471 356 443 381 426 c 1
 381 416 l 1
 305 416 l 1
 287 436 270 462 270 502 c 0
 270 562 306 602 381 602 c 0
 500 602 615 476 660 430 c 1
 625 386 l 1
 568 443 472 542 386 542 c 0x8740
442 476 m 3
 516 476 576 450 632 408 c 1
 593 376 l 1
 557 401 506 416 441 416 c 3
 366 416 319 390 319 321 c 0
 319 270 355 236 409 212 c 1
 357 180 l 1
 297 206 253 244 253 320 c 3x8580
 253 440 350 476 442 476 c 3
660 385 m 1
 599 334 552 262 518 191 c 1
 462 223 l 1
 497 295 542 360 613 419 c 1
 660 430 l 1
 660 385 l 1
625 566 m 1xc1
 416 715 l 1
 416 734 l 1
 502 734 l 1x91
 668 576 l 1
 668 566 l 1
 625 566 l 1xc1
200 239 m 1
 790 239 l 1
 820 209 l 1
 790 179 l 1
 200 179 l 1
 92 179 65 231 65 296 c 0
 65 325 66 347 70 385 c 1
 138 385 l 1
 138 375 l 1
 132 340 131 325 131 301 c 0
 131 265 143 239 200 239 c 1
EndSplineSet
EndChar
StartChar: a.mark
Encoding: 65614 -1 155
Width: 0
Flags: W
HStem: 446 168 594 20G<-175 -89>
VStem: -175 252
AnchorPoint: "above" 0 446 mark 0
LayerCount: 2
Fore
SplineSet
34 446 m 1xa0
 -175 595 l 1
 -175 614 l 1
 -89 614 l 1x60
 77 456 l 1
 77 446 l 1
 34 446 l 1xa0
EndSplineSet
EndChar
StartChar: a.medi
Encoding: 65537 -1 53
Width: 620
Flags: W
HStem: 179 60<0 292 348 620> 407 159G<405 498> 407 159G<426.5 498> 416 60<199.541 382.617> 542 60<172.181 293.559> 714 20G<246 353.013 443 490> 714 20G<246 353.013 443 490>
VStem: 83 66<259.428 384.037> 100 66<445.433 534.438>
AnchorPoint: "below" 180 120 basechar 0
LayerCount: 2
Fore
SplineSet
216 542 m 0x9880
 183 542 166 521 166 499 c 0
 166 471 186 443 211 426 c 1
 211 416 l 1
 135 416 l 1
 117 436 100 462 100 502 c 0
 100 562 136 602 211 602 c 0
 330 602 445 476 490 430 c 1
 455 386 l 1
 398 443 302 542 216 542 c 0x9880
272 476 m 3
 346 476 406 450 462 408 c 1
 423 376 l 1
 387 401 336 416 271 416 c 3
 196 416 149 390 149 321 c 0
 149 270 185 236 239 212 c 1
 187 180 l 1
 127 206 83 244 83 320 c 3x91
 83 440 180 476 272 476 c 3
0 179 m 1
 -30 209 l 1
 0 239 l 1
 620 239 l 1
 650 209 l 1
 620 179 l 1
 0 179 l 1
455 566 m 1xc4
 246 715 l 1
 246 734 l 1
 332 734 l 1
 498 576 l 1
 498 566 l 1
 455 566 l 1xc4
490 385 m 1
 429 334 382 262 348 191 c 1
 292 223 l 1
 327 295 372 360 443 419 c 1
 490 430 l 1
 490 385 l 1
EndSplineSet
EndChar
StartChar: b.fina
Encoding: 65541 -1 57
Width: 1110
Flags: W
HStem: -178 60<689.849 917.915> 173 60<0 65.0212 190.38 289.905 474.012 634.546> 416 60<218.81 317.98> 699.588 34.4121G<103.582 122.582 335.969 386 689 768.472>
VStem: 488 66<22.2313 216.279> 689 66<287.331 734>
AnchorPoint: "below" 240 120 basechar 0
AnchorPoint: "above" 260 506 basechar 0
LayerCount: 2
Fore
SplineSet
796 -178 m 0
 625.458007812 -178 488 -68.8642578125 488 136 c 3
 488 441 770 455 811 563 c 1
 768 582 733 619 704.854492188 694.06640625 c 1
 754.733398438 719.587890625 l 1
 782.2109375 648.469726562 814 617 877 598 c 1
 877 558 l 1
 851.619140625 476 739.2734375 431.79296875 656.740234375 366 c 0
 599.473632812 320.348632812 554 256.034179688 554 136 c 3
 554 -27.8505859375 659.34375 -118 796 -118 c 0
 891 -118 977 -86 1032 0 c 1
 1100 0 l 1
 1100 -10 l 1
 1028 -145 922 -178 796 -178 c 0
555 173 m 3
 450 173 399.397460938 209 354.861328125 324.049804688 c 0
 329.33203125 390 310.973632812 416 274 416 c 3
 228.9375 416 176 370.006835938 176 300 c 3
 176 253.983398438 204.98046875 233 241 233 c 3
 288.018554688 233 320.9375 283 351 359 c 1
 400 331 l 1
 358.106445312 224 311 173 234 173 c 3
 157 173 110 220.443359375 110 293 c 3
 110 394.044921875 188.887695312 476 279 476 c 3
 348 476 384.232421875 436 417.138671875 343.950195312 c 0
 447.864257812 258 477 233 555 233 c 3
 633.067382812 233 689 282.668945312 689 365 c 2
 689 734 l 1
 755 734 l 1
 755 355 l 2
 755 241.774414062 669.97265625 173 555 173 c 3
0 179 m 1
 -30 209 l 1
 0 239 l 1
 48 239 92 258 115.163085938 319.109375 c 1
 130 304 151.708007812 294.177734375 169.836914062 285.890625 c 1
 128 212 78 179 0 179 c 1
EndSplineSet
EndChar
StartChar: b.init
Encoding: 65539 -1 55
Width: 940
Flags: W
HStem: 179 60<136.668 245.439 429.901 572.812 622 940> 336.689 21G<573 618.5 663.5 681.388> 416 60<168.81 267.98> 550 21G<663.5 681.388> 699.588 34.4121G<285.969 336 536.91 606 639 718.472> 699.588 34.4121G<536.91 606 639 718.472>
VStem: 60 66<246.356 372.143> 416 66<377.233 592.474> 573 132<336.689 345 355 415.048> 639 66<289.977 550 694.066 734>
AnchorPoint: "above" 210 506 basechar 0
AnchorPoint: "below" 190 120 basechar 0
LayerCount: 2
Back
SplineSet
505 179 m 7xa3a0
 405 179 349.397460938 209 304.861328125 324.049804688 c 4
 279.33203125 390 260.973632812 416 224 416 c 7
 178.9375 416 126 370.006835938 126 300 c 7
 126 253.983398438 154.98046875 233 191 233 c 7
 238.018554688 233 270.9375 283 301 359 c 5
 350 331 l 5
 308.106445312 224 261 173 184 173 c 7
 107 173 60 220.443359375 60 293 c 7
 60 394.044921875 138.887695312 476 229 476 c 7x93a0
 298 476 334.232421875 436 367.138671875 343.950195312 c 4
 397.864257812 258 432 239 505 239 c 7
 583.067382812 239 639 282.668945312 639 365 c 6
 639 734 l 5
 705 734 l 5xa360
 705 355 l 6
 705 241.774414062 619.97265625 179 505 179 c 7xa3a0
940 240 m 21
 970 209 l 5
 940 179 l 13
 854 179 945 179 819 179 c 4
 561.458007812 179 416 295.907226562 416 469 c 7
 416 580.1484375 460 664 520.91015625 733 c 5
 580 734 l 5xa320
 607 668 651 634 677 617 c 13
 669 550 l 5x8b20
 638 565 584 608 553.017578125 666 c 5
 510.326171875 622.860351562 482 560.020507812 482 471 c 7
 482 347.149414062 588.34375 239 819 239 c 4
 914 239 851 240 940 240 c 21
EndSplineSet
Fore
SplineSet
583 336.689453125 m 1xf380
 573 336.689453125 l 1
 573 415.047851562 l 1
 651.65234375 475.553710938 739.490234375 506.341796875 761 563 c 1
 718 582 683 619 654.854492188 694.06640625 c 1
 704.733398438 719.587890625 l 1
 732.2109375 648.469726562 764 617 827 598 c 1
 827 558 l 1
 801.619140625 476 654 413 583 336.689453125 c 1xf380
819 239 m 0
 914 239 851 240 940 240 c 17
 970 209 l 1
 940 179 l 9
 854 179 819 179 819 179 c 0
 525 179 l 3
 415 179 345.913540587 218 304.861328125 324.049804688 c 0
 279.331830477 389.999922281 260.973632812 416 224 416 c 3
 178.9375 416 126 370.006835938 126 300 c 3
 126 253.983398438 154.98046875 233 191 233 c 3
 238.018554688 233 270.9375 283 301 359 c 1
 350 331 l 1
 308.106445312 224 261 173 184 173 c 3
 107 173 60 220.443359375 60 293 c 3
 60 394.044921875 138.887695312 476 229 476 c 3
 298 476 334.232576517 436.000055282 367.138671875 343.950195312 c 0
 393.931958414 269 442 239 525 239 c 0
 819 239 l 0
622 223 m 1
 591 234.348632812 599.99609375 212.447265625 572.811523438 233 c 1
 490 265 416 348.805664062 416 468 c 3
 416 599.1484375 468 666 536.91015625 733 c 1
 593 734 l 1xfb
 619 670 661 634 687 617 c 9
 679 550 l 1
 648 565 594 608 563.017578125 666 c 1
 514 619 482 584.020507812 482 470 c 3
 482 368 548 305 620 272 c 1
 620 247 639.131835938 229.811523438 622 223 c 1
524 224 m 1
 576 237 639 287 639 355 c 2
 639 734 l 1
 705 734 l 1xfb40
 705 345 l 2xfb80
 705 260 652 203 578 184 c 1
 524 224 l 1
EndSplineSet
EndChar
StartChar: b.medi
Encoding: 65540 -1 56
Width: 990
Flags: W
HStem: 179 60<0 74.1658 186.668 295.439 479.579 585 672 990> 336.689 21G<623 668.5 713.5 731.388> 416 60<218.81 317.98> 550 21G<713.5 731.388> 699.588 34.4121G<103.582 122.582 335.969 386 586.91 656 689 768.472> 699.588 34.4121G<586.91 656 689 768.472>
VStem: 466 66<377.233 592.474> 623 132<336.689 345 355 415.048> 689 66<289.977 550 694.066 734>
AnchorPoint: "above" 260 506 basechar 0
AnchorPoint: "below" 240 120 basechar 0
LayerCount: 2
Back
SplineSet
555 179 m 7xa340
 455 179 399.397460938 209 354.861328125 324.049804688 c 4
 329.33203125 390 310.973632812 416 274 416 c 7
 228.9375 416 176 370.006835938 176 300 c 7
 176 253.983398438 204.98046875 233 241 233 c 7
 288.018554688 233 320.9375 283 351 359 c 5
 400 331 l 5
 358.106445312 224 311 173 234 173 c 7
 157 173 110 220.443359375 110 293 c 7
 110 394.044921875 188.887695312 476 279 476 c 7x9340
 348 476 384.232421875 436 417.138671875 343.950195312 c 4
 447.864257812 258 482 239 555 239 c 7
 633.067382812 239 689 282.668945312 689 365 c 6
 689 734 l 5
 755 734 l 5xa2c0
 755 355 l 6
 755 241.774414062 669.97265625 179 555 179 c 7xa340
990 240 m 21
 1020 209 l 5
 990 179 l 13
 904 179 985 179 859 179 c 4
 601.458007812 179 466 295.907226562 466 469 c 7
 466 580.1484375 510 664 570.91015625 733 c 5
 630 734 l 5xa240
 657 668 701 634 727 617 c 13
 719 550 l 5x8a40
 688 565 634 608 603.017578125 666 c 5
 560.326171875 622.860351562 532 560.020507812 532 471 c 7
 532 347.149414062 628.34375 239 859 239 c 4
 954 239 901 240 990 240 c 21
EndSplineSet
Fore
SplineSet
633 336.689453125 m 1xf3
 623 336.689453125 l 1
 623 415.047851562 l 1
 701.65234375 475.553710938 789.490234375 506.341796875 811 563 c 1
 768 582 733 619 704.854492188 694.06640625 c 1
 754.733398438 719.587890625 l 1
 782.2109375 648.469726562 814 617 877 598 c 1
 877 558 l 1
 851.619485358 476 704 413 633 336.689453125 c 1xf3
574 224 m 1
 626 237 689 287 689 355 c 2
 689 734 l 1
 755 734 l 1xfa80
 755 345 l 2
 755 260 702 203 628 184 c 1
 574 224 l 1
672 223 m 1
 641 234.348632812 649.99609375 212.447265625 622.811523438 233 c 1
 540 265 466 348.805664062 466 468 c 3
 466 599.1484375 518 666 586.91015625 733 c 1
 643 734 l 1
 669 670 711 634 737 617 c 9
 729 550 l 1
 698 565 644 608 613.017578125 666 c 1
 564 619 532 584.020507812 532 470 c 3
 532 368 598 305 670 272 c 1
 670 247 689.131835938 229.811523438 672 223 c 1
869 239 m 0
 964 239 901 240 990 240 c 17
 1020 209 l 1
 990 179 l 9
 904 179 995 179 869 179 c 0
 585 179 l 7
 475 179 399.397460938 209 354.861328125 324.049804688 c 0
 329.33203125 390 310.973632812 416 274 416 c 3
 228.9375 416 176 370.006835938 176 300 c 3
 176 253.983398438 204.98046875 233 241 233 c 3
 288.018554688 233 320.9375 283 351 359 c 1
 400 331 l 1
 358.106445312 224 311 173 234 173 c 3
 157 173 110 220.443359375 110 293 c 3
 110 394.044921875 188.887695312 476 279 476 c 3
 348 476 384.232421875 436 417.138671875 343.950195312 c 0
 447.864257812 258 502 239 585 239 c 4
 869 239 l 0
0 179 m 1
 -30 209 l 1
 0 239 l 1
 48 239 92 258 115.163085938 319.109375 c 1
 130 304 151.708007812 294.177734375 169.836914062 285.890625 c 1
 128 212 78 179 0 179 c 1
EndSplineSet
EndChar
StartChar: c.init
Encoding: 65542 -1 58
Width: 890
Flags: W
HStem: -178 60<635.943 836.909> 173 60<141.472 236.558 381.767 462.489 782.208 890> 330 60<654.85 760> 330 2<661 727> 476 72<290 356>
VStem: 65 66<243.498 385> 290 66<304.43 385 476 548> 453 66<-4.82394 178.021> 661 66<275.77 332>
AnchorPoint: "below" 185 120 basechar 0
AnchorPoint: "above" 105 446 basechar 0
LayerCount: 2
Fore
SplineSet
661 332 m 1xdf80
 727 332 l 1
 727 253 807 239 890 239 c 1
 920 209 l 1
 890 179 l 1
 744 179 661 229 661 332 c 1xdf80
290 476 m 5
 290 548 l 5
 356 548 l 5
 356 476 l 5
 290 476 l 5
1010 0 m 1
 1010 -10 l 1
 950 -138 841 -178 739 -178 c 0
 573 -178 453 -65 453 92 c 0
 453 135 456 154 463 180 c 1
 451 175 437 173 422 173 c 0
 363 173 325 209 314 261 c 1
 292 203 244 173 184 173 c 0
 109 173 65 221 65 286 c 0
 65 319 66 347 70 385 c 1
 138 385 l 1
 138 375 l 1
 132 340 131 321 131 291 c 0
 131 257 151 233 188 233 c 0
 238 233 277 290 287 385 c 1
 362 385 l 1
 362 335 l 1
 362 262 389 233 430 233 c 0
 503 233 542 390 760 390 c 1
 760 330 l 1
 751 330 l 1xef80
 650 330 519 261 519 93 c 0
 519 -40 616 -118 742 -118 c 0
 812 -118 900 -80 942 0 c 1
 1010 0 l 1
EndSplineSet
EndChar
StartChar: c.medi
Encoding: 65543 -1 59
Width: 1000
Flags: W
HStem: -178 60<737.716 936.909> 173 60<0 63.1464 244.645 346.558 491.767 572.489 892.208 1000> 330 60<764.85 870> 330 2<771 837> 476 72<400 466>
VStem: 147 75<314.231 385> 400 66<304.43 385 476 548> 563 66<-10.2802 178.021> 771 66<275.77 332>
AnchorPoint: "below" 295 120 basechar 0
AnchorPoint: "above" 180 446 basechar 0
LayerCount: 2
Fore
SplineSet
771 332 m 1xdf80
 837 332 l 1
 837 253 917 239 1000 239 c 1
 1030 209 l 1
 1000 179 l 1
 854 179 771 229 771 332 c 1xdf80
400 476 m 1
 400 548 l 1
 466 548 l 1
 466 476 l 1
 400 476 l 1
298 233 m 3
 348 233 387 290 397 385 c 1
 472 385 l 1
 472 335 l 1
 472 262 499 233 540 233 c 0
 613 233 652 390 870 390 c 1
 870 330 l 1
 861 330 l 1xef80
 760 330 629 261 629 93 c 0
 629 -40 716 -118 842 -118 c 0
 912 -118 1000 -80 1042 0 c 1
 1110 0 l 1
 1110 -10 l 1
 1050 -138 941 -178 839 -178 c 0
 673 -178 563 -65 563 92 c 0
 563 135 566 154 573 180 c 1
 561 175 547 173 532 173 c 0
 473 173 435 209 424 261 c 1
 402 203 354 173 294 173 c 3
 228 173 187 209 173 274 c 1
 146 210.799804688 83 179 0 179 c 0
 -30 209 l 1
 0 239 l 0
 64 239 136 285 147 385 c 1
 222 385 l 1
 222 335 l 1
 222 256 258 233 298 233 c 3
EndSplineSet
EndChar
StartChar: cdotaccent.fina
Encoding: 65598 -1 136
Width: 1200
Flags: W
HStem: 48 72<406 472> 179 60<0 74.5494 239.751 352.836 494.09 587.671 689.149 1037.45> 365 20G<141.5 222 392 472 606 672 1106.5 1185> 365 20G<141.5 222 392 472 606 672 1106.5 1185> 416 60<737.616 863.89> 476 72<400 466>
VStem: 147 75<314.231 385> 406 66<48 120 476 548> 606 66<256.944 734> 1119 66<326.781 385>
AnchorPoint: "above" 185 446 basechar 0
AnchorPoint: "below" 265 120 basechar 0
LayerCount: 2
Fore
SplineSet
805 476 m 3xcbc0
 914 476 993 371 1042 234 c 1
 975 227 l 1
 930 350 866 416 803 416 c 3
 729 416 687 348 665 282 c 1
 615 302 l 1
 652 401 712 476 805 476 c 3xcbc0
767 179 m 2
 696 179 652 195 633 228 c 1
 615 202 589 179 541 179 c 3
 487 179 435 209 424 261 c 1
 402 203 354 173 294 173 c 3
 228 173 187 209 173 274 c 1
 146 210.799804688 83 179 0 179 c 0
 -30 209 l 1
 0 239 l 0
 64 239 136 285 147 385 c 1
 222 385 l 1
 222 335 l 1
 222 256 258 233 298 233 c 3
 348 233 387 290 397 385 c 1
 472 385 l 1
 472 335 l 2
 472 262 509 239 545 239 c 3
 582 239 606 278 606 313 c 2
 606 734 l 1
 672 734 l 1
 672 299 l 2
 672 259 708 239 770 239 c 2
 943 239 l 6
 1049 239 1094 293 1119 385 c 5
 1185 385 l 5xe3c0
 1185 375 l 5
 1165 252 1101 179 939 179 c 6
 767 179 l 2
406 48 m 1
 406 120 l 1
 472 120 l 1
 472 48 l 1
 406 48 l 1
400 476 m 1xc7c0
 400 548 l 1
 466 548 l 1
 466 476 l 1
 400 476 l 1xc7c0
EndSplineSet
EndChar
StartChar: cdotaccent.init
Encoding: 65596 -1 134
Width: 970
Flags: W
HStem: 48 72<296 362> 179 60<138.361 242.836 384.09 477.671 579.149 865 932 970> 365 20G<68 138 282 362 496 562> 365 20G<68 138 282 362 496 562> 416 60<627.616 753.89> 476 72<290 356>
VStem: 65 66<243.498 385> 296 66<48 120 476 548> 496 66<256.944 734>
AnchorPoint: "above" 105 446 basechar 0
AnchorPoint: "below" 155 120 basechar 0
LayerCount: 2
Fore
SplineSet
695 476 m 3xcb80
 804 476 883 371 932 234 c 1
 865 227 l 1
 820 350 756 416 693 416 c 3
 619 416 577 348 555 282 c 1
 505 302 l 1
 542 401 602 476 695 476 c 3xcb80
431 179 m 3
 377 179 325 209 314 261 c 1
 292 203 244 173 184 173 c 0
 109 173 65 221 65 286 c 0
 65 319 66 347 70 385 c 1
 138 385 l 1
 138 375 l 1
 132 340 131 321 131 291 c 0
 131 257 151 233 188 233 c 0
 238 233 277 290 287 385 c 1
 362 385 l 1xe380
 362 335 l 2
 362 262 399 239 435 239 c 3
 472 239 496 278 496 313 c 2
 496 734 l 1
 562 734 l 1
 562 299 l 2
 562 259 598 239 660 239 c 2
 970 239 l 5
 1000 209 l 29
 970 179 l 5
 657 179 l 2
 586 179 542 195 523 228 c 1
 505 202 479 179 431 179 c 3
296 48 m 1
 296 120 l 1
 362 120 l 1
 362 48 l 1
 296 48 l 1
290 476 m 1xc780
 290 548 l 1
 356 548 l 1
 356 476 l 1
 290 476 l 1xc780
EndSplineSet
EndChar
StartChar: cdotaccent.medi
Encoding: 65597 -1 135
Width: 1080
Flags: W
HStem: 48 72<406 472> 179 60<0 74.5494 239.751 352.836 494.09 587.671 689.149 975 1042 1080> 365 20G<141.5 222 392 472 606 672> 365 20G<141.5 222 392 472 606 672> 416 60<737.616 863.89> 476 72<400 466>
VStem: 147 75<314.231 385> 406 66<48 120 476 548> 606 66<256.944 734>
AnchorPoint: "above" 185 446 basechar 0
AnchorPoint: "below" 265 120 basechar 0
LayerCount: 2
Fore
SplineSet
805 476 m 7xcb80
 914 476 993 371 1042 234 c 5
 975 227 l 5
 930 350 866 416 803 416 c 7
 729 416 687 348 665 282 c 5
 615 302 l 5
 652 401 712 476 805 476 c 7xcb80
298 233 m 3
 348 233 387 290 397 385 c 1
 472 385 l 1
 472 335 l 2
 472 262 509 239 545 239 c 3
 582 239 606 278 606 313 c 2
 606 734 l 1
 672 734 l 1
 672 299 l 2
 672 259 708 239 770 239 c 2
 1080 239 l 1
 1110 209 l 25
 1080 179 l 1
 767 179 l 2
 696 179 652 195 633 228 c 1
 615 202 589 179 541 179 c 3
 487 179 435 209 424 261 c 1
 402 203 354 173 294 173 c 3
 228 173 187 209 173 274 c 1
 146 210.799804688 83 179 0 179 c 0
 -30 209 l 1
 0 239 l 0
 64 239 136 285 147 385 c 1
 222 385 l 1xe380
 222 335 l 1
 222 256 258 233 298 233 c 3
406 48 m 1
 406 120 l 1
 472 120 l 1
 472 48 l 1
 406 48 l 1
400 476 m 1xc780
 400 548 l 1
 466 548 l 1
 466 476 l 1
 400 476 l 1xc780
EndSplineSet
EndChar
StartChar: d.fina
Encoding: 65547 -1 85
Width: 970
Flags: W
HStem: 173 60<0 59.6273 473.291 623> 416 60<282.492 396.163> 714 20G<646 725> 714 20G<646 725>
VStem: 229 66<-59.2968 68.4182> 402 68<-88.698 42.1561> 414 66<286.719 397.491> 537 66<471.263 588.847> 659 66<270.867 734> 859 66<-2.36546 191.453>
AnchorPoint: "above" 330 506 basechar 0
AnchorPoint: "below" 650 120 basechar 0
LayerCount: 2
Fore
SplineSet
283 119 m 1xcdc0
 329 164 l 1
 431 100 470 55 470 -23 c 3
 470 -81 432 -137 392 -172 c 1
 309 -172 l 1
 309 -162 l 1
 350 -133 402 -76 402 -28 c 3
 402 30 370 70 283 119 c 1xcdc0
347 476 m 0
 428 476 480 418 480 345 c 3
 480 154 295 125 295 3 c 3
 295 -64 355 -90 374 -118 c 1
 329 -162 l 1
 289 -122 229 -80 229 0 c 3
 229 166 414 197 414 340 c 3xcbc0
 414 389 386 416 340 416 c 0
 223 416 200 179 0 179 c 1
 -30 209 l 1
 0 239 l 1
 143 239 177 476 347 476 c 0
561 173 m 7
 486 173 438 198 400 235 c 5
 441 283 l 4
 465 254 503 233 559 233 c 7
 621.072265625 233 659 271 659 359 c 6
 659 734 l 5
 725 734 l 5xe9c0
 725 355 l 6
 725 233 664 173 561 173 c 7
603 527 m 4
 603 470 665 429 757 363 c 4
 846 300 925 228 925 91 c 4
 925 -31.2216796875 834 -136 738 -208 c 5
 655 -208 l 5
 655 -198 l 5
 764 -120 859 -25.767578125 859 91 c 4
 859 195 808 250 716 316 c 4
 627 379 537 428 537 523 c 4
 537 619.491210938 630 652 662 728 c 5
 717 705 l 5
 692 638 603 604.953125 603 527 c 4
EndSplineSet
EndChar
StartChar: d.init
Encoding: 65545 -1 83
Width: 880
Flags: W
HStem: 173 60<383.291 533 812.706 880> 295.411 21G<640.5 740> 416 60<190.082 306.163> 708 26G<556 635 693 759> 708 26G<556 635 693 759>
VStem: 139 66<-59.2968 68.4182> 312 68<-88.698 42.1561> 324 66<286.719 397.491> 447 66<471.955 588.847> 569 66<270.867 734> 693 66<279.286 358 368.964 734> 693 47<295.411 368.964>
AnchorPoint: "above" 250 506 basechar 0
AnchorPoint: "below" 560 120 basechar 0
LayerCount: 2
Fore
SplineSet
324 340 m 7xe5c0
 324 389 296 416 250 416 c 7
 184 416 125 336 60 236 c 5
 50 236 l 5
 50 333 l 5
 105 409 166 476 257 476 c 7
 338 476 390 418 390 345 c 7
 390 154 205 125 205 3 c 7
 205 -64 265 -90 284 -118 c 5
 239 -162 l 5
 199 -122 139 -80 139 0 c 7
 139 166 324 197 324 340 c 7xe5c0
193 119 m 5
 239 164 l 5
 341 100 380 55 380 -23 c 7
 380 -81 342 -137 302 -172 c 5
 219 -172 l 5
 219 -162 l 5
 260 -133 312 -76 312 -28 c 7xe6c0
 312 30 280 70 193 119 c 5
740 295.411132812 m 1xe4d0
 541 382 447 420.686523438 447 523 c 3
 447 619.491210938 540 652 572 728 c 1
 627 705 l 1
 602 638 513 604.953125 513 527 c 3
 513 449 619 411 740 368.963867188 c 1
 740 341.779296875 740 322.595703125 740 295.411132812 c 1xe4d0
471 173 m 3
 396 173 348 198 310 235 c 1
 351 283 l 0
 375 254 413 233 469 233 c 3
 531.072265625 233 569 271 569 359 c 2
 569 734 l 1
 635 734 l 1xf4c0
 635 355 l 2
 635 233 574 173 471 173 c 3
693 734 m 1xf4e0
 759 734 l 1
 759 358 l 2
 759 279.286132812 809.668945312 239 878 239 c 2
 880 239 l 1
 910 209 l 2
 880 179 l 1
 873 179 l 2
 775.6796875 179 693 240 693 355 c 2
 693 734 l 1xf4e0
EndSplineSet
EndChar
StartChar: d.medi
Encoding: 65546 -1 84
Width: 970
Flags: W
HStem: 179 60<0 67.2324 455.147 630.358 893.818 970> 295.411 21G<730.5 830> 416 60<282.492 396.163> 708 26G<646 725 783 849> 708 26G<646 725 783 849>
VStem: 229 66<-59.2968 68.4182> 402 68<-88.698 42.1561> 414 66<286.719 397.491> 537 66<471.955 588.847> 659 66<270.867 734> 783 66<279.286 358 368.964 734> 783 47<295.411 368.964>
AnchorPoint: "above" 330 506 basechar 0
AnchorPoint: "below" 650 120 basechar 0
LayerCount: 2
Fore
SplineSet
283 119 m 5xe6c0
 329 164 l 5
 431 100 470 55 470 -23 c 7
 470 -81 432 -137 392 -172 c 5
 309 -172 l 5
 309 -162 l 5
 350 -133 402 -76 402 -28 c 7
 402 30 370 70 283 119 c 5xe6c0
347 476 m 4
 428 476 480 418 480 345 c 7
 480 154 295 125 295 3 c 7
 295 -64 355 -90 374 -118 c 5
 329 -162 l 5
 289 -122 229 -80 229 0 c 7
 229 166 414 197 414 340 c 7xe5c0
 414 389 386 416 340 416 c 4
 223 416 200 179 0 179 c 5
 -30 209 l 5
 0 239 l 5
 143 239 177 476 347 476 c 4
830 295.411132812 m 1xe4d0
 631 382 537 420.686523438 537 523 c 3
 537 619.491210938 630 652 662 728 c 1
 717 705 l 1
 692 638 603 604.953125 603 527 c 3
 603 449 709 411 830 368.963867188 c 1
 830 341.779296875 830 322.595703125 830 295.411132812 c 1xe4d0
561 173 m 3
 486 173 438 198 400 235 c 1
 441 283 l 0
 465 254 503 233 559 233 c 3
 621.072265625 233 659 271 659 359 c 2
 659 734 l 1
 725 734 l 1xf4c0
 725 355 l 2
 725 233 664 173 561 173 c 3
783 734 m 1xf4e0
 849 734 l 1
 849 358 l 2
 849 279.286132812 899.668945312 239 968 239 c 2
 970 239 l 1
 1000 209 l 2
 970 179 l 1
 963 179 l 2
 865.6796875 179 783 240 783 355 c 2
 783 734 l 1xf4e0
EndSplineSet
EndChar
StartChar: e.fina
Encoding: 65550 -1 88
Width: 850
Flags: W
HStem: 179 60<0 77.2013 253.046 364.504 522.938 730> 365 20G<151.5 232> 365 20G<151.5 232 461 521> 416 60<562.812 693.116> 446 21G<219.812 290 366.06 430> 446 21G<219.812 290 366.06 430> 559 60<12 114.632>
VStem: 157 75<318.721 385> 513 68<-172 -73.4557> 730 66<218.275 380.349>
LayerCount: 2
Fore
SplineSet
387 446 m 1x8bc0
 231 595 l 1
 231 614 l 1
 317 614 l 1
 430 446 l 1
 387 446 l 1x8bc0
247 446 m 1
 160 510 l 2
 103 552 58 559 12 559 c 1
 12 619 l 1
 22 619 l 1
 112 619 162 581 213 531 c 2
 290 456 l 1
 290 446 l 1
 247 446 l 1
303 179 m 1
 237 179 194 203.338867188 183 274 c 1
 156 210.799804688 83 179 0 179 c 0
 -30 209 l 1
 0 239 l 0
 64 239 146 285 157 385 c 1
 232 385 l 1
 232 343 l 1
 232 274 257 239 299 239 c 1
 437 239 440 476 626 476 c 0
 741 476 796 393 796 321 c 3
 796 242 786.51953125 217.9765625 708 103 c 0
 594.635742188 -63 581 -109 581 -172 c 1
 513 -172 l 1
 513 -162 l 1
 513 -90 540.837890625 -34 658 136 c 0
 716.579101562 220.997070312 730 265 730 316 c 3
 730 372 694 416 619 416 c 0xd3c0
 500 416 487 179 303 179 c 1
507 295 m 0
 507 250 564 239 608 239 c 2
 730 239 l 1
 760 209 l 1
 730 179 l 1
 603 179 l 2
 524 179 448 198 448 280 c 0
 448 310 456 339 466 366 c 1
 521 350 l 1
 510 330 507 316 507 295 c 0
EndSplineSet
EndChar
StartChar: e.mark
Encoding: 65615 -1 156
Width: 0
Flags: W
HStem: 446 21G<-70.1875 0 76.0604 140> 446 21G<-70.1875 0 76.0604 140> 559 60<-278 -175.368>
AnchorPoint: "above" 0 446 mark 0
LayerCount: 2
Fore
SplineSet
97 446 m 5xa0
 -59 595 l 5
 -59 614 l 5
 27 614 l 5
 140 446 l 5
 97 446 l 5xa0
-43 446 m 5
 -130 510 l 6
 -187 552 -232 559 -278 559 c 5
 -278 619 l 5
 -268 619 l 5
 -178 619 -128 581 -77 531 c 6
 0 456 l 5
 0 446 l 5
 -43 446 l 5
EndSplineSet
EndChar
StartChar: f.fina
Encoding: 65553 -1 91
Width: 990
Flags: W
HStem: -178 60<800.673 930> -66 60<215.824 412.868> 179 60<0 346> 313 21G<809 892> 330 60<181.202 316.186> 446 72<223 289> 470 60<732.069 836.359> 714 20G<665 731> 714 20G<665 731>
VStem: 65 66<77.2574 273.405> 223 66<446 518> 346 70<239 272> 521 66<107.885 328.099> 665 66<-42.0213 734> 849 66<341.759 455.218>
AnchorPoint: "below" 285 -116 basechar 0
AnchorPoint: "above" 260 566 basechar 0
LayerCount: 2
Fore
SplineSet
884 -118 m 6xe17e
 950 -118 l 5
 950 -128 l 5
 930 -178 l 5
 877 -178 l 6
 724.141601562 -178 665 -78.1494140625 665 71 c 6
 665 734 l 1
 731 734 l 1
 731 76 l 6
 731 -42.6005859375 771.64453125 -118 884 -118 c 6xe17e
316 -66 m 0
 155 -66 65 33 65 172 c 0
 65 330 163 390 253 390 c 0
 361 390 402 325 416 272 c 1
 346 239 l 1
 346 289 315 330 250 330 c 0xea7e
 189 330 131 290 131 173 c 0
 131 70 187 -6 319 -6 c 0
 448 -6 521 87 521 215 c 0
 521 287.60546875 495.198242188 344.975585938 474.553710938 375 c 1
 474.553710938 385 l 1
 537 454 654 530 756 530 c 3
 871 530 915 471 915 410 c 0
 915 370 901 336 883 313 c 1
 809 313 l 1
 809 323 l 1
 842 351 849 382 849 405 c 0
 849 449 831 470 749 470 c 3xf27e
 678.9375 470 591 418 555.120117188 364.504882812 c 1
 567.568359375 337.859375 587 285.330078125 587 215 c 0
 587 52 488 -66 316 -66 c 0
0 179 m 1
 -30 209 l 1
 0 239 l 1
 346 239 l 1
 368 262 l 1
 416 272 l 1
 416 179 l 1
 0 179 l 1
223 446 m 1xe47e
 223 518 l 1
 289 518 l 1
 289 446 l 1
 223 446 l 1xe47e
EndSplineSet
EndChar
StartChar: f.init
Encoding: 65551 -1 89
Width: 1010
Flags: W
HStem: -66 60<215.824 412.868> 179 60<108 346 766.459 1010> 313 21G<809 892> 330 60<181.202 316.186> 446 72<223 289> 470 60<732.069 836.359> 714 20G<665 731> 714 20G<665 731>
VStem: 65 66<77.2574 273.405> 108 23<179 239> 223 66<446 518> 346 70<239 272> 521 66<107.885 328.099> 665 66<275.278 734> 849 66<341.759 455.218>
AnchorPoint: "below" 285 -116 basechar 0
AnchorPoint: "above" 260 566 basechar 0
LayerCount: 2
Fore
SplineSet
316 -66 m 0xe4be
 155 -66 65 33 65 172 c 0
 65 330 163 390 253 390 c 0
 361 390 402 325 416 272 c 1
 346 239 l 1
 346 289 315 330 250 330 c 0xd4be
 189 330 131 290 131 173 c 0
 131 70 187 -6 319 -6 c 0
 448 -6 521 87 521 215 c 0
 521 287.60546875 495.198242188 344.975585938 474.553710938 375 c 1
 474.553710938 385 l 1
 537 454 654 530 756 530 c 3
 871 530 915 471 915 410 c 0
 915 370 901 336 883 313 c 1
 809 313 l 1
 809 323 l 1
 842 351 849 382 849 405 c 0
 849 449 831 470 749 470 c 3
 678.9375 470 591 418 555.120117188 364.504882812 c 1
 567.568359375 337.859375 587 285.330078125 587 215 c 0
 587 52 488 -66 316 -66 c 0xe4be
108 179 m 1xc07e
 108 239 l 1
 346 239 l 1
 368 262 l 1
 416 272 l 1
 416 179 l 1
 108 179 l 1xc07e
223 446 m 1xc83e
 223 518 l 1
 289 518 l 1
 289 446 l 1
 223 446 l 1xc83e
864 239 m 2
 1010 239 l 1
 1040 209 l 1
 1010 179 l 1
 857 179 l 2
 724.141601562 179 665 228.850585938 665 368 c 2
 665 734 l 1
 731 734 l 1xc23e
 731 373 l 2
 731 264.399414062 761.64453125 239 864 239 c 2
EndSplineSet
EndChar
StartChar: f.medi
Encoding: 65552 -1 90
Width: 1010
Flags: W
HStem: -66 60<215.824 412.868> 179 60<0 346 766.459 1010> 313 21G<809 892> 330 60<181.202 316.186> 446 72<223 289> 470 60<732.069 836.359> 714 20G<665 731> 714 20G<665 731>
VStem: 65 66<77.2574 273.405> 223 66<446 518> 346 70<239 272> 521 66<107.885 328.099> 665 66<275.278 734> 849 66<341.759 455.218>
AnchorPoint: "below" 285 -116 basechar 0
AnchorPoint: "above" 260 566 basechar 0
LayerCount: 2
Fore
SplineSet
316 -66 m 4xe4fc
 155 -66 65 33 65 172 c 4
 65 330 163 390 253 390 c 4
 361 390 402 325 416 272 c 5
 346 239 l 5
 346 289 315 330 250 330 c 4xd4fc
 189 330 131 290 131 173 c 4
 131 70 187 -6 319 -6 c 4
 448 -6 521 87 521 215 c 4
 521 287.60546875 495.198242188 344.975585938 474.553710938 375 c 5
 474.553710938 385 l 5
 537 454 654 530 756 530 c 7
 871 530 915 471 915 410 c 4
 915 370 901 336 883 313 c 5
 809 313 l 5
 809 323 l 5
 842 351 849 382 849 405 c 4
 849 449 831 470 749 470 c 7
 678.9375 470 591 418 555.120117188 364.504882812 c 5
 567.568359375 337.859375 587 285.330078125 587 215 c 4
 587 52 488 -66 316 -66 c 4xe4fc
0 179 m 1
 -30 209 l 1
 0 239 l 1
 346 239 l 1
 368 262 l 1
 416 272 l 1
 416 179 l 1
 0 179 l 1
223 446 m 1xc8fc
 223 518 l 1
 289 518 l 1
 289 446 l 1
 223 446 l 1xc8fc
864 239 m 2
 1010 239 l 1
 1040 209 l 1
 1010 179 l 1
 857 179 l 2
 724.141601562 179 665 228.850585938 665 368 c 2
 665 734 l 1
 731 734 l 1xc2fc
 731 373 l 2
 731 264.399414062 761.64453125 239 864 239 c 2
EndSplineSet
EndChar
StartChar: g.fina
Encoding: 65556 -1 94
Width: 1080
Flags: W
HStem: 173 60<0 65.6698 252.18 346.558 505.851 680.594 877.003 1052.58> 197 63<971.375 1072> 365 20G<151.5 232 392 472 843 907> 365 20G<151.5 232 392 472 843 907> 406 103G<598 645 713 741.222 811.5 875.333> 406 103G<598 645 713 741.222 811.5 875.333> 446 72<402 468> 536 71<437 471> 656 25<602 613> 677 57<450.659 626.482>
VStem: 157 75<318.463 385> 367 66<547 659.588> 402 66<309.658 385 446 518> 534 66<587.925 629.45>
AnchorPoint: "above" 205 446 basechar 0
AnchorPoint: "below" 295 120 basechar 0
LayerCount: 2
Fore
SplineSet
521 677 m 0x0174
 469 677 433 657 433 613 c 0
 433 585 446 563 471 546 c 1
 471 536 l 1
 398 536 l 1
 380 556 367 581 367 616 c 0
 367 689 433 734 518 734 c 0x0174
 635 734 776 702 907 430 c 1
 850 385 l 1
 773 561 705 629 627 656 c 1
 616 660 613 654 602 656 c 1x21b4
 583 667 554 677 521 677 c 0x0174
437 547 m 1
 430 607 l 1
 632 607 684.519837508 495 765 366 c 0
 830.507109005 261 885 239 969 239 c 0
 1017 239 1032 245 1062 260 c 9
 1072 260 l 1
 1072 197 l 1x4124
 1050 187 1020 179 969 179 c 0
 856 179 787 219 709 337 c 0
 630.206801989 456.199966222 583 547 437 547 c 1
298 233 m 7xa124
 348 233 387 290 397 385 c 1
 472 385 l 1
 472 335 l 1
 472 262 519 233 580 233 c 0
 689 233 771 303 843 402 c 1
 843 436 l 1
 907 430 l 1
 907 385 l 1
 814 248 724 173 574 173 c 0
 488 173 437 209 424 261 c 1
 402 203 354 173 294 173 c 7
 238 173 194 203 183 274 c 5
 156 211 83 179 0 179 c 4
 -30 209 l 5
 0 239 l 4
 64 239 146 285 157 385 c 5
 232 385 l 5
 232 343 l 5
 232 274 252 233 298 233 c 7xa124
402 446 m 1x032c
 402 518 l 1
 468 518 l 1
 468 446 l 1
 402 446 l 1x032c
646 635 m 0
 614 635 600 614 600 592 c 0
 600 564 620 536 645 519 c 1
 645 509 l 1
 598 520 l 1
 580 540 534 555 534 595 c 0
 534 665 579 681 654 681 c 0x09a4
 702 681 717 663 759 636 c 1
 727 591 l 17
 699 619 678 635 646 635 c 0
EndSplineSet
EndChar
StartChar: g.init
Encoding: 65554 -1 92
Width: 890
Flags: W
HStem: 173 60<141.472 236.558 395.851 570.594 770.244 890> 365 20G<68 138 282 362 733 797> 365 20G<68 138 282 362 733 797> 406 103G<488 535 603 631.222 701.5 765.333> 406 103G<488 535 603 631.222 701.5 765.333> 446 72<292 358> 536 71<327 361> 656 25<492 503> 677 57<340.659 516.482>
VStem: 65 66<243.498 385> 257 66<547 659.588> 292 66<309.658 385 446 518> 424 66<587.925 629.45>
AnchorPoint: "above" 105 446 basechar 0
AnchorPoint: "below" 185 120 basechar 0
LayerCount: 2
Fore
SplineSet
411 677 m 0x82e8
 359 677 323 657 323 613 c 0
 323 585 336 563 361 546 c 1
 361 536 l 1
 288 536 l 5
 270 556 257 581 257 616 c 0
 257 689 323 734 408 734 c 0x82e8
 525 734 666 702 797 430 c 1
 740 385 l 1
 663 561 595 629 517 656 c 1
 506 660 503 654 492 656 c 1xc368
 473 667 444 677 411 677 c 0x82e8
327 547 m 1
 320 607 l 1
 522 607 574.51953125 495 655 366 c 0
 720.506835938 261 770 239 884 239 c 0
 890 239 l 1
 920 209 l 1
 890 179 l 1
 884 179 l 0
 741 179 677 219 599 337 c 0
 520.20703125 456.200195312 473 547 327 547 c 1
536 635 m 0
 504 635 490 614 490 592 c 0
 490 564 510 536 535 519 c 1
 535 509 l 1
 488 520 l 1
 470 540 424 555 424 595 c 0
 424 665 469 681 544 681 c 0x9348
 592 681 607 663 649 636 c 1
 617 591 l 17
 589 619 568 635 536 635 c 0
292 446 m 1x8658
 292 518 l 1
 358 518 l 1
 358 446 l 1
 292 446 l 1x8658
464 173 m 0
 378 173 327 209 314 261 c 1
 292 203 244 173 184 173 c 0
 109 173 65 221 65 286 c 0
 65 319 66 347 70 385 c 1
 138 385 l 1
 138 375 l 1
 132 340 131 321 131 291 c 0
 131 257 151 233 188 233 c 0
 238 233 277 290 287 385 c 1
 362 385 l 1
 362 335 l 1
 362 262 409 233 470 233 c 0
 579 233 661 303 733 402 c 1
 733 436 l 1
 797 430 l 1
 797 385 l 1xc248
 704 248 614 173 464 173 c 0
EndSplineSet
EndChar
StartChar: g.medi
Encoding: 65555 -1 93
Width: 1000
Flags: W
HStem: 173 60<0 65.6698 252.18 346.558 505.851 680.594 880.244 1000> 365 20G<151.5 232 392 472 843 907> 365 20G<151.5 232 392 472 843 907> 406 103G<598 645 713 741.222 811.5 875.333> 406 103G<598 645 713 741.222 811.5 875.333> 446 72<402 468> 536 71<437 471> 656 25<602 613> 677 57<450.659 626.482>
VStem: 157 75<318.463 385> 367 66<547 659.588> 402 66<309.658 385 446 518> 534 66<587.925 629.45>
AnchorPoint: "above" 205 446 basechar 0
AnchorPoint: "below" 295 120 basechar 0
LayerCount: 2
Back
SplineSet
580 635 m 4
 547 635 530 614 530 592 c 4
 530 564 550 536 575 519 c 5
 575 509 l 5
 528 520 l 5
 510 540 464 555 464 595 c 4
 464 665 509 681 584 681 c 4x8b70
 632 681 666 673 708 646 c 5
 676 601 l 21
 644 625 612 635 580 635 c 4
444 674 m 4x82f0
 402 674 363 657 363 613 c 4
 363 585 376 563 401 546 c 5
 401 536 l 5
 325 536 l 5
 307 556 297 581 297 616 c 4
 297 689 363 734 448 734 c 4x82f0
 575 734 716 702 907 430 c 5
 850 385 l 5
 749.563476562 560.151367188 652.127929688 629.162109375 574 656.345703125 c 5
 562.569335938 660.322265625 540.552734375 653.612304688 530 656 c 5xc370
 511 667 476.944335938 674 444 674 c 4x82f0
367 547 m 5
 360 607 l 5
 591 607 681.052734375 472.049804688 777 371 c 4
 852.010742188 292 895 239 989 239 c 4
 1000 239 l 5
 1030 209 l 5
 1000 179 l 5
 989 179 l 4
 866 179 820.397460938 234 727 332 c 4
 628.915039062 434.918945312 545 547 367 547 c 5
EndSplineSet
Fore
SplineSet
521 677 m 0x82e8
 469 677 433 657 433 613 c 0
 433 585 446 563 471 546 c 1
 471 536 l 1
 398 536 l 5
 380 556 367 581 367 616 c 0
 367 689 433 734 518 734 c 0x82e8
 635 734 776 702 907 430 c 1
 850 385 l 1
 773 561 705 629 627 656 c 1
 616 660 613 654 602 656 c 1xc368
 583 667 554 677 521 677 c 0x82e8
437 547 m 1
 430 607 l 1
 632 607 684.519837508 495 765 366 c 0
 830.507109005 261 880 239 994 239 c 0
 1000 239 l 1
 1030 209 l 1
 1000 179 l 1
 994 179 l 0
 851 179 787 219 709 337 c 0
 630.206801989 456.199966222 583 547 437 547 c 1
646 635 m 0
 614 635 600 614 600 592 c 0
 600 564 620 536 645 519 c 1
 645 509 l 1
 598 520 l 1
 580 540 534 555 534 595 c 0
 534 665 579 681 654 681 c 0x9348
 702 681 717 663 759 636 c 1
 727 591 l 17
 699 619 678 635 646 635 c 0
298 233 m 3
 348 233 387 290 397 385 c 1
 472 385 l 1
 472 335 l 1
 472 262 519 233 580 233 c 0
 689 233 771 303 843 402 c 1
 843 436 l 1
 907 430 l 1
 907 385 l 1
 814 248 724 173 574 173 c 0
 488 173 437 209 424 261 c 1
 402 203 354 173 294 173 c 3
 238 173 194 203.338867188 183 274 c 1
 156 210.799804688 83 179 0 179 c 0
 -30 209 l 1
 0 239 l 0
 64 239 146 285 157 385 c 1
 232 385 l 1xc248
 232 343 l 1
 232 274 252 233 298 233 c 3
402 446 m 1x8658
 402 518 l 1
 468 518 l 1
 468 446 l 1
 402 446 l 1x8658
EndSplineSet
EndChar
StartChar: gdotaccent.init
Encoding: 65599 -1 137
Width: 970
Flags: W
HStem: -178 60<360.063 544.85> 48 72<296 362> 173 60<141.472 236.558 388.537 483.869 632.044 970> 365 20G<68 138 282 362 567 624> 365 20G<68 138 282 362> 416 60<663.101 793.116> 476 72<290 356>
VStem: 65 66<243.498 385> 252 64<-75.7891 -36> 296 66<48 120 476 548> 398 66<-35.4375 29> 830 66<239.894 380.349>
AnchorPoint: "below" 155 120 basechar 0
AnchorPoint: "above" 105 446 basechar 0
LayerCount: 2
Fore
SplineSet
808 103 m 24xf570
 701 -57 603 -178 451 -178 c 0
 346 -178 268 -130 252 -46 c 1
 252 -36 l 1
 316 -36 l 1xf5b0
 332 -93 383 -118 440 -118 c 0
 566 -118 657 -12 758 136 c 24
 801 199 830 265 830 316 c 3
 830 372 794 416 719 416 c 0
 602 416 596 173 434 173 c 3
 380 173 325 209 314 261 c 1
 292 203 244 173 184 173 c 0
 109 173 65 221 65 286 c 0
 65 319 66 347 70 385 c 1
 138 385 l 1
 138 375 l 1
 132 340 131 321 131 291 c 0
 131 257 151 233 188 233 c 0
 238 233 277 290 287 385 c 1
 362 385 l 1
 362 335 l 2
 362 262 402 233 438 233 c 3
 534 233 558 476 726 476 c 0
 841 476 896 393 896 321 c 3
 896 242 859 179 808 103 c 24xf570
607 295 m 4
 607 250 664 239 708 239 c 6
 970 239 l 1
 1000 209 l 1
 970 179 l 1
 703 179 l 6
 624 179 548 198 548 280 c 4
 548 310 562 337 572 364 c 5
 624 346 l 5
 613 326 607 316 607 295 c 4
296 48 m 1xe170
 296 120 l 1
 362 120 l 1
 362 48 l 1
 296 48 l 1xe170
290 476 m 1xe330
 290 548 l 1
 356 548 l 1
 356 476 l 1
 290 476 l 1xe330
545 -63 m 0
 563 -63 587 -59 612 -46 c 1
 629 -101 l 1
 598 -112 568 -108 540 -108 c 0
 456 -108 407 -63 398 19 c 1
 398 29 l 1
 464 29 l 1
 470 -25 492 -63 545 -63 c 0
EndSplineSet
EndChar
StartChar: gdotaccent.medi
Encoding: 65600 -1 138
Width: 1080
Flags: W
HStem: -178 60<470.063 654.85> 48 72<406 472> 173 60<0 63.1464 244.645 346.558 498.537 593.869 742.044 1080> 365 20G<141.5 222 392 472 677 734> 365 20G<141.5 222 392 472> 416 60<773.101 903.116> 476 72<400 466>
VStem: 147 75<314.231 385> 362 64<-75.7891 -36> 406 66<48 120 476 548> 508 66<-35.4375 29> 940 66<239.894 380.349>
AnchorPoint: "above" 180 446 basechar 0
AnchorPoint: "below" 175 120 basechar 0
LayerCount: 2
Fore
SplineSet
298 233 m 3xf5b0
 348 233 387 290 397 385 c 1
 472 385 l 1
 472 335 l 2xf570
 472 262 512 233 548 233 c 3
 644 233 668 476 836 476 c 0
 951 476 1006 393 1006 321 c 3
 1006 242 969 179 918 103 c 24
 811 -57 713 -178 561 -178 c 0
 456 -178 378 -130 362 -46 c 1
 362 -36 l 1
 426 -36 l 1
 442 -93 493 -118 550 -118 c 0
 676 -118 767 -12 868 136 c 24
 911 199 940 265 940 316 c 3
 940 372 904 416 829 416 c 0
 712 416 706 173 544 173 c 3
 490 173 435 209 424 261 c 1
 402 203 354 173 294 173 c 3
 228 173 187 209 173 274 c 1
 146 210.799804688 83 179 0 179 c 0
 -30 209 l 1
 0 239 l 0
 64 239 136 285 147 385 c 1
 222 385 l 1
 222 335 l 1
 222 256 258 233 298 233 c 3xf5b0
717 295 m 4
 717 250 774 239 818 239 c 6
 1080 239 l 1
 1110 209 l 1
 1080 179 l 1
 813 179 l 6
 734 179 658 198 658 280 c 4
 658 310 672 337 682 364 c 5
 734 346 l 5
 723 326 717 316 717 295 c 4
406 48 m 1
 406 120 l 1
 472 120 l 1
 472 48 l 1
 406 48 l 1
400 476 m 1xe330
 400 548 l 1
 466 548 l 1
 466 476 l 1
 400 476 l 1xe330
655 -63 m 0
 673 -63 697 -59 722 -46 c 1
 739 -101 l 1
 708 -112 678 -108 650 -108 c 0
 566 -108 517 -63 508 19 c 1
 508 29 l 1
 574 29 l 1
 580 -25 602 -63 655 -63 c 0
EndSplineSet
EndChar
StartChar: glyph127.fina
Encoding: 65610 -1 148
Width: 1200
Flags: W
HStem: 179 60<0 67.2324 494.09 587.671 689.149 1037.45> 315 419G<459.027 472 606 677 1106.5 1185> 409 21G<789.5 853.769> 416 60<282.492 396.163> 530 72<300 366> 714 20G<606 677 1106.5 1185>
VStem: 229 66<-59.2968 68.4182> 300 66<530 602> 402 68<-88.698 42.1561> 414 66<316.811 397.491> 606 66<256.944 734> 1119 66<326.781 385>
AnchorPoint: "above" 333 655 basechar 0
AnchorPoint: "below" 650 120 basechar 0
LayerCount: 2
Fore
SplineSet
472 335 m 17xc330
 472 262 509 239 545 239 c 3
 582 239 606 278 606 313 c 2
 606 734 l 1
 672 734 l 1
 672 299 l 2
 672 259 708 239 770 239 c 2
 943 239 l 2
 1049 239 1094 293 1119 385 c 1
 1185 385 l 1
 1185 375 l 1
 1165 252 1101 179 939 179 c 2
 767 179 l 2
 696 179 652 195 633 228 c 1
 615 202 589 179 541 179 c 3
 487 179 435 209 424 261 c 1
 472 335 l 17xc330
283 119 m 1
 329 164 l 1
 431 100 470 55 470 -23 c 3
 470 -81 432 -137 392 -172 c 1
 309 -172 l 1
 309 -162 l 1
 350 -133 402 -76 402 -28 c 3x83b0
 402 30 370 70 283 119 c 1
805 476 m 3x9330
 914 476 993 371 1042 234 c 1
 975 227 l 1
 930 350 866 416 803 416 c 3
 729 416 687 348 665 282 c 1
 615 302 l 1
 652 401 712 476 805 476 c 3x9330
300 530 m 1x8b30
 300 602 l 1
 366 602 l 1
 366 530 l 1
 300 530 l 1x8b30
607 697 m 1
 671 705 l 1
 683 607 791 488 871 461 c 1
 843 409 l 1xa330
 736 445 622 573 607 697 c 1
347 476 m 0x9370
 428 476 480 418 480 345 c 3
 480 154 295 125 295 3 c 3
 295 -64 355 -90 374 -118 c 1
 329 -162 l 1
 289 -122 229 -80 229 0 c 3
 229 166 414 197 414 340 c 3
 414 389 386 416 340 416 c 0
 223 416 200 179 0 179 c 1
 -30 209 l 1
 0 239 l 1
 143 239 177 476 347 476 c 0x9370
EndSplineSet
EndChar
StartChar: glyph127.init
Encoding: 65608 -1 146
Width: 990
Flags: W
HStem: 179 60<404.09 497.671 599.149 885 952 990> 315 419G<369.027 382 516 587> 409 21G<699.5 763.769> 416 60<190.082 306.163> 530 72<210 276> 714 20G<516 587>
VStem: 139 66<-59.2968 68.4182> 210 66<530 602> 312 68<-88.698 42.1561> 324 66<316.811 397.491> 516 66<256.944 734>
AnchorPoint: "below" 560 120 basechar 0
AnchorPoint: "above" 243 655 basechar 0
LayerCount: 2
Fore
SplineSet
193 119 m 5x83a0
 239 164 l 5
 341 100 380 55 380 -23 c 7
 380 -81 342 -137 302 -172 c 5
 219 -172 l 5
 219 -162 l 5
 260 -133 312 -76 312 -28 c 7
 312 30 280 70 193 119 c 5x83a0
324 340 m 7x9360
 324 389 296 416 250 416 c 7
 184 416 125 336 60 236 c 5
 50 236 l 5
 50 333 l 5
 105 409 166 476 257 476 c 7
 338 476 390 418 390 345 c 7
 390 154 205 125 205 3 c 7
 205 -64 265 -90 284 -118 c 5
 239 -162 l 5
 199 -122 139 -80 139 0 c 7
 139 166 324 197 324 340 c 7x9360
715 476 m 3
 824 476 903 371 952 234 c 1
 885 227 l 1
 840 350 776 416 713 416 c 3
 639 416 597 348 575 282 c 1
 525 302 l 1
 562 401 622 476 715 476 c 3
677 179 m 2
 606 179 562 195 543 228 c 1
 525 202 499 179 451 179 c 3
 397 179 345 209 334 261 c 1
 382 335 l 17
 382 262 419 239 455 239 c 3
 492 239 516 278 516 313 c 2
 516 734 l 1
 582 734 l 1xc320
 582 299 l 2
 582 259 618 239 680 239 c 2
 990 239 l 1
 1020 209 l 25
 990 179 l 1
 677 179 l 2
210 530 m 1x8b20
 210 602 l 1
 276 602 l 1
 276 530 l 1
 210 530 l 1x8b20
517 697 m 1
 581 705 l 1
 593 607 701 488 781 461 c 1
 753 409 l 1xa320
 646 445 532 573 517 697 c 1
EndSplineSet
EndChar
StartChar: glyph127.medi
Encoding: 65609 -1 147
Width: 1080
Flags: W
HStem: 179 60<0 67.2324 494.09 587.671 689.149 975 1042 1080> 315 419G<459.027 472 606 677> 409 21G<789.5 853.769> 416 60<282.492 396.163> 530 72<300 366> 714 20G<606 677>
VStem: 229 66<-59.2968 68.4182> 300 66<530 602> 402 68<-88.698 42.1561> 414 66<316.811 397.491> 606 66<256.944 734>
AnchorPoint: "above" 333 655 basechar 0
AnchorPoint: "below" 650 120 basechar 0
LayerCount: 2
Fore
SplineSet
283 119 m 1x83a0
 329 164 l 1
 431 100 470 55 470 -23 c 3
 470 -81 432 -137 392 -172 c 1
 309 -172 l 1
 309 -162 l 1
 350 -133 402 -76 402 -28 c 3
 402 30 370 70 283 119 c 1x83a0
805 476 m 3x9320
 914 476 993 371 1042 234 c 1
 975 227 l 1
 930 350 866 416 803 416 c 3
 729 416 687 348 665 282 c 1
 615 302 l 1
 652 401 712 476 805 476 c 3x9320
767 179 m 2
 696 179 652 195 633 228 c 1
 615 202 589 179 541 179 c 3
 487 179 435 209 424 261 c 1
 472 335 l 17
 472 262 509 239 545 239 c 3
 582 239 606 278 606 313 c 2
 606 734 l 1
 672 734 l 1xc320
 672 299 l 2
 672 259 708 239 770 239 c 2
 1080 239 l 1
 1110 209 l 25
 1080 179 l 1
 767 179 l 2
300 530 m 1x8b20
 300 602 l 1
 366 602 l 1
 366 530 l 1
 300 530 l 1x8b20
607 697 m 1
 671 705 l 1
 683 607 791 488 871 461 c 1
 843 409 l 1xa320
 736 445 622 573 607 697 c 1
347 476 m 4x9360
 428 476 480 418 480 345 c 7
 480 154 295 125 295 3 c 7
 295 -64 355 -90 374 -118 c 5
 329 -162 l 5
 289 -122 229 -80 229 0 c 7
 229 166 414 197 414 340 c 7
 414 389 386 416 340 416 c 4
 223 416 200 179 0 179 c 5
 -30 209 l 5
 0 239 l 5
 143 239 177 476 347 476 c 4x9360
EndSplineSet
EndChar
StartChar: h.fina
Encoding: 65559 -1 97
Width: 820
Flags: W
HStem: 0 60<466.34 639.116> 179 60<0 67.2324> 416 60<282.492 396.163> 714 20G<560.223 649> 714 20G<560.223 649>
VStem: 229 66<-59.2968 68.4182> 402 68<-88.698 24.1141> 414 66<265.507 397.491> 523.794 66<471.528 668.795> 689 66<109.68 273.407>
AnchorPoint: "above" 330 506 basechar 0
AnchorPoint: "below" 645 -66 basechar 0
LayerCount: 2
Fore
SplineSet
283 119 m 1xe6c0
 329 164 l 1
 431 100 470 55 470 -23 c 3
 470 -81 432 -137 392 -172 c 1
 309 -172 l 1
 309 -162 l 1
 350 -133 402 -76 402 -28 c 3
 402 30 370 70 283 119 c 1xe6c0
649 724 m 1
 605.793945312 673 589.793945312 628 589.793945312 570 c 3
 589.793945312 393.993164062 755 361.00390625 755 192 c 3
 755 77.8447265625 686 0 567 0 c 3
 485.883789062 0 424.26171875 31.2451171875 328 92.1484375 c 1
 379 129.017578125 l 1
 429.146484375 88.595703125 507.239257812 60 560 60 c 3
 639 60 689 105.943359375 689 192 c 3
 689 333.004882812 523.793945312 369 523.793945312 567 c 3
 523.793945312 627 539.651367188 683 580.793945312 734 c 1
 649 734 l 1xf4c0
 649 724 l 1
347 476 m 0
 428 476 480 418 480 345 c 3
 480 154 295 125 295 3 c 3
 295 -64 355 -90 374 -118 c 1
 329 -162 l 1
 289 -122 229 -80 229 0 c 3
 229 166 414 197 414 340 c 3xe5c0
 414 389 386 416 340 416 c 0
 223 416 200 179 0 179 c 1
 -30 209 l 1
 0 239 l 1
 143 239 177 476 347 476 c 0
EndSplineSet
EndChar
StartChar: h.init
Encoding: 65557 -1 95
Width: 810
Flags: W
HStem: 0 60<376.34 549.116> 179 60<626 810> 416 60<190.082 306.163> 714 20G<470.223 559> 714 20G<470.223 559>
VStem: 139 66<-59.2968 68.4182> 312 68<-88.698 24.1141> 324 66<265.507 397.491> 433.794 66<471.528 668.795> 626 39<179 239>
AnchorPoint: "below" 565 -66 basechar 0
AnchorPoint: "above" 250 506 basechar 0
LayerCount: 2
Fore
SplineSet
193 119 m 5xe6c0
 239 164 l 5
 341 100 380 55 380 -23 c 7
 380 -81 342 -137 302 -172 c 5
 219 -172 l 5
 219 -162 l 5
 260 -133 312 -76 312 -28 c 7
 312 30 280 70 193 119 c 5xe6c0
324 340 m 7xe5c0
 324 389 296 416 250 416 c 7
 184 416 125 336 60 236 c 5
 50 236 l 5
 50 333 l 5
 105 409 166 476 257 476 c 7
 338 476 390 418 390 345 c 7
 390 154 205 125 205 3 c 7
 205 -64 265 -90 284 -118 c 5
 239 -162 l 5
 199 -122 139 -80 139 0 c 7
 139 166 324 197 324 340 c 7xe5c0
559 724 m 5
 515.793945312 673 499.793945312 628 499.793945312 570 c 7
 499.793945312 393.993164062 665 361.00390625 665 192 c 7
 665 77.8447265625 596 0 477 0 c 7
 395.883789062 0 334.26171875 31.2451171875 238 92.1484375 c 5
 289 129.017578125 l 5
 339.146484375 88.595703125 417.239257812 60 470 60 c 7
 549 60 599 105.943359375 599 192 c 7
 599 333.004882812 433.793945312 369 433.793945312 567 c 7
 433.793945312 627 449.651367188 683 490.793945312 734 c 5
 559 734 l 5xf4c0
 559 724 l 5
626 179 m 5
 624 239 l 5
 810 239 l 5
 840 209 l 5
 810 179 l 5
 626 179 l 5
EndSplineSet
EndChar
StartChar: i.fina
Encoding: 65562 -1 100
Width: 690
Flags: W
HStem: -234 58<520.203 569> 60 60<297.332 382.595> 179 60<0 74.5494 255.038 507.452> 365 20G<141.5 222 576.5 655> 365 20G<141.5 222 576.5 655>
VStem: 147 75<313.261 385> 225 66<-40.6374 54.4955> 589 66<326.642 385>
AnchorPoint: "above" 185 446 basechar 0
AnchorPoint: "below" 335 -116 basechar 0
LayerCount: 2
Back
SplineSet
447 88 m 5
 446 9 l 5
 436 9 l 5
 412 45 389 60 364 60 c 7
 337.965820312 60 321 43 321 11 c 7
 321 -46 376 -83 599 -176 c 5
 599 -234 l 5
 589 -234 l 5
 302 -120 255 -60.0068359375 255 14 c 7
 255 80 301 120 365 120 c 7
 398.112304688 120 428 109 447 88 c 5
195 306 m 3
 195 332 196 347 199 385 c 1
 267 385 l 1
 267 375 l 1
 263 350 261 333 261 311 c 3
 261 259 293.9921875 233 382 233 c 3
 500 233 561 270 592 385 c 1
 658 385 l 1
 658 375 l 1
 622 231 538 173 380 173 c 3
 253 173 195 216 195 306 c 3
EndSplineSet
Fore
SplineSet
417 88 m 1xe7
 416 9 l 1
 406 9 l 1
 382 45 359 60 334 60 c 3
 307.965820312 60 291 43 291 11 c 3
 291 -46 346 -83 569 -176 c 1
 569 -234 l 1
 559 -234 l 1
 272 -120 225 -60.0068359375 225 14 c 3
 225 80 271 120 335 120 c 3
 368.112304688 120 398 109 417 88 c 1xe7
413 238 m 2
 519 238 564 293 589 385 c 1
 655 385 l 1
 655 375 l 1
 635 252 571 178 409 178 c 2
 330 179 l 1
 234 179 188 209 173 274 c 1
 146 211 83 179 0 179 c 0
 -30 209 l 1
 0 239 l 0
 64 239 136 285 147 385 c 1
 222 385 l 1xf7
 222 343 l 1
 222 265 266 239 339 239 c 1
 413 238 l 2
EndSplineSet
EndChar
StartChar: i.init
Encoding: 65560 -1 98
Width: 220
Flags: W
HStem: -234 58<300.203 349> 60 60<77.3318 162.595> 179 60<144.281 219> 365 20G<68 138> 365 20G<68 138>
VStem: 5 66<-40.6374 54.4955> 65 66<253.215 385>
AnchorPoint: "above" 125 446 basechar 0
AnchorPoint: "below" 115 -116 basechar 0
LayerCount: 2
Fore
SplineSet
197 88 m 1xe4
 196 9 l 1
 186 9 l 1
 162 45 139 60 114 60 c 3
 87.9658203125 60 71 43 71 11 c 3
 71 -46 126 -83 349 -176 c 1
 349 -234 l 1
 339 -234 l 1
 52 -120 5 -60.0068359375 5 14 c 3
 5 80 51 120 115 120 c 3
 148.112304688 120 178 109 197 88 c 1xe4
220 179 m 25
 204 179 l 1
 106 179 65 225 65 296 c 0
 65 329 66 347 70 385 c 1
 138 385 l 1
 138 375 l 1
 132 340 131 323 131 301 c 0xf2
 131 258 161 239 208 239 c 1
 219 239 l 25
 250 209 l 25
 220 179 l 25
EndSplineSet
EndChar
StartChar: i.mark
Encoding: 65616 -1 157
Width: 0
Flags: W
HStem: -234 58<160.203 209> 60 60<-62.6682 22.5951>
VStem: -135 66<-40.6374 54.4955>
AnchorPoint: "below" 0 120 mark 0
LayerCount: 2
Fore
SplineSet
57 88 m 1
 56 9 l 1
 46 9 l 1
 22 45 -1 60 -26 60 c 3
 -52.0341796875 60 -69 43 -69 11 c 3
 -69 -46 -14 -83 209 -176 c 1
 209 -234 l 1
 199 -234 l 1
 -88 -120 -135 -60.0068359375 -135 14 c 3
 -135 80 -89 120 -25 120 c 3
 8.1123046875 120 38 109 57 88 c 1
EndSplineSet
EndChar
StartChar: i.medi
Encoding: 65561 -1 99
Width: 370
Flags: W
HStem: -234 58<350.203 399> 60 60<127.332 212.595> 179 60<0 74.5494 258.054 370> 365 20G<141.5 222> 365 20G<141.5 222>
VStem: 55 66<-40.6374 54.4955> 147 75<314.127 385>
AnchorPoint: "above" 195 446 basechar 0
AnchorPoint: "below" 175 -116 basechar 0
LayerCount: 2
Fore
SplineSet
247 88 m 1xe6
 246 9 l 1
 236 9 l 1
 212 45 189 60 164 60 c 3
 137.965820312 60 121 43 121 11 c 3
 121 -46 176 -83 399 -176 c 1
 399 -234 l 1
 389 -234 l 1
 102 -120 55 -60.0068359375 55 14 c 3
 55 80 101 120 165 120 c 3
 198.112304688 120 228 109 247 88 c 1xe6
370 239 m 1
 400 209 l 1
 370 179 l 1
 254 179 190 203.339121943 173 274 c 1
 146 210.799804688 83 179 0 179 c 0
 -30 209 l 1
 0 239 l 0
 64 239 136 285 147 385 c 1
 222 385 l 1xf6
 222 343 l 1
 222 258 275 239 370 239 c 1
EndSplineSet
EndChar
StartChar: l.fina
Encoding: 65565 -1 103
Width: 960
Flags: W
HStem: -168 67<521.243 567.054> 0 60<340.521 588.773> 179 60<0 74.5494 262.441 487> 179 42<337.688 431> 714 20G<141.5 222 468 538 695.397 794> 714 20G<141.5 222 468 538 695.397 794>
VStem: 147 75<313.261 385> 256 66<79.7855 158.354> 344 66<483.716 588.58> 472 66<-178 -168 -101 179 239 682 726 734> 472 15<179 239> 629.794 66<497.195 641.161> 668 66<122.618 252.978> 829 66<99.0825 290.796>
AnchorPoint: "below" 247 0 basechar 0
AnchorPoint: "above" 191 446 basechar 0
LayerCount: 2
Fore
SplineSet
794 724 m 1xcbd4
 739 681 695.793945312 628 695.793945312 565 c 3
 695.793945312 438.848632812 895 409.018554688 895 193 c 3
 895 -47.107421875 664 -82 538 -168 c 5
 521.243164062 -168 438.856445312 -101 533 -101 c 5
 626 -38 829 4.9892578125 829 193 c 3
 829 389.004882812 629.793945312 399 629.793945312 564 c 3
 629.793945312 640 670 693 720.793945312 734 c 1
 794 734 l 1
 794 724 l 1xcbd4
431 221 m 1xd38c
 447 180 l 1
 364 180 322 160.84375 322 116 c 3
 322 74.5888671875 375.845703125 60 454 60 c 3
 607.499023438 60 668 114.305664062 668 189 c 3
 668 351.05859375 344 353.997070312 344 532 c 3
 344 626.220703125 453 683 483 726 c 1
 529 682 l 1
 495 644 410 598.166015625 410 532 c 3
 410 408 734 400.017578125 734 189 c 3
 734 90.150390625 656.885742188 0 450 0 c 3
 315.216796875 0 256 53.724609375 256 116 c 3
 256 193.373046875 337.6875 221 431 221 c 1xd38c
393 239 m 1xe3a4
 487 239 l 1
 487 179 l 1
 387 179 l 1
 246 179 188 209 173 274 c 1
 146 211 83 179 0 179 c 0
 -30 209 l 1
 0 239 l 0
 64 239 136 285 147 385 c 1
 222 385 l 1
 222 343 l 1
 222 265 266 239 393 239 c 1xe3a4
472 734 m 1xcbc4
 538 734 l 1
 538 -178 l 1
 472 -178 l 1
 472 734 l 1xcbc4
EndSplineSet
EndChar
StartChar: l.init
Encoding: 65563 -1 101
Width: 930
Flags: W
HStem: -168 67<431.243 477.054> 0 60<250.521 498.773> 179 60<155.67 397 746 930> 179 42<247.688 341> 714 20G<67 136 378 448 605.397 704> 714 20G<67 136 378 448 605.397 704>
VStem: 65 66<264.27 385> 166 66<79.7855 158.354> 254 66<483.716 588.58> 382 66<-178 -168 -101 179 239 682 726 734> 382 15<179 239> 539.794 66<497.195 641.161> 578 66<122.618 252.978> 746 59<113.47 273.214>
AnchorPoint: "below" 157 0 basechar 0
AnchorPoint: "above" 105 446 basechar 0
LayerCount: 2
Fore
SplineSet
746 179 m 5xe384
 744 239 l 5
 930 239 l 5
 960 209 l 5
 930 179 l 5
 746 179 l 5xe384
704 724 m 1
 649 681 605.793945312 628 605.793945312 565 c 3
 605.793945312 438.848632812 805 409.018554688 805 193 c 3
 805 -47.107421875 574 -82 448 -168 c 1
 431.243164062 -168 348.856445312 -101 443 -101 c 1
 536 -38 739 4.9892578125 739 193 c 3
 739 389.004882812 539.793945312 399 539.793945312 564 c 3
 539.793945312 640 580 693 630.793945312 734 c 1
 704 734 l 1xcbd4
 704 724 l 1
341 221 m 1xd38c
 357 180 l 1
 274 180 232 160.84375 232 116 c 3
 232 74.5888671875 285.845703125 60 364 60 c 3
 517.499023438 60 578 114.305664062 578 189 c 3
 578 351.05859375 254 353.997070312 254 532 c 3
 254 626.220703125 363 683 393 726 c 1
 439 682 l 1
 405 644 320 598.166015625 320 532 c 3
 320 408 644 400.017578125 644 189 c 3
 644 90.150390625 566.885742188 0 360 0 c 3
 225.216796875 0 166 53.724609375 166 116 c 3
 166 193.373046875 247.6875 221 341 221 c 1xd38c
297 179 m 0xe3a4
 173.37109375 179 65 200.336914062 65 308 c 0
 65 335 66 362 68 385 c 1
 136 385 l 1
 136 375 l 1
 133 355 131 341 131 321 c 0
 131 243.715820312 189.76953125 239 303 239 c 0
 397 239 l 25
 397 179 l 25
 297 179 l 0xe3a4
382 734 m 1xcbc4
 448 734 l 1
 448 -178 l 1
 382 -178 l 1
 382 734 l 1xcbc4
EndSplineSet
EndChar
StartChar: longconsonant.fina
Encoding: 65626 -1 167
Width: 830
Flags: W
HStem: 179 60<0 74.1658 188.27 295.253 483.399 662.581> 365 20G<736.5 815> 365 20G<103.582 122.582 335.969 386 736.5 815> 416 60<219.31 318.036> 538 72<135 201 315 381> 672 72<224 290>
VStem: 135 66<538 610> 224 66<672 744> 315 66<538 610> 749 66<331.264 385>
LayerCount: 2
Fore
SplineSet
570 239 m 3xdfc0
 666 239 724 293 749 385 c 1
 815 385 l 1
 815 375 l 1
 785 252 722 179 570 179 c 3
 452 179 388.945367584 236.000021323 354.861328125 324.049804688 c 0
 329.33203125 390 310.973632812 416 274 416 c 3
 228.9375 416 178 370.006835938 178 300 c 3
 178 253.983398438 204.98046875 233 241 233 c 3
 288.018554688 233 320.9375 283 351 359 c 1
 400 331 l 1
 358.106445312 224 307 173 238 173 c 3
 156 173 112 221.443359375 112 289 c 3
 112 400.044921875 188.887695312 476 279 476 c 3
 348 476 385.377243949 426.000112578 417.138671875 343.950195312 c 0
 440.732421875 283 487.919921875 239 570 239 c 3xdfc0
135 538 m 25
 135 610 l 25
 201 610 l 25
 201 538 l 25
 135 538 l 25
315 538 m 25
 315 610 l 25
 381 610 l 25
 381 538 l 25
 315 538 l 25
224 672 m 25
 224 744 l 25
 290 744 l 25
 290 672 l 25
 224 672 l 25
0 179 m 1
 -30 209 l 1
 0 239 l 1
 48 239 92 258 115.163085938 319.109375 c 1
 130 304 151.708007812 294.177734375 169.836914062 285.890625 c 1
 128 212 78 179 0 179 c 1
EndSplineSet
EndChar
StartChar: longconsonant
Encoding: 65623 -1 164
Width: 780
Flags: W
HStem: 173 60<141.922 239.838 445.127 597.751> 365 20G<686.5 765> 365 20G<285.969 336 686.5 765> 416 60<169.31 268.036> 538 72<85 151 265 331> 672 72<174 240>
VStem: 62 66<246.552 372.708> 85 66<538 610> 174 66<672 744> 265 66<538 610> 699 66<331.264 385>
LayerCount: 2
Fore
SplineSet
520 239 m 3xdee0
 616 239 674 293 699 385 c 1
 765 385 l 1
 765 375 l 1
 735 252 672 179 520 179 c 3
 402 179 338.9453125 236 304.861328125 324.049804688 c 0
 279.33203125 390 260.973632812 416 224 416 c 3
 178.9375 416 128 370.006835938 128 300 c 3
 128 253.983398438 154.98046875 233 191 233 c 3
 238.018554688 233 270.9375 283 301 359 c 1
 350 331 l 1
 308.106445312 224 257 173 188 173 c 3
 106 173 62 221.443359375 62 289 c 3
 62 400.044921875 138.887695312 476 229 476 c 3
 298 476 335.376953125 426 367.138671875 343.950195312 c 0
 390.732421875 283 437.919921875 239 520 239 c 3xdee0
85 538 m 25x9de0
 85 610 l 25
 151 610 l 25
 151 538 l 25
 85 538 l 25x9de0
265 538 m 25
 265 610 l 25
 331 610 l 25
 331 538 l 25
 265 538 l 25
174 672 m 25
 174 744 l 25
 240 744 l 25
 240 672 l 25
 174 672 l 25
EndSplineSet
Substitution2: "fina-1" longconsonant.fina
Substitution2: "medi-1" longconsonant.medi
Substitution2: "init-1" longconsonant.init
EndChar
StartChar: longconsonant.init
Encoding: 65624 -1 165
Width: 490
Flags: W
HStem: 173 60<141.922 239.838 432.19 490> 339 20G<285.969 336> 416 60<169.31 268.036> 538 72<85 151 265 331> 672 72<174 240>
VStem: 62 66<246.552 372.708> 85 66<538 610> 174 66<672 744> 265 66<538 610>
LayerCount: 2
Back
SplineSet
522 173 m 7xe3e0
 427 173 342.848663104 223 299.861328125 334.049804688 c 4
 278.203029897 390 260.973632812 416 224 416 c 7
 178.9375 416 126 370.006835938 126 300 c 7
 126 253.983398438 154.98046875 233 191 233 c 7
 238.018554688 233 270.9375 283 301 359 c 5
 350 331 l 5
 308.106445312 224 261 173 184 173 c 7
 107 173 60 220.443359375 60 293 c 7
 60 394.044921875 135.887695312 476 224 476 c 7xcbe0
 293 476 328.734375 435 362.138671875 353.950195312 c 4
 396.514648438 270.541015625 458 233 522 233 c 7
 576 233 602 267.991210938 602 304 c 7
 602 396 458 434 458 563 c 7
 458 627 500 697 543 734 c 5
 622 734 l 5
 622 724 l 5
 567.97265625 685 524 619 524 559 c 7
 524 446 668 421 668 307 c 7
 668 230 614 173 522 173 c 7xe3e0
EndSplineSet
Fore
SplineSet
85 538 m 25xfb80
 85 610 l 25
 151 610 l 25
 151 538 l 25
 85 538 l 25xfb80
265 538 m 25
 265 610 l 25
 331 610 l 25
 331 538 l 25
 265 538 l 25
174 672 m 25
 174 744 l 25
 240 744 l 25
 240 672 l 25
 174 672 l 25
62 289 m 3xfd80
 62 400.044921875 138.887695312 476 229 476 c 3
 298 476 335.376953125 426 367.138671875 343.950195312 c 0
 390.732421875 283 427.919921875 239 490 239 c 5
 520 209 l 5
 490 179 l 5
 392 179 338.9453125 236 304.861328125 324.049804688 c 0
 279.33203125 390 260.973632812 416 224 416 c 3
 178.9375 416 128 370.006835938 128 300 c 3
 128 253.983398438 154.98046875 233 191 233 c 3
 238.018554688 233 270.9375 283 301 359 c 1
 350 331 l 1
 308.106445312 224 257 173 188 173 c 3
 106 173 62 221.443359375 62 289 c 3xfd80
EndSplineSet
EndChar
StartChar: longconsonant.medi
Encoding: 65625 -1 166
Width: 540
Flags: W
HStem: 173 60<0 65.0212 191.922 289.838 482.19 540> 319.109 19.8906G<103.582 122.582 335.969 386> 416 60<219.31 318.036> 538 72<135 201 315 381> 672 72<224 290>
VStem: 135 66<538 610> 224 66<672 744> 315 66<538 610>
LayerCount: 2
Fore
SplineSet
135 538 m 25
 135 610 l 25
 201 610 l 25
 201 538 l 25
 135 538 l 25
315 538 m 25
 315 610 l 25
 381 610 l 25
 381 538 l 25
 315 538 l 25
224 672 m 25
 224 744 l 25
 290 744 l 25
 290 672 l 25
 224 672 l 25
112 289 m 3
 112 400.044921875 188.887695312 476 279 476 c 3
 348 476 385.376953125 426 417.138671875 343.950195312 c 0
 440.732421875 283 477.919921875 239 540 239 c 1
 570 209 l 1
 540 179 l 1
 442 179 388.9453125 236 354.861328125 324.049804688 c 0
 329.33203125 390 310.973632812 416 274 416 c 3
 228.9375 416 178 370.006835938 178 300 c 3
 178 253.983398438 204.98046875 233 241 233 c 3
 288.018554688 233 320.9375 283 351 359 c 1
 400 331 l 1
 358.106445312 224 307 173 238 173 c 3
 156 173 112 221.443359375 112 289 c 3
0 179 m 1
 -30 209 l 1
 0 239 l 1
 48 239 92 258 115.163085938 319.109375 c 1
 130 304 151.708007812 294.177734375 169.836914062 285.890625 c 1
 128 212 78 179 0 179 c 1
EndSplineSet
EndChar
StartChar: longvowel.fina
Encoding: 65622 -1 163
Width: 850
Flags: W
HStem: 179 60<0 77.2013 253.046 364.504 522.938 730> 365 20G<151.5 232> 365 20G<151.5 232 461 521> 416 60<562.812 693.116>
VStem: 157 75<318.721 385> 513 68<-172 -73.4557> 730 66<218.275 380.349>
LayerCount: 2
Fore
SplineSet
303 179 m 1xde
 237 179 194 203.338867188 183 274 c 1
 156 210.799804688 83 179 0 179 c 0
 -30 209 l 1
 0 239 l 0
 64 239 146 285 157 385 c 1
 232 385 l 1
 232 343 l 1
 232 274 257 239 299 239 c 1
 437 239 440 476 626 476 c 0
 741 476 796 393 796 321 c 3
 796 242 786.51953125 217.9765625 708 103 c 0
 594.635742188 -63 581 -109 581 -172 c 1
 513 -172 l 1
 513 -162 l 1
 513 -90 540.837890625 -34 658 136 c 0
 716.579101562 220.997070312 730 265 730 316 c 3
 730 372 694 416 619 416 c 0
 500 416 487 179 303 179 c 1xde
507 295 m 0
 507 250 564 239 608 239 c 2
 730 239 l 1
 760 209 l 1
 730 179 l 1
 603 179 l 2
 524 179 448 198 448 280 c 0
 448 310 456 339 466 366 c 1
 521 350 l 1
 510 330 507 316 507 295 c 0
EndSplineSet
EndChar
StartChar: longvowel
Encoding: 65619 -1 160
Width: 700
Flags: W
HStem: 173 60<140.892 233.869 382.044 590> 365 20G<68 138> 365 20G<68 138 317 374> 416 60<413.101 543.116>
VStem: 65 66<243.498 385> 363 68<-172 -73.4557> 580 66<228.176 380.349>
LayerCount: 2
Fore
SplineSet
184 173 m 5xde
 106 173 65 221 65 286 c 4
 65 319 66 347 70 385 c 5
 138 385 l 5
 138 375 l 5
 132 340 131 321 131 291 c 4
 131 257 151 233 188 233 c 5
 284 233 308 476 476 476 c 4
 591 476 646 393 646 321 c 7
 646 242 636.51953125 217.9765625 558 103 c 4
 444.635742188 -63 431 -109 431 -172 c 5
 363 -172 l 5
 363 -162 l 5
 363 -90 390.837890625 -34 508 136 c 4
 566.579101562 220.997070312 580 265 580 316 c 7
 580 372 544 416 469 416 c 4
 352 416 346 173 184 173 c 5xde
357 295 m 4
 357 250 414 239 458 239 c 6
 590 239 l 5
 620 209 l 5
 590 179 l 5
 453 179 l 6
 374 179 298 198 298 280 c 4
 298 310 312 337 322 364 c 5
 374 346 l 5
 363 326 357 316 357 295 c 4
EndSplineSet
Substitution2: "fina-1" longvowel.fina
Substitution2: "medi-1" longvowel.medi
Substitution2: "init-1" longvowel.init
EndChar
StartChar: longvowel.init
Encoding: 65620 -1 161
Width: 700
Flags: W
HStem: 173 60<140.892 233.869 382.044 700> 344 41G<68 138 317 374> 365 20G<68 138> 416 60<413.101 543.116>
VStem: 65 66<243.498 385> 363 68<-172 -73.4557> 580 66<240.387 380.349>
LayerCount: 2
Fore
SplineSet
357 295 m 0x9e
 357 250 414 239 458 239 c 2
 700 239 l 1
 730 209 l 1
 700 179 l 1
 453 179 l 2
 374 179 298 198 298 280 c 0
 298 310 312 337 322 364 c 1
 374 346 l 1
 363 326 357 316 357 295 c 0x9e
184 173 m 1
 106 173 65 221 65 286 c 0
 65 319 66 347 70 385 c 1
 138 385 l 1xde
 138 375 l 1
 132 340 131 321 131 291 c 0
 131 257 151 233 188 233 c 1
 284 233 308 476 476 476 c 0
 591 476 646 393 646 321 c 3
 646 242 636.51953125 217.9765625 558 103 c 0
 444.635742188 -63 431 -109 431 -172 c 1
 363 -172 l 1
 363 -162 l 1
 363 -90 390.837890625 -34 508 136 c 0
 566.579101562 220.997070312 580 265 580 316 c 3
 580 372 544 416 469 416 c 0
 352 416 346 173 184 173 c 1
EndSplineSet
EndChar
StartChar: m.init
Encoding: 65566 -1 104
Width: 820
Flags: W
HStem: 48 72<151 217> 173 60<140.38 239.905 441.248 585.482 729.237 820> 339 395G<285.969 336 529 683> 365 21G<618.375 643> 416 60<168.928 268.096> 714 20G<529 636>
VStem: 60 66<246.356 372.143> 151 66<48 120> 458 66<493.36 643.186>
AnchorPoint: "below" 187 -6 basechar 0
AnchorPoint: "above" 210 506 basechar 0
LayerCount: 2
Fore
SplineSet
521 173 m 3xe380
 429 173 342.848632812 223 299.861328125 334.049804688 c 0
 278.203125 390 260.973632812 416 224 416 c 3
 178.9375 416 126 370.006835938 126 300 c 3
 126 253.983398438 154.98046875 233 191 233 c 3
 238.018554688 233 270.9375 283 301 359 c 1
 350 331 l 1
 308.106445312 224 261 173 184 173 c 3
 107 173 60 220.443359375 60 293 c 3
 60 394.044921875 135.887695312 476 224 476 c 3xcb80
 293 476 328.734375 435 362.138671875 353.950195312 c 0
 396.514648438 270.541015625 457 233 521 233 c 3
 575 233 608 264.991210938 608 304 c 3
 608 380.026367188 458 438 458 562 c 3
 458 637.03125 505 700 553 734 c 1
 636 734 l 1
 636 724 l 1
 566 683 524 635 524 565 c 3
 524 442 673 421 673 307 c 3
 673 229.987304688 616 173 521 173 c 3xe380
570 720 m 1
 628 720 l 1
 598 683 621 615 680 575 c 1
 680 515 l 1
 632 470 634 408 652 365 c 1xd380
 589.48828125 402.181640625 l 1
 576 444 581 505 617 545 c 1
 564 598 544 647 570 720 c 1
151 48 m 1
 151 120 l 1
 217 120 l 1
 217 48 l 1
 151 48 l 1
606 322 m 1
 669 327 l 1
 697 248 757 240 820 240 c 1
 850 210 l 1
 820 180 l 1
 714 180 635 215 606 322 c 1
EndSplineSet
EndChar
StartChar: m.medi
Encoding: 65567 -1 105
Width: 870
Flags: W
HStem: 48 72<201 267> 173 60<0 65.0212 190.38 289.905 491.248 635.482 779.237 870> 339 395G<103.582 122.582 335.969 386 579 733> 365 21G<668.375 693> 416 60<218.928 318.096> 714 20G<579 686>
VStem: 201 66<48 120> 508 66<493.36 643.186>
AnchorPoint: "below" 237 -6 basechar 0
AnchorPoint: "above" 260 506 basechar 0
LayerCount: 2
Fore
SplineSet
571 173 m 3xe3
 479 173 392.848632812 223 349.861328125 334.049804688 c 0
 328.203125 390 310.973632812 416 274 416 c 3
 228.9375 416 176 370.006835938 176 300 c 3
 176 253.983398438 204.98046875 233 241 233 c 3
 288.018554688 233 320.9375 283 351 359 c 1
 400 331 l 1
 358.106445312 224 311 173 234 173 c 3
 157 173 110 220.443359375 110 293 c 3
 110 394.044921875 185.887695312 476 274 476 c 3xcb
 343 476 378.734375 435 412.138671875 353.950195312 c 0
 446.514648438 270.541015625 507 233 571 233 c 3
 625 233 658 264.991210938 658 304 c 3
 658 380.026367188 508 438 508 562 c 3
 508 637.03125 555 700 603 734 c 1
 686 734 l 1
 686 724 l 1
 616 683 574 635 574 565 c 3
 574 442 723 421 723 307 c 3
 723 229.987304688 666 173 571 173 c 3xe3
620 720 m 1
 678 720 l 1
 648 683 671 615 730 575 c 1
 730 515 l 1
 682 470 684 408 702 365 c 1xd3
 639.48828125 402.181640625 l 1
 626 444 631 505 667 545 c 1
 614 598 594 647 620 720 c 1
0 179 m 1
 -30 209 l 1
 0 239 l 1
 48 239 92 258 115.163085938 319.109375 c 1
 130 304 151.708007812 294.177734375 169.836914062 285.890625 c 1
 128 212 78 179 0 179 c 1
201 48 m 1
 201 120 l 1
 267 120 l 1
 267 48 l 1
 201 48 l 1
656 321 m 1
 719 326 l 1
 747 247 807 239 870 239 c 1
 900 209 l 1
 870 179 l 1
 764 179 685 214 656 321 c 1
EndSplineSet
EndChar
StartChar: n.init
Encoding: 65569 -1 107
Width: 800
Flags: W
HStem: 48 72<81 147 291 357> 173 60<141.472 237.254 405.546 565.482 709.237 800> 365 21G<598.375 623> 385 315G<68 138 282 362 509 663> 385 315G<68 138 282 362 509 616>
VStem: 65 66<243.498 385> 81 66<48 120> 291 66<48 120 307.65 385> 362 291<261 385> 438 66<493.36 643.186>
AnchorPoint: "above" 210 446 basechar 0
AnchorPoint: "below" 218 -6 basechar 0
LayerCount: 2
Fore
SplineSet
550 720 m 5xe1
 608 720 l 5
 578 683 601 615 660 575 c 5
 660 515 l 5
 612 470 614 408 632 365 c 5
 569.48828125 402.181640625 l 5
 556 444 561 505 597 545 c 5
 544 598 524 647 550 720 c 5xe1
501 233 m 7
 555 233 588 264.991210938 588 304 c 7
 588 380.026367188 438 438 438 562 c 7
 438 637.03125 485 700 533 734 c 5
 616 734 l 5
 616 724 l 5
 546 683 504 635 504 565 c 7xd140
 504 442 653 421 653 307 c 7
 653 229.987304688 596 173 501 173 c 7
 402 173 342 208 320 267 c 5
 298 204 244 173 184 173 c 4
 109 173 65 221 65 286 c 4
 65 319 66 347 70 385 c 5
 138 385 l 5
 138 375 l 5
 132 340 131 321 131 291 c 4
 131 257 151 233 188 233 c 4
 238 233 277 290 287 385 c 5
 362 385 l 5
 362 345 l 5xd580
 362 261 418 233 501 233 c 7
586 322 m 1
 649 327 l 1
 677 248 737 240 800 240 c 1
 830 210 l 1
 800 180 l 1
 694 180 615 215 586 322 c 1
291 48 m 1
 291 120 l 1
 357 120 l 1
 357 48 l 1
 291 48 l 1
81 48 m 1xc3
 81 120 l 1
 147 120 l 1
 147 48 l 1
 81 48 l 1xc3
EndSplineSet
EndChar
StartChar: n.medi
Encoding: 65570 -1 108
Width: 910
Flags: W
HStem: 48 72<161 227 401 467> 173 60<0 65.6698 252.18 347.254 515.546 675.482 818.309 910> 365 21G<708.375 733> 385 315G<151.5 232 392 472 619 769> 385 315G<151.5 232 392 472 619 726>
VStem: 161 66<48 120 324.343 385> 401 66<48 120 307.65 385> 548 66<493.36 643.186> 698 65<247.489 354.967>
AnchorPoint: "above" 320 446 basechar 0
AnchorPoint: "below" 308 -6 basechar 0
LayerCount: 2
Fore
SplineSet
660 720 m 1xe780
 718 720 l 1
 688 683 711 615 770 575 c 1
 770 515 l 1
 722 470 724 408 742 365 c 1
 679.48828125 402.181640625 l 1
 666 444 671 505 707 545 c 1
 654 598 634 647 660 720 c 1xe780
692 322 m 1
 755 327 l 1
 783 248 847 240 910 240 c 1
 940 210 l 1
 910 180 l 1
 804 180 721 215 692 322 c 1
611 233 m 3
 665 233 698 264.991210938 698 304 c 3
 698 380.026367188 548 438 548 562 c 3
 548 637.03125 595 700 643 734 c 1
 726 734 l 1
 726 724 l 1
 656 683 614 635 614 565 c 3
 614 442 763 421 763 307 c 3
 763 229.987304688 706 173 611 173 c 3
 512 173 452 208 430 267 c 1
 408 204 354 173 294 173 c 3
 238 173 194 203 183 274 c 1
 156 211 83 179 0 179 c 0
 -30 209 l 1
 0 239 l 0
 64 239 146 285 157 385 c 1
 232 385 l 1
 232 343 l 1
 232 274 252 233 298 233 c 3
 348 233 387 290 397 385 c 1
 472 385 l 1xd780
 472 345 l 1
 472 261 528 233 611 233 c 3
401 48 m 1
 401 120 l 1
 467 120 l 1
 467 48 l 1
 401 48 l 1
161 48 m 1
 161 120 l 1
 227 120 l 1
 227 48 l 1
 161 48 l 1
EndSplineSet
EndChar
StartChar: o.init
Encoding: 65572 -1 110
Width: 700
Flags: W
HStem: 173 60<140.892 233.869 382.044 700> 344 41G<68 138 317 374> 365 20G<68 138> 416 60<413.101 543.116> 686 21G<240.756 263> 686 21G<240.756 263> 740 60<277.972 359.881>
VStem: 65 66<243.498 385> 366 66<-172 -69.657 621.131 734.5> 580 66<240.387 380.349>
LayerCount: 2
Fore
SplineSet
240 768 m 1x9bc0
 261 787 296 800 327 800 c 3
 387 800 432 764 432 696 c 3
 432 606 352 530 198 416 c 1
 188 416 l 1
 188 471 l 1
 302 558 366 621 366 691 c 3
 366 723 349 740 323 740 c 3
 302 740 275 722 251 686 c 1
 241 686 l 1
 240 768 l 1x9bc0
357 295 m 4
 357 250 414 239 458 239 c 6
 700 239 l 1
 730 209 l 1
 700 179 l 1
 453 179 l 6
 374 179 298 198 298 280 c 4
 298 310 312 337 322 364 c 5
 374 346 l 5
 363 326 357 316 357 295 c 4
184 173 m 1
 106 173 65 221 65 286 c 0
 65 319 66 347 70 385 c 1
 138 385 l 1xd3c0
 138 375 l 1
 132 340 131 321 131 291 c 0
 131 257 151 233 188 233 c 1
 284 233 308 476 476 476 c 0
 591 476 646 393 646 321 c 3
 646 242 636.51953125 217.9765625 558 103 c 0
 444.635742188 -63 431 -109 431 -172 c 1
 363 -172 l 1
 363 -162 l 1
 363 -90 390.837890625 -34 508 136 c 0
 566.579101562 220.997070312 580 265 580 316 c 3
 580 372 544 416 469 416 c 0
 352 416 346 173 184 173 c 1
EndSplineSet
EndChar
StartChar: o.mark
Encoding: 65617 -1 158
Width: 0
Flags: W
HStem: 446 61<-88.3478 43.7451> 642 68<-99 -48.9004> 672 60<-79.1483 41.5656>
VStem: 61 66<524.377 652.965>
AnchorPoint: "above" 0 446 mark 0
LayerCount: 2
Fore
SplineSet
-100 710 m 1xd0
 -79 724 -34 732 -5 732 c 3
 69.0234375 732 127 688 127 593 c 3
 127 486.875 68 446 2 446 c 3
 -34 446 -69 450 -100 469 c 1
 -100 530 l 1
 -90 530 l 1
 -58 511 -29 507 -3 507 c 3
 39 507 61 540 61 591 c 3
 61 649 27 672 -5 672 c 3xb0
 -26 672 -65 664 -89 642 c 1
 -99 642 l 1
 -100 710 l 1xd0
EndSplineSet
EndChar
StartChar: o.medi
Encoding: 65573 -1 111
Width: 850
Flags: W
HStem: 179 60<0 77.2013 253.046 364.504 522.938 850> 365 20G<151.5 232> 365 20G<151.5 232 461 521> 416 60<562.812 693.116> 686 21G<350.756 373> 686 21G<350.756 373> 740 60<387.972 469.881>
VStem: 157 75<318.721 385> 476 66<621.131 734.5> 513 68<-172 -73.4557> 730 66<240.387 380.349>
LayerCount: 2
Fore
SplineSet
350 768 m 1x9ba0
 371 787 406 800 437 800 c 3
 497 800 542 764 542 696 c 3
 542 606 462 530 308 416 c 1
 298 416 l 1
 298 471 l 1
 412 558 476 621 476 691 c 3
 476 723 459 740 433 740 c 3
 412 740 385 722 361 686 c 1
 351 686 l 1
 350 768 l 1x9ba0
303 179 m 1
 237 179 194 203.338867188 183 274 c 1
 156 210.799804688 83 179 0 179 c 0
 -30 209 l 1
 0 239 l 0
 64 239 146 285 157 385 c 1
 232 385 l 1
 232 343 l 1
 232 274 257 239 299 239 c 1
 437 239 440 476 626 476 c 0
 741 476 796 393 796 321 c 3
 796 242 786.51953125 217.9765625 708 103 c 0
 594.635742188 -63 581 -109 581 -172 c 1
 513 -172 l 1
 513 -162 l 1xd360
 513 -90 540.837890625 -34 658 136 c 0
 716.579101562 220.997070312 730 265 730 316 c 3
 730 372 694 416 619 416 c 0
 500 416 487 179 303 179 c 1
507 295 m 4
 507 250 564 239 608 239 c 6
 850 239 l 1
 880 209 l 1
 850 179 l 1
 603 179 l 6
 524 179 448 198 448 280 c 4
 448 310 456 339 466 366 c 5
 521 350 l 5
 510 330 507 316 507 295 c 4
EndSplineSet
EndChar
StartChar: p.fina
Encoding: 65577 -1 115
Width: 770
Flags: W
HStem: -66 60<223.154 428.051> 179 60<0 345> 330 60<179.903 312.102> 385 60<612 664.827> 400 21G<471.739 508.5> 400 21G<471.739 508.5> 530 60<579.655 663.571> 700 20G<457 533> 700 20G<457 533> 724 10<512.135 552>
VStem: 65 66<81.8392 273.405> 345 66<239 272> 361 66<484.743 642.814> 534 66<95.8712 288.477> 669 66<451.234 523.957>
AnchorPoint: "above" 195 446 basechar 0
AnchorPoint: "below" 285 -116 basechar 0
LayerCount: 2
Fore
SplineSet
618 590 m 3xca66
 686.22265625 590 735 550.01171875 735 489 c 3
 735 421.640625 687.786132812 385 622 385 c 2
 612 385 l 1
 612 445 l 1xd266
 654.486328125 445 669 459.774414062 669 488 c 3
 669 519.24609375 644.58984375 530 617 530 c 3
 576 530 521 476 496 400 c 1
 478 465 l 1
 525 536 544.592773438 590 618 590 c 3xca66
516 488 m 0
 495.822272276 462.319255623 500.60546875 430.048828125 490 400 c 1
 448 446 l 1
 463 485 500 536 524 555 c 1
 493 581 442 646 472 720 c 1
 533 720 l 1xcb66
 505 682 540 614 578 594 c 1
 578 560 l 1
 561 529 538 516 516 488 c 0
325 -66 m 3
 164 -66 65 33 65 172 c 3
 65 330 164 390 248 390 c 3
 350 390 397 325 411 272 c 1
 345 239 l 1xe276
 344 289 308 330 245 330 c 3
 189 330 131 290 131 173 c 0
 131 70 196 -6 328 -6 c 3
 457 -6 534 77 534 195 c 3
 534 362 361 411 361 561 c 3
 361 654.004882812 418 707 463 734 c 1
 552 734 l 1
 552 724 l 1
 467 683 427 638.049986119 427 555 c 3xe26e
 427 435 600 381 600 195 c 3
 600 42 497 -66 325 -66 c 3
0 179 m 1
 -30 209 l 1
 0 239 l 1
 345 239 l 1
 363 262 l 1
 411 272 l 1
 411 179 l 1
 0 179 l 1
EndSplineSet
EndChar
StartChar: p.medi
Encoding: 65576 -1 114
Width: 780
Flags: W
HStem: -66 60<223.154 428.051> 179 60<0 345 566 780> 330 60<179.903 312.102> 385 60<612 664.827> 400 21G<471.739 508.5> 400 21G<471.739 508.5> 530 60<579.655 663.571> 700 20G<457 533> 700 20G<457 533> 724 10<512.135 552>
VStem: 65 66<81.8392 273.405> 345 66<239 272> 361 66<484.743 642.814> 566 34<179 239> 669 66<451.234 523.957>
AnchorPoint: "below" 285 -116 basechar 0
AnchorPoint: "above" 195 446 basechar 0
LayerCount: 2
Fore
SplineSet
618 590 m 7xca66
 686.22265625 590 735 550.01171875 735 489 c 7
 735 421.640625 687.786132812 385 622 385 c 6
 612 385 l 5
 612 445 l 5xd266
 654.486328125 445 669 459.774414062 669 488 c 7
 669 519.24609375 644.58984375 530 617 530 c 7
 576 530 521 476 496 400 c 5
 478 465 l 5
 525 536 544.592773438 590 618 590 c 7xca66
516 488 m 4
 495.822272276 462.319255623 500.60546875 430.048828125 490 400 c 5
 448 446 l 5
 463 485 500 536 524 555 c 5
 493 581 442 646 472 720 c 5
 533 720 l 5xcb66
 505 682 540 614 578 594 c 5
 578 560 l 5
 561 529 538 516 516 488 c 4
325 -66 m 7
 164 -66 65 33 65 172 c 7
 65 330 164 390 248 390 c 7
 350 390 397 325 411 272 c 5
 345 239 l 5xe276
 344 289 308 330 245 330 c 7
 189 330 131 290 131 173 c 4
 131 70 196 -6 328 -6 c 7
 457 -6 534 77 534 195 c 7
 534 362 361 411 361 561 c 7
 361 654.004882812 418 707 463 734 c 5
 552 734 l 5
 552 724 l 5
 467 683 427 638.049986119 427 555 c 7xe26e
 427 435 600 381 600 195 c 7
 600 42 497 -66 325 -66 c 7
566 179 m 1
 564 239 l 1
 780 239 l 1
 810 209 l 1
 780 179 l 1
 566 179 l 1
600 195 m 1027
0 179 m 1
 -30 209 l 1
 0 239 l 1
 345 239 l 1
 363 262 l 1
 411 272 l 1
 411 179 l 1
 0 179 l 1
EndSplineSet
EndChar
StartChar: r.fina
Encoding: 65580 -1 118
Width: 940
Flags: W
HStem: 0 60<756.02 858.465> 115 71<787 827.486> 126 60<792.233 858.553> 173 60<0 65.6698 269.789 468.739> 325 21G<402 418 419.927 467> 416 60<518.825 679.089>
VStem: 157 75<318.463 385> 494 66<258.221 325.463> 519 66<-59.2968 68.073> 692 68<-88.698 20.2429> 704 66<261.852 391.477> 861 66<63.2096 123.474>
AnchorPoint: "below" 275 120 basechar 0
AnchorPoint: "above" 195 446 basechar 0
LayerCount: 2
Fore
SplineSet
379 233 m 7x9f10
 456 233 494 265 494 293 c 7
 494 315 477 329 451 329 c 7
 440 329 424 328 412 325 c 5
 402 325 l 5
 402 385 l 5
 424 388 443 390 460 390 c 7
 529 390 560 352 560 296 c 7
 560 220 488 173 377 173 c 7
 268 173 194 203 183 274 c 5
 156 211 83 179 0 179 c 4
 -30 209 l 5
 0 239 l 4
 64 239 146 285 157 385 c 5
 232 385 l 5
 232 343 l 5
 232 274 258 233 379 233 c 7x9f10
822 60 m 7
 847.01953125 60 861 75 861 94 c 7
 861 115 844 126 828 126 c 7xae10
 817 126 808 122 797 115 c 5
 787 115 l 5xce10
 786 180 l 5
 796 184 811 186 833 186 c 7xae10
 888 186 927 150 927 93 c 7
 927 31 889 0 829 0 c 7
 773 0 727 16 636 92 c 5
 662 136 l 5
 742 74 771.83984375 60 822 60 c 7
402 385 m 5
 460 445 536 476 607 476 c 7
 718 476 770 410 770 341 c 7
 770 150 585 125 585 3 c 7
 585 -64 645 -90 664 -118 c 5
 619 -162 l 5
 579 -122 519 -80 519 0 c 7
 519 166 704 193 704 336 c 7x8eb0
 704 378 680 416 600 416 c 7
 555 416 505 397 467 349 c 5
 437 344 l 5
 402 385 l 5
573 119 m 5
 619 164 l 5
 721 100 760 55 760 -23 c 7
 760 -81 722 -137 682 -172 c 5
 599 -172 l 5
 599 -162 l 5
 640 -133 692 -76 692 -28 c 7x8e50
 692 30 660 70 573 119 c 5
EndSplineSet
EndChar
StartChar: s.init
Encoding: 65581 -1 119
Width: 1180
Flags: W
HStem: -66 60<773.397 930.135> 173 60<139.454 221.818 996 1180> 209 72<374 440> 416 60<396.497 542> 416 21G<424 509.5> 714 20G<68 138 616.286 692 888.5 984> 714 20G<68 138 616.286 692 888.5 984>
VStem: 65 66<240.922 385> 374 66<209 281> 540 66<227.399 385.46> 662 66<38.2344 237.23> 698 66<207.924 456.713> 844 66<468.129 652.894> 990 66<56.8878 174.001>
AnchorPoint: "below" 180 120 basechar 0
AnchorPoint: "above" 120 446 basechar 0
LayerCount: 2
Fore
SplineSet
764 358 m 3x85dc
 764 245.888671875 728 183 728 109 c 3
 728 41 771 -6 852 -6 c 3
 945 -6 990 59 990 152 c 3
 990 326 844 404 844 548 c 3
 844 636 866 678 911 734 c 1
 984 734 l 1
 984 724 l 1
 933 670 910 625 910 553 c 3
 910 427 1056 341 1056 155 c 3
 1056 32 986 -66 849 -66 c 3
 731 -66 662 9 662 106 c 3x85ec
 662 193 698 254.977539062 698 355 c 3
 698 446.021975369 664 499 588 530 c 1
 654 565 l 1
 730 516 764 455.020616366 764 358 c 3x85dc
495 416 m 1x91cc
 464.0078125 447.7421875 446 425 424 416 c 1
 473 571 590 596 682 596 c 1
 692 596 l 1
 692 536 l 1
 607 536 524 530 495 416 c 1x91cc
178 173 m 3xd1cc
 105 173 65 221 65 286 c 3
 65 319 66 347 70 385 c 1
 138 385 l 1
 138 375 l 1
 132 340 131 320 131 287 c 3
 131 255 147 233 181 233 c 3
 270 233 285 476 456 476 c 3
 571 476 606 380 606 318 c 3
 606 271 593 211 571 173 c 1
 491 173 l 1
 491 183 l 1
 526 228 540 282 540 316 c 3
 540 368 513 416 449 416 c 3
 332 416 338 173 178 173 c 3xd1cc
996 179 m 1
 994 239 l 1
 1180 239 l 1
 1210 209 l 1xa1cc
 1180 179 l 1
 996 179 l 1
374 209 m 1
 374 281 l 1
 440 281 l 1
 440 209 l 1
 374 209 l 1
EndSplineSet
EndChar
StartChar: s.medi
Encoding: 65582 -1 120
Width: 1270
Flags: W
HStem: -66 60<863.397 1020.13> 173 60<0 54.3486 225.593 311.818 1086 1270> 209 72<464 530> 385 329G<124.5 205 706.286 782 978.5 1074> 385 329G<124.5 205 706.286 782 978.5 1074> 416 60<486.497 632> 416 21G<514 599.5>
VStem: 130 75<310.006 385> 464 66<209 281> 630 66<227.399 385.46> 752 66<38.2344 237.23> 788 66<207.924 456.713> 934 66<468.129 652.894> 1080 66<56.8878 174.001>
AnchorPoint: "below" 270 120 basechar 0
AnchorPoint: "above" 210 446 basechar 0
LayerCount: 2
Fore
SplineSet
854 358 m 3x81dc
 854 245.888671875 818 183 818 109 c 3
 818 41 861 -6 942 -6 c 3
 1035 -6 1080 59 1080 152 c 3
 1080 326 934 404 934 548 c 3
 934 636 956 678 1001 734 c 1
 1074 734 l 1
 1074 724 l 1
 1023 670 1000 625 1000 553 c 3
 1000 427 1146 341 1146 155 c 3
 1146 32 1076 -66 939 -66 c 3
 821 -66 752 9 752 106 c 3x81ec
 752 193 788 254.977539062 788 355 c 3
 788 446.022460938 754 499 678 530 c 1
 744 565 l 1
 820 516 854 455.020507812 854 358 c 3x81dc
585 416 m 1x85cc
 554.0078125 447.7421875 536 425 514 416 c 1
 563 571 680 596 772 596 c 1
 782 596 l 1
 782 536 l 1
 697 536 614 530 585 416 c 1x85cc
1086 179 m 1
 1084 239 l 1
 1270 239 l 1
 1300 209 l 1xa1cc
 1270 179 l 1
 1086 179 l 1
271 233 m 7xd1cc
 360 233 375 476 546 476 c 7
 661 476 696 380 696 318 c 7
 696 271 683 211 661 173 c 5
 581 173 l 5
 581 183 l 5
 616 228 630 282 630 316 c 7
 630 368 603 416 539 416 c 7
 422 416 428 173 268 173 c 7xc5cc
 212 173 167 203 156 274 c 5
 129 211 73 179 0 179 c 13
 -30 209 l 5xa1cc
 0 239 l 21
 54 239 119 285 130 385 c 5
 205 385 l 5
 205 343 l 5
 205 274 225 233 271 233 c 7xd1cc
464 209 m 1xa1cc
 464 281 l 1
 530 281 l 1
 530 209 l 1
 464 209 l 1xa1cc
EndSplineSet
EndChar
StartChar: scaron.fina
Encoding: 65604 -1 142
Width: 1210
Flags: W
HStem: 48 72<391 457 541 607> 173 60<0 54.3486 225.593 311.818 846.928 1035.89> 209 72<464 530> 385 329G<124.5 205 706.286 782 1028.5 1124> 385 329G<124.5 205 706.286 782 1028.5 1124> 416 60<486.497 632> 416 21G<514 599.5>
VStem: 130 75<310.006 385> 391 66<48 120> 464 66<209 281> 541 66<48 120> 630 66<227.399 385.46> 788 66<236.678 456.704> 994 66<513.284 669.312> 1080 66<273.529 416.617>
AnchorPoint: "above" 210 446 basechar 0
AnchorPoint: "below" 270 120 basechar 0
LayerCount: 2
Fore
SplineSet
854 358 m 3xc1fe
 854 310.333007812 850.479492188 271.541015625 845.98828125 237 c 1
 865.859375 234.583984375 897.193359375 233 942 233 c 3
 1035 233 1080 274 1080 337 c 3
 1080 431 994 474 994 578 c 3
 994 646 1006 678 1051 734 c 1
 1124 734 l 1
 1124 724 l 1
 1073 670 1060 635 1060 583 c 3
 1060 507 1146 456 1146 340 c 3
 1146 247 1092 173 939 173 c 3
 864.447265625 173 803 178 777 179 c 1
 777 229 l 1
 783 270 788 306 788 355 c 3
 788 446 754 499 678 530 c 1
 744 565 l 1
 820 516 854 455 854 358 c 3xc1fe
585 416 m 1x85fe
 554 448 536 425 514 416 c 1
 563 571 680 596 772 596 c 1
 782 596 l 1
 782 536 l 1
 697 536 614 530 585 416 c 1x85fe
541 48 m 1
 541 120 l 1
 607 120 l 1
 607 48 l 1
 541 48 l 1
391 48 m 1
 391 120 l 1
 457 120 l 1
 457 48 l 1
 391 48 l 1
464 209 m 1xa1fe
 464 281 l 1
 530 281 l 1
 530 209 l 1
 464 209 l 1xa1fe
271 233 m 3xd1fe
 360 233 375 476 546 476 c 3
 661 476 696 380 696 318 c 3
 696 271 683 211 661 173 c 1
 581 173 l 1
 581 183 l 1
 616 228 630 282 630 316 c 3
 630 368 603 416 539 416 c 3
 422 416 428 173 268 173 c 3xc5fe
 212 173 167 203 156 274 c 1
 129 211 73 179 0 179 c 9
 -30 209 l 1xa1fe
 0 239 l 17
 54 239 119 285 130 385 c 1
 205 385 l 1
 205 343 l 1
 205 274 225 233 271 233 c 3xd1fe
EndSplineSet
EndChar
StartChar: scaron.medi
Encoding: 65603 -1 141
Width: 1270
Flags: W
HStem: 48 72<391 457 541 607> 173 60<0 54.3486 225.593 311.818 846.928 1035.89 1221.37 1280> 209 72<464 530> 385 191G<124.5 205 706.286 782 1028.5 1158> 385 191G<124.5 205 706.286 782 1028.5 1124> 416 60<486.497 632> 416 21G<514 599.5>
VStem: 130 75<310.006 385> 391 66<48 120> 464 66<209 281> 541 66<48 120> 630 66<227.399 385.46> 788 66<236.678 456.704> 994 66<513.284 669.312>
AnchorPoint: "above" 210 446 basechar 0
AnchorPoint: "below" 270 120 basechar 0
LayerCount: 2
Fore
SplineSet
585 416 m 1x85fc
 554 448 536 425 514 416 c 1
 563 571 680 596 772 596 c 1
 782 596 l 1
 782 536 l 1
 697 536 614 530 585 416 c 1x85fc
1081 355 m 1
 1144 360 l 1
 1172 281 1217 240 1280 240 c 1
 1310 210 l 1
 1280 180 l 1
 1174 180 1110 248 1081 355 c 1
541 48 m 1
 541 120 l 1
 607 120 l 1
 607 48 l 1
 541 48 l 1
391 48 m 1
 391 120 l 1
 457 120 l 1
 457 48 l 1
 391 48 l 1
854 358 m 7
 854 310.333007812 850.479492188 271.541015625 845.98828125 237 c 5
 865.859375 234.583984375 897.193359375 233 942 233 c 7
 1035 233 1080 274 1080 337 c 7
 1080 431 994 474 994 578 c 7
 994 646 1006 678 1051 734 c 5
 1124 734 l 5
 1124 724 l 5
 1073 670 1060 635 1060 583 c 7
 1060 507 1146 456 1146 340 c 7
 1146 247 1092 173 939 173 c 7xc1fc
 864.447265625 173 803 178 777 179 c 5
 777 229 l 5
 783 270 788 306 788 355 c 7
 788 446 754 499 678 530 c 5
 744 565 l 5
 820 516 854 455 854 358 c 7
464 209 m 1xa1fc
 464 281 l 1
 530 281 l 1
 530 209 l 1
 464 209 l 1xa1fc
271 233 m 3xd1fc
 360 233 375 476 546 476 c 3
 661 476 696 380 696 318 c 3
 696 271 683 211 661 173 c 1
 581 173 l 1
 581 183 l 1
 616 228 630 282 630 316 c 3
 630 368 603 416 539 416 c 3
 422 416 428 173 268 173 c 3xc5fc
 212 173 167 203 156 274 c 1
 129 211 73 179 0 179 c 9
 -30 209 l 1xa1fc
 0 239 l 17
 54 239 119 285 130 385 c 1
 205 385 l 1
 205 343 l 1
 205 274 225 233 271 233 c 3xd1fc
EndSplineSet
EndChar
StartChar: t.fina
Encoding: 65586 -1 124
Width: 1130
Flags: W
HStem: 178 60<0 65.3184 553.857 735.31 799.897 947.411> 353 248G<537.5 610 630 701> 365 20G<1016.5 1095> 365 20G<1016.5 1095> 416 60<282.492 396.163 688.681 771.94> 601 21G<537.5 610> 674 60<598.95 663.736>
VStem: 229 66<-59.2968 68.4182> 402 68<-88.698 42.1561> 414 99<268 389> 447 33<239 418> 531 66<606.495 672.476> 541 69<601 644.347> 620 66<337.678 412.326> 668 66<575.909 671.098> 782 66<283.619 406.739> 1029 66<326.642 385>
AnchorPoint: "above" 340 506 basechar 0
AnchorPoint: "below" 650 120 basechar 0
LayerCount: 2
Fore
SplineSet
347 476 m 1027x8b0180
531 648 m 0xc31180
 531 698 569 734 629 734 c 0
 694 734 734 690 734 634 c 0xc31380
 734 547 660.220703125 508.69921875 609 473 c 0
 543 427 513 395 513 338 c 0
 513 268 565 238 648 238 c 0
 727 238 782 277 782 355 c 0
 782 396 762 416 726 416 c 0
 699 416 686 399 686 381 c 0
 686 368 691 357 701 342 c 1
 701 332 l 1
 635 332 l 1
 625 346 620 360 620 385 c 0x9b4580
 620 440 666 476 721 476 c 0
 792 476 848 431 848 355 c 0
 848 302.711914062 831.067382812 265.271484375 799.897460938 238 c 1
 853 238 l 6
 959 238 1004 293 1029 385 c 5
 1095 385 l 5
 1095 375 l 5
 1075 252 1010.90039062 178 849 178 c 6
 648 178 l 2
 531 178 447 239 447 343 c 0
 447 432 511 477.125 572 518 c 0
 628.005859375 555.528320312 668 580 668 633 c 0
 668 661 651 674 630 674 c 0
 608 674 597 659 597 645 c 0xab3380
 597 631 601 621 610 611 c 1
 610 601 l 1
 541 601 l 1xc30980
 534 612 531 632 531 648 c 0xc31180
283 119 m 1
 329 164 l 1
 431 100 470 55 470 -23 c 3
 470 -81 432 -137 392 -172 c 1
 309 -172 l 1
 309 -162 l 1
 350 -133 402 -76 402 -28 c 3x838180
 402 30 370 70 283 119 c 1
347 476 m 0x8b4180
 428 476 480 418 480 345 c 3x8b2180
 480 154 295 125 295 3 c 3
 295 -64 355 -90 374 -118 c 1
 329 -162 l 1
 289 -122 229 -80 229 0 c 3
 229 166 414 197 414 340 c 3
 414 389 386 416 340 416 c 0
 223 416 200 179 0 179 c 1
 -30 209 l 1
 0 239 l 1
 143 239 177 476 347 476 c 0x8b4180
EndSplineSet
EndChar
StartChar: t.init
Encoding: 65584 -1 122
Width: 830
Flags: W
HStem: 178 60<463.857 645.31 709.897 830> 353 248G<447.5 520 540 611> 416 60<190.082 306.163 598.681 681.94> 601 21G<447.5 520> 674 60<508.95 573.736>
VStem: 139 66<-59.2968 68.4182> 312 68<-88.698 42.1561> 324 99<268 389> 357 33<239 418> 441 66<606.495 672.476> 451 69<601 644.347> 530 66<337.678 412.326> 578 66<575.909 671.098> 692 66<283.619 406.739>
AnchorPoint: "below" 560 120 basechar 0
AnchorPoint: "above" 250 506 basechar 0
LayerCount: 2
Fore
SplineSet
324 340 m 3xad04
 324 389 296 416 250 416 c 3
 184 416 125 336 60 236 c 1
 50 236 l 1
 50 333 l 1
 105 409 166 476 257 476 c 3
 338 476 390 418 390 345 c 3xac84
 390 154 205 125 205 3 c 3
 205 -64 265 -90 284 -118 c 1
 239 -162 l 1
 199 -122 139 -80 139 0 c 3
 139 166 324 197 324 340 c 3xad04
193 119 m 1
 239 164 l 1
 341 100 380 55 380 -23 c 3
 380 -81 342 -137 302 -172 c 1
 219 -172 l 1
 219 -162 l 1
 260 -133 312 -76 312 -28 c 3x8e04
 312 30 280 70 193 119 c 1
441 648 m 0xcc44
 441 698 479 734 539 734 c 0
 604 734 644 690 644 634 c 0xcc4c
 644 547 570.220710525 508.699283093 519 473 c 0
 453 427 423 395 423 338 c 0
 423 268 475 238 558 238 c 0
 637 238 692 277 692 355 c 0
 692 396 672 416 636 416 c 0
 609 416 596 399 596 381 c 0
 596 368 601 357 611 342 c 1
 611 332 l 1
 545 332 l 1
 535 346 530 360 530 385 c 0xad14
 530 440 576 476 631 476 c 0
 702 476 758 431 758 355 c 0
 758 302.711914062 741.067382812 265.271484375 709.897460938 238 c 1
 830 238 l 21
 860 209 l 5
 830 178 l 13
 558 178 l 2
 441 178 357 239 357 343 c 0
 357 432 421 477.12539185 482 518 c 0
 538.005743381 555.528078932 578 580 578 633 c 0
 578 661 561 674 540 674 c 0
 518 674 507 659 507 645 c 0xaccc
 507 631 511 621 520 611 c 1
 520 601 l 1
 451 601 l 1xcc24
 444 612 441 632 441 648 c 0xcc44
EndSplineSet
EndChar
StartChar: t.medi
Encoding: 65585 -1 123
Width: 920
Flags: W
HStem: 178 60<0 65.3184 553.857 735.31 799.897 920> 353 248G<537.5 610 630 701> 416 60<282.492 396.163 688.681 771.94> 601 21G<537.5 610> 674 60<598.95 663.736>
VStem: 229 66<-59.2968 68.4182> 402 68<-88.698 42.1561> 414 99<268 389> 447 33<239 418> 531 66<606.495 672.476> 541 69<601 644.347> 620 66<337.678 412.326> 668 66<575.909 671.098> 782 66<283.619 406.739>
AnchorPoint: "above" 340 506 basechar 0
AnchorPoint: "below" 650 120 basechar 0
LayerCount: 2
Fore
SplineSet
531 648 m 0xcc44
 531 698 569 734 629 734 c 0
 694 734 734 690 734 634 c 0xcc4c
 734 547 660.220703125 508.69921875 609 473 c 0
 543 427 513 395 513 338 c 0
 513 268 565 238 648 238 c 0
 727 238 782 277 782 355 c 0
 782 396 762 416 726 416 c 0
 699 416 686 399 686 381 c 0
 686 368 691 357 701 342 c 1
 701 332 l 1
 635 332 l 1
 625 346 620 360 620 385 c 0xad14
 620 440 666 476 721 476 c 0
 792 476 848 431 848 355 c 0
 848 302.711914062 831.067382812 265.271484375 799.897460938 238 c 1
 920 238 l 17
 950 209 l 1
 920 178 l 9
 648 178 l 2
 531 178 447 239 447 343 c 0
 447 432 511 477.125 572 518 c 0
 628.005859375 555.528320312 668 580 668 633 c 0
 668 661 651 674 630 674 c 0
 608 674 597 659 597 645 c 0xaccc
 597 631 601 621 610 611 c 1
 610 601 l 1
 541 601 l 1xcc24
 534 612 531 632 531 648 c 0xcc44
283 119 m 1
 329 164 l 1
 431 100 470 55 470 -23 c 3
 470 -81 432 -137 392 -172 c 1
 309 -172 l 1
 309 -162 l 1
 350 -133 402 -76 402 -28 c 3x8e04
 402 30 370 70 283 119 c 1
347 476 m 4xad04
 428 476 480 418 480 345 c 7xac84
 480 154 295 125 295 3 c 7
 295 -64 355 -90 374 -118 c 5
 329 -162 l 5
 289 -122 229 -80 229 0 c 7
 229 166 414 197 414 340 c 7
 414 389 386 416 340 416 c 4
 223 416 200 179 0 179 c 5
 -30 209 l 5
 0 239 l 5
 143 239 177 476 347 476 c 4xad04
EndSplineSet
EndChar
StartChar: u.fina
Encoding: 65589 -1 127
Width: 690
Flags: W
HStem: -98 61<319.777 399.909> 60 60<320.091 400.223> 179 60<0 74.5494 255.038 507.452> 365 20G<141.5 222 576.5 655> 365 20G<141.5 222 576.5 655>
VStem: 147 75<313.261 385> 251 61<-29.2226 51.5753> 408 61<-29.0753 51.7226> 589 66<326.642 385>
AnchorPoint: "below" 385 -116 basechar 0
AnchorPoint: "above" 185 446 basechar 0
LayerCount: 2
Fore
SplineSet
312 11 m 0xe780
 312 -16 333 -37 360 -37 c 0
 387 -37 408 -15 408 12 c 0
 408 39 387 60 360 60 c 0
 333 60 312 38 312 11 c 0xe780
251 11 m 0
 251 71 300 120 360 120 c 0
 420 120 469 71 469 11 c 0
 469 -49 420 -98 360 -98 c 0
 300 -98 251 -49 251 11 c 0
413 238 m 2
 519 238 564 293 589 385 c 1
 655 385 l 1
 655 375 l 1
 635 252 571 178 409 178 c 2
 330 179 l 1
 234 179 188 209 173 274 c 1
 146 211 83 179 0 179 c 0
 -30 209 l 1
 0 239 l 0
 64 239 136 285 147 385 c 1
 222 385 l 1xf780
 222 343 l 1
 222 265 266 239 339 239 c 1
 413 238 l 2
EndSplineSet
Substitution2: "fina-1" glyph127.fina
Substitution2: "medi-1" glyph127.medi
Substitution2: "init-1" glyph127.init
EndChar
StartChar: u.init
Encoding: 65587 -1 125
Width: 220
Flags: W
HStem: -98 61<99.7774 179.909> 60 60<100.091 180.223> 179 60<144.281 219> 365 20G<68 138> 365 20G<68 138>
VStem: 31 61<-29.2226 51.5753> 65 66<253.215 385> 188 61<-29.0753 51.7226>
AnchorPoint: "below" 165 -116 basechar 0
AnchorPoint: "above" 125 446 basechar 0
LayerCount: 2
Fore
SplineSet
92 11 m 0xe5
 92 -16 113 -37 140 -37 c 0
 167 -37 188 -15 188 12 c 0
 188 39 167 60 140 60 c 0
 113 60 92 38 92 11 c 0xe5
31 11 m 0
 31 71 80 120 140 120 c 0
 200 120 249 71 249 11 c 0
 249 -49 200 -98 140 -98 c 0
 80 -98 31 -49 31 11 c 0
220 179 m 25
 204 179 l 1
 106 179 65 225 65 296 c 0
 65 329 66 347 70 385 c 1
 138 385 l 1
 138 375 l 1
 132 340 131 323 131 301 c 0xf3
 131 258 161 239 208 239 c 1
 219 239 l 25
 250 209 l 25
 220 179 l 25
EndSplineSet
EndChar
StartChar: u.mark
Encoding: 65618 -1 159
Width: 0
Flags: W
HStem: -98 61<-40.2226 39.9086> 60 60<-39.9086 40.2226>
VStem: -109 61<-29.2226 51.5753> 48 61<-29.0753 51.7226>
AnchorPoint: "below" 0 120 mark 0
LayerCount: 2
Fore
SplineSet
-48 11 m 4
 -48 -16 -27 -37 0 -37 c 4
 27 -37 48 -15 48 12 c 4
 48 39 27 60 0 60 c 4
 -27 60 -48 38 -48 11 c 4
-109 11 m 4
 -109 71 -60 120 0 120 c 4
 60 120 109 71 109 11 c 4
 109 -49 60 -98 0 -98 c 4
 -60 -98 -109 -49 -109 11 c 4
EndSplineSet
EndChar
StartChar: u.medi
Encoding: 65588 -1 126
Width: 370
Flags: W
HStem: -98 61<149.777 229.909> 60 60<150.091 230.223> 179 60<0 74.5494 258.054 370> 365 20G<141.5 222> 365 20G<141.5 222>
VStem: 81 61<-29.2226 51.5753> 147 75<314.127 385> 238 61<-29.0753 51.7226>
AnchorPoint: "below" 205 -116 basechar 0
AnchorPoint: "above" 195 446 basechar 0
LayerCount: 2
Fore
SplineSet
142 11 m 0xe7
 142 -16 163 -37 190 -37 c 0
 217 -37 238 -15 238 12 c 0
 238 39 217 60 190 60 c 0
 163 60 142 38 142 11 c 0xe7
81 11 m 0
 81 71 130 120 190 120 c 0
 250 120 299 71 299 11 c 0
 299 -49 250 -98 190 -98 c 0
 130 -98 81 -49 81 11 c 0
370 239 m 1
 400 209 l 1
 370 179 l 1
 254 179 190 203.339121943 173 274 c 1
 146 210.799804688 83 179 0 179 c 0
 -30 209 l 1
 0 239 l 0
 64 239 136 285 147 385 c 1
 222 385 l 1xf7
 222 343 l 1
 222 258 275 239 370 239 c 1
EndSplineSet
EndChar
StartChar: underscore.fina
Encoding: 65629 -1 171
Width: 250
Flags: HW
HStem: 179 60<76 374>
VStem: 76 298<179 239>
LayerCount: 2
Fore
SplineSet
0 179 m 1
 -30 209 l 1
 0 239 l 1
 224 239 l 5
 224 179 l 5
 0 179 l 1
EndSplineSet
EndChar
StartChar: underscore.init
Encoding: 65627 -1 169
Width: 250
Flags: HW
HStem: 179 60<76 374>
VStem: 76 298<179 239>
LayerCount: 2
Fore
SplineSet
26 179 m 1
 26 239 l 1
 250 239 l 5
 280 209 l 5
 250 179 l 5
 26 179 l 1
EndSplineSet
EndChar
StartChar: underscore.medi
Encoding: 65628 -1 170
Width: 250
Flags: HW
HStem: 179 60<76 374>
VStem: 76 298<179 239>
LayerCount: 2
Fore
SplineSet
0 179 m 1
 -30 209 l 1
 0 239 l 1
 250 239 l 5
 280 209 l 5
 250 179 l 5
 0 179 l 1
EndSplineSet
EndChar
StartChar: uni1E11.init
Encoding: 65611 -1 149
Width: 1160
Flags: W
HStem: -66 60<716.515 888.135> 179 60<405.008 548.168 956 1160> 416 60<190.082 306.163> 530 72<210 276> 714 20G<337.158 373 582 648 846.5 942> 714 20G<582 648 846.5 942>
VStem: 139 66<-59.2968 68.4182> 210 66<530 602> 312 68<-88.698 42.1561> 324 66<319.893 397.491> 582 66<67.47 172 345 385> 802 66<468.129 652.894> 948 66<56.8878 174.001>
AnchorPoint: "above" 243 655 basechar 0
AnchorPoint: "below" 560 -36 basechar 0
LayerCount: 2
Fore
SplineSet
193 119 m 1xf3b8
 239 164 l 1
 341 100 380 55 380 -23 c 3
 380 -81 342 -137 302 -172 c 1
 219 -172 l 1
 219 -162 l 1
 260 -133 312 -76 312 -28 c 3
 312 30 280 70 193 119 c 1xf3b8
324 340 m 3xf378
 324 389 296 416 250 416 c 3
 184 416 125 336 60 236 c 1
 50 236 l 1
 50 333 l 1
 105 409 166 476 257 476 c 3
 338 476 390 418 390 345 c 3
 390 154 205 125 205 3 c 3
 205 -64 265 -90 284 -118 c 1
 239 -162 l 1
 199 -122 139 -80 139 0 c 3
 139 166 324 197 324 340 c 3xf378
210 530 m 1
 210 602 l 1
 276 602 l 1
 276 530 l 1
 210 530 l 1
956 179 m 1
 954 239 l 1
 1160 239 l 1
 1190 209 l 1
 1160 179 l 1
 956 179 l 1
810 -6 m 3
 903 -6 948 59 948 152 c 3
 948 326 802 404 802 548 c 3
 802 636 824 678 869 734 c 1
 942 734 l 1xfb38
 942 724 l 1
 891 670 868 625 868 553 c 3
 868 427 1014 341 1014 155 c 3
 1014 32 944 -66 807 -66 c 3
 664 -66 582 28 582 169 c 2
 582 385 l 1
 648 385 l 1
 648 172 l 2
 648 50 706 -6 810 -6 c 3
474 239 m 0
 546 239 585 276 586 360 c 1
 641 345 l 1
 628 249 590 179 474 179 c 0
 389 179 346 219 313 277 c 1
 364 315 l 1
 382 272 417 239 474 239 c 0
EndSplineSet
EndChar
StartChar: uni1E11.medi
Encoding: 65612 -1 150
Width: 1250
Flags: W
HStem: -66 60<806.515 978.135> 179 60<0 67.2324 495.008 638.168 1046 1250> 416 60<282.492 396.163> 530 72<300 366> 714 20G<427.158 463 672 738 936.5 1032> 714 20G<672 738 936.5 1032>
VStem: 229 66<-59.2968 68.4182> 300 66<530 602> 402 68<-88.698 42.1561> 414 66<319.893 397.491> 672 66<67.47 172 345 385> 892 66<468.129 652.894> 1038 66<56.8878 174.001>
AnchorPoint: "below" 650 -36 basechar 0
AnchorPoint: "above" 333 655 basechar 0
LayerCount: 2
Fore
SplineSet
283 119 m 1xf3b8
 329 164 l 1
 431 100 470 55 470 -23 c 3
 470 -81 432 -137 392 -172 c 1
 309 -172 l 1
 309 -162 l 1
 350 -133 402 -76 402 -28 c 3
 402 30 370 70 283 119 c 1xf3b8
300 530 m 1
 300 602 l 1
 366 602 l 1
 366 530 l 1
 300 530 l 1
1046 179 m 1
 1044 239 l 1
 1250 239 l 1
 1280 209 l 1
 1250 179 l 1
 1046 179 l 1
900 -6 m 3
 993 -6 1038 59 1038 152 c 3
 1038 326 892 404 892 548 c 3
 892 636 914 678 959 734 c 1
 1032 734 l 1xfb38
 1032 724 l 1
 981 670 958 625 958 553 c 3
 958 427 1104 341 1104 155 c 3
 1104 32 1034 -66 897 -66 c 3
 754 -66 672 28 672 169 c 2
 672 385 l 1
 738 385 l 1
 738 172 l 2
 738 50 796 -6 900 -6 c 3
564 239 m 0
 636 239 675 276 676 360 c 1
 731 345 l 1
 718 249 680 179 564 179 c 0
 479 179 436 219 403 277 c 1
 454 315 l 1
 472 272 507 239 564 239 c 0
347 476 m 0
 428 476 480 418 480 345 c 3
 480 154 295 125 295 3 c 3
 295 -64 355 -90 374 -118 c 1
 329 -162 l 1
 289 -122 229 -80 229 0 c 3
 229 166 414 197 414 340 c 3xf378
 414 389 386 416 340 416 c 0
 223 416 200 179 0 179 c 1
 -30 209 l 1
 0 239 l 1
 143 239 177 476 347 476 c 0
EndSplineSet
EndChar
StartChar: v.fina
Encoding: 65592 -1 130
Width: 1120
Flags: W
HStem: -178 60<930.673 1060> 173 60<0 65.0212 190.38 289.905 482.622 619.068> 313 21G<939 1022> 416 60<218.928 319.962> 470 60<817.797 966.359> 530 72<230 296> 714 20G<103.582 122.582 335.969 386 795 861>
VStem: 230 66<530 602> 641 66<255.458 394.028> 795 66<-42.0213 734> 979 66<341.759 455.218>
AnchorPoint: "above" 263 655 basechar 0
AnchorPoint: "below" 240 120 basechar 0
LayerCount: 2
Fore
SplineSet
1014 -118 m 2xe3e0
 1080 -118 l 1
 1080 -128 l 1
 1060 -178 l 1
 1007 -178 l 2
 854.141601562 -178 795 -78.1494140625 795 71 c 2
 795 734 l 1
 861 734 l 1
 861 76 l 2
 861 -42.6005859375 901.64453125 -118 1014 -118 c 2xe3e0
230 530 m 1xe7e0
 230 602 l 1
 296 602 l 1
 296 530 l 1
 230 530 l 1xe7e0
0 179 m 1
 -30 209 l 1
 0 239 l 1
 48 239 92 258 115.163085938 319.109375 c 1
 130 304 151.708007812 294.177734375 169.836914062 285.890625 c 1
 128 212 78 179 0 179 c 1
555 173 m 3
 455 173 396.194335938 234 353.861328125 334.049804688 c 0
 330.482421875 389.302734375 310.973632812 416 274 416 c 3
 228.9375 416 176 370.006835938 176 300 c 3
 176 253.983398438 204.98046875 233 241 233 c 3
 288.018554688 233 320.9375 283 351 359 c 1
 400 331 l 1
 358.106445312 224 311 173 234 173 c 3
 157 173 110 220.443359375 110 293 c 3
 110 394.044921875 185.887695312 476 274 476 c 3xf3e0
 343 476 376.87890625 434.209960938 412.138671875 353.950195312 c 0
 452.095703125 263 493 233 554 233 c 3
 608 233 641 264 641 308 c 3
 641 346.60546875 632.198242188 372.975585938 616.553710938 403 c 1
 616.553710938 413 l 1
 683 480 791 530 886 530 c 3
 1001 530 1045 471 1045 410 c 0
 1045 370 1031 336 1013 313 c 1
 939 313 l 1
 939 323 l 1
 972 351 979 382 979 405 c 0
 979 449 961 470 879 470 c 3xebe0
 808.9375 470 734 440 693.120117188 390.504882812 c 1
 701.568359375 363.859375 707 338 707 302 c 3
 707 239.930664062 659 173 555 173 c 3
EndSplineSet
EndChar
StartChar: v.medi
Encoding: 65591 -1 129
Width: 1140
Flags: W
HStem: 173 60<0 65.0212 190.38 289.905 482.622 619.068 905.544 1140> 299.109 434.891G<103.582 122.582 335.969 386 795 861> 313 21G<939 1022> 416 60<218.928 319.962> 470 60<817.797 966.359> 530 72<230 296> 714 20G<795 861>
VStem: 230 66<530 602> 641 66<255.458 394.028> 795 66<275.278 734> 979 66<341.759 455.218>
AnchorPoint: "below" 240 120 basechar 0
AnchorPoint: "above" 263 655 basechar 0
LayerCount: 2
Fore
SplineSet
230 530 m 5x85e0
 230 602 l 5
 296 602 l 5
 296 530 l 5
 230 530 l 5x85e0
0 179 m 1
 -30 209 l 1
 0 239 l 1
 48 239 92 258 115.163085938 319.109375 c 1
 130 304 151.708007812 294.177734375 169.836914062 285.890625 c 1
 128 212 78 179 0 179 c 1
994 239 m 2
 1140 239 l 1
 1170 209 l 1
 1140 179 l 1
 987 179 l 2
 854.141601562 179 795 228.850585938 795 368 c 2
 795 734 l 1
 861 734 l 1xc1e0
 861 373 l 2
 861 264.399414062 891.64453125 239 994 239 c 2
555 173 m 3
 455 173 396.194335938 234 353.861328125 334.049804688 c 0
 330.482421875 389.302734375 310.973632812 416 274 416 c 3
 228.9375 416 176 370.006835938 176 300 c 3
 176 253.983398438 204.98046875 233 241 233 c 3
 288.018554688 233 320.9375 283 351 359 c 1
 400 331 l 1
 358.106445312 224 311 173 234 173 c 3
 157 173 110 220.443359375 110 293 c 3
 110 394.044921875 185.887695312 476 274 476 c 3x91e0
 343 476 376.87890625 434.209960938 412.138671875 353.950195312 c 0
 452.095703125 263 493 233 554 233 c 3
 608 233 641 264 641 308 c 3
 641 346.60546875 632.198242188 372.975585938 616.553710938 403 c 1
 616.553710938 413 l 1
 683 480 791 530 886 530 c 3
 1001 530 1045 471 1045 410 c 0
 1045 370 1031 336 1013 313 c 1
 939 313 l 1
 939 323 l 1
 972 351 979 382 979 405 c 0
 979 449 961 470 879 470 c 3xa9e0
 808.9375 470 734 440 693.120117188 390.504882812 c 1
 701.568359375 363.859375 707 338 707 302 c 3
 707 239.930664062 659 173 555 173 c 3
EndSplineSet
EndChar
StartChar: z.fina
Encoding: 65595 -1 133
Width: 1240
Flags: HW
HStem: -66 60<846.515 1018.13> 48 72<436 502> 179 60<0 74.5494 249.871 417.707 535.008 678.168> 341 69G<388.203 428.303 481.565 507> 365 20G<141.5 222 405 481 712 778> 365 20G<141.5 222 405 503 712 778> 410 21G<388.203 428.303> 724 10<445.44 489>
VStem: 147 75<314.379 385> 298 66<483.228 641.458> 436 66<48 120 305.793 340.437> 523 71<441.763 508.839> 712 66<67.47 172 345 385> 932 66<468.129 652.894> 1078 66<56.8878 262.391>
AnchorPoint: "below" 190 120 basechar 0
AnchorPoint: "above" 193 446 basechar 0
LayerCount: 2
Fore
SplineSet
344 239 m 3xe9fe
 429 239 468 267.991210938 468 307 c 3
 468 383.026367188 298 434 298 558 c 3
 298 643.03125 380 706 433 734 c 1
 519 734 l 1
 519 724 l 1
 441 694 394 632.041015625 394 565 c 3
 394 442 533 424 533 310 c 3
 533 232.987304688 470 179 344 179 c 3
 248 179 195 203 173 274 c 1
 146 211 83 179 0 179 c 0
 -30 209 l 1
 0 239 l 0
 64 239 136 285 147 385 c 1
 222 385 l 1
 222 335 l 1
 222 256 264 239 344 239 c 3xe9fe
624 493 m 3
 624 436 542 379 532 320 c 1
 485 366 l 1
 502 420 553 454 553 486 c 3
 553 500 541 509 529 509 c 3
 519.5625 509 506.163085938 504 494 488 c 0
 474.235351562 462 463.60546875 440.048828125 453 410 c 1xf1fe
 400.48828125 440.181640625 l 1
 415 488 450 535 487 565 c 1
 445 595 420 646 450 720 c 1
 511 720 l 1
 476 682 502.706054688 618.127929688 550 592 c 1
 550 567 l 1
 582 567 624 544 624 493 c 3
970 -6 m 3
 1063 -6 1108 59 1108 152 c 3
 1108 326 962 404 962 548 c 3
 962 636 984 678 1029 734 c 1
 1102 734 l 1
 1102 724 l 1
 1051 670 1028 625 1028 553 c 3
 1028 427 1174 341 1174 155 c 3
 1174 32 1104 -66 967 -66 c 3
 824 -66 742 28 742 169 c 2
 742 385 l 1
 808 385 l 1xe9fe
 808 172 l 2
 808 50 866 -6 970 -6 c 3
466 48 m 1
 466 120 l 1
 532 120 l 1
 532 48 l 1
 466 48 l 1
634 239 m 0
 706 239 745 276 746 360 c 1
 801 345 l 1
 788 249 750 179 634 179 c 0
 549 179 506 219 473 277 c 1
 524 315 l 1
 542 272 577 239 634 239 c 0
EndSplineSet
EndChar
StartChar: z.init
Encoding: 65593 -1 131
Width: 1230
Flags: HW
HStem: -66 60<756.515 928.135> 48 72<346 412> 179 60<156.121 327.707 445.008 588.168 996 1200> 341 69G<298.203 338.303 391.565 417> 365 20G<67 136 315 391 622 688> 365 20G<67 136 315 413 622 688> 410 21G<298.203 338.303> 724 10<355.44 399>
VStem: 65 66<263.343 385> 208 66<483.228 641.458> 346 66<48 120 305.793 340.437> 433 71<441.763 508.839> 622 66<67.47 172 345 385> 842 66<468.129 652.894> 988 66<56.8878 174.001>
AnchorPoint: "below" 100 120 basechar 0
AnchorPoint: "above" 103 446 basechar 0
LayerCount: 2
Fore
SplineSet
254 179 m 3xe9fe
 153 179 65 210.336914062 65 308 c 0
 65 335 66 362 68 385 c 1
 136 385 l 1
 136 375 l 1
 133 355 131 341 131 321 c 0
 131 253.715820312 178 239 254 239 c 3
 339 239 378 267.991210938 378 307 c 3
 378 383.026367188 238 434 238 558 c 3
 238 643.03125 290 706 343 734 c 1
 429 734 l 1
 429 724 l 1
 351 694 304 632.041015625 304 565 c 3
 304 442 443 424 443 310 c 3
 443 232.987304688 380 179 254 179 c 3xe9fe
534 493 m 3
 534 436 452 379 442 320 c 1
 395 366 l 1
 412 420 463 454 463 486 c 3
 463 500 451 509 439 509 c 3
 429.5625 509 416.163085938 504 404 488 c 0
 384.235351562 462 373.60546875 440.048828125 363 410 c 1xf1fe
 310.48828125 440.181640625 l 1
 325 488 360 535 397 565 c 1
 355 595 330 646 360 720 c 1
 421 720 l 1
 386 682 412.706054688 618.127929688 460 592 c 1
 460 567 l 1
 492 567 534 544 534 493 c 3
1026 179 m 1
 1024 239 l 1
 1230 239 l 1
 1260 209 l 1
 1230 179 l 1
 1026 179 l 1
1060 195 m 1024
880 -6 m 3
 973 -6 1018 59 1018 152 c 3
 1018 326 872 404 872 548 c 3
 872 636 894 678 939 734 c 1
 1012 734 l 1
 1012 724 l 1
 961 670 938 625 938 553 c 3
 938 427 1084 341 1084 155 c 3
 1084 32 1014 -66 877 -66 c 3
 734 -66 652 28 652 169 c 2
 652 385 l 1
 718 385 l 1xe9fe
 718 172 l 2
 718 50 776 -6 880 -6 c 3
376 48 m 1
 376 120 l 1
 442 120 l 1
 442 48 l 1
 376 48 l 1
544 239 m 0
 616 239 655 276 656 360 c 1
 711 345 l 1
 698 249 660 179 544 179 c 0
 459 179 416 219 383 277 c 1
 434 315 l 1
 452 272 487 239 544 239 c 0
EndSplineSet
EndChar
StartChar: zcaron.fina
Encoding: 65607 -1 145
Width: 1000
Flags: HW
HStem: 48 72<361 427 511 577> 179 60<0 74.5494 249.871 417.707 549.725 799.268> 341 69G<388.203 428.303 481.565 507> 365 20G<141.5 222 405 481> 365 20G<141.5 222 405 512.93> 410 21G<388.203 428.303> 724 10<445.44 489>
VStem: 147 75<314.379 385> 298 66<483.228 641.458> 361 66<48 120> 511 66<48 120> 523 71<441.763 508.839> 764 66<508.13 669.312> 840 66<278.466 422.074>
AnchorPoint: "above" 193 446 basechar 0
AnchorPoint: "below" 190 120 basechar 0
LayerCount: 2
Fore
SplineSet
344 239 m 3xd38c
 429 239 468 267.991210938 468 307 c 3
 468 383.026367188 328 434 328 558 c 3
 328 643.03125 380 706 433 734 c 1
 519 734 l 1
 519 724 l 1
 441 694 394 632.041015625 394 565 c 3
 394 442 533 424 533 310 c 3
 533 232.987304688 470 179 344 179 c 3
 248 179 195 203 173 274 c 1
 146 211 83 179 0 179 c 0
 -30 209 l 1
 0 239 l 0
 64 239 136 285 147 385 c 1
 222 385 l 1
 222 335 l 1
 222 256 264 239 344 239 c 3xd38c
624 493 m 3xe31c
 624 436 542 379 532 320 c 1
 485 366 l 1
 502 420 553 454 553 486 c 3
 553 500 541 509 529 509 c 3
 519.5625 509 506.163085938 504 494 488 c 0
 474.235351562 462 463.60546875 440.048828125 453 410 c 1
 400.48828125 440.181640625 l 1
 415 488 450 535 487 565 c 1
 445 595 420 646 450 720 c 1
 511 720 l 1
 476 682 502.706054688 618.127929688 550 592 c 1
 550 567 l 1
 582 567 624 544 624 493 c 3xe31c
712 233 m 0
 815 233 870 274 870 337 c 3
 870 431 794 474 794 578 c 3
 794 646 806 678 851 734 c 1
 924 734 l 1
 924 724 l 1
 873 670 860 635 860 583 c 3
 860 507 936 456 936 340 c 3
 936 247 872 173 709 173 c 3
 609 173 520.396484375 194 480 285 c 1
 531 323 l 1
 554.860351562 246 640 233 712 233 c 0
541 48 m 1xc32c
 541 120 l 1
 607 120 l 1
 607 48 l 1
 541 48 l 1xc32c
391 48 m 1xc34c
 391 120 l 1
 457 120 l 1
 457 48 l 1
 391 48 l 1xc34c
EndSplineSet
EndChar
StartChar: zcaron.init
Encoding: 65605 -1 143
Width: 980
Flags: HW
HStem: 48 72<271 337 421 487> 179 60<156.121 327.707 459.725 709.268 882.3 950> 341 69G<298.203 338.303 391.565 417> 365 20G<67 136 315 391> 365 20G<67 136 315 422.93 751 828> 410 21G<298.203 338.303> 724 10<355.44 399>
VStem: 65 66<263.343 385> 208 66<483.228 641.458> 271 66<48 120> 421 66<48 120> 433 71<441.763 508.839> 674 66<508.13 669.312>
AnchorPoint: "below" 100 120 basechar 0
AnchorPoint: "above" 103 446 basechar 0
LayerCount: 2
Fore
SplineSet
254 179 m 7xd388
 153 179 65 210.336914062 65 308 c 0
 65 335 66 362 68 385 c 1
 136 385 l 1
 136 375 l 1
 133 355 131 341 131 321 c 0
 131 253.715820312 178 239 254 239 c 7
 339 239 378 267.991210938 378 307 c 7
 378 383.026367188 238 434 238 558 c 7
 238 643.03125 290 706 343 734 c 5
 429 734 l 5
 429 724 l 5
 351 694 304 632.041015625 304 565 c 7
 304 442 443 424 443 310 c 7
 443 232.987304688 380 179 254 179 c 7xd388
534 493 m 7xe318
 534 436 452 379 442 320 c 5
 395 366 l 5
 412 420 463 454 463 486 c 7
 463 500 451 509 439 509 c 7
 429.5625 509 416.163085938 504 404 488 c 4
 384.235351562 462 373.60546875 440.048828125 363 410 c 5
 310.48828125 440.181640625 l 5
 325 488 360 535 397 565 c 5
 355 595 330 646 360 720 c 5
 421 720 l 5
 386 682 412.706054688 618.127929688 460 592 c 5
 460 567 l 5
 492 567 534 544 534 493 c 7xe318
622 233 m 4
 725 233 780 274 780 337 c 7
 780 431 704 474 704 578 c 7
 704 646 716 678 761 734 c 5
 834 734 l 5
 834 724 l 5
 783 670 770 635 770 583 c 7
 770 507 846 456 846 340 c 7
 846 247 782 173 619 173 c 7
 519 173 430.396484375 194 390 285 c 5
 441 323 l 5
 464.860351562 246 550 233 622 233 c 4
781 355 m 5
 844 360 l 5
 872 281 917 240 980 240 c 5
 1010 210 l 5
 980 180 l 5
 874 180 810 248 781 355 c 5
451 48 m 5xc328
 451 120 l 5
 517 120 l 5
 517 48 l 5
 451 48 l 5xc328
301 48 m 5xc348
 301 120 l 5
 367 120 l 5
 367 48 l 5
 301 48 l 5xc348
EndSplineSet
EndChar
